<svg width="46" height="47" viewBox="0 0 46 47" fill="none" xmlns="http://www.w3.org/2000/svg">
<path opacity="0.5" fill-rule="evenodd" clip-rule="evenodd" d="M0 3.44444V0.5H2.94737V1.5H1V3.44444H0ZM4 1.5V0.5H18L19 1.5H4ZM1 4.5V17.5L0 18.5V4.5H1ZM45 42.5V29.5L46 28.5V42.5H45ZM46 43.5556V46.5H43.0526V45.5H45V43.5556H46ZM42 45.5V46.5H28L27 45.5H42ZM16.0833 4.5L17.0833 3.5H3V17.5833L4 16.5833V4.5H16.0833ZM27.0294 4.5L26.0294 3.5H19.9117L18.9117 4.5H27.0294ZM42.9706 17.6127L43 17.5833V3.5H28.8579L29.8579 4.5H42V16.6421L42.9706 17.6127ZM42.9706 20.4411L42 19.4706V27.4706L42.9706 26.5L43 26.5294V20.4117L42.9706 20.4411ZM4 27.5294V19.4117L3 20.4117V26.5294L4 27.5294ZM4 42.5V30.3579L3 29.3579V43.5H17.0833L17.1127 43.4706L16.1421 42.5H4ZM19.9117 43.5L19.9411 43.4706L18.9706 42.5H26.9706L26 43.4706L26.0294 43.5H19.9117ZM42 42.5H29.799L28.8284 43.4706L28.8579 43.5H43V29.3579L42.9706 29.3284L42 30.299V42.5Z" fill="white"/>
<path d="M15 16.5C15 17.6046 14.1046 18.5 13 18.5V16.5H15Z" fill="white"/>
<path d="M16.5 16.5C16.5 17.2436 16.2681 17.9331 15.8727 18.5H29.9393L27.9393 16.5H16.5Z" fill="white"/>
<path d="M32.0607 18.5H33V16.5H30.0607L32.0607 18.5Z" fill="white"/>
<path d="M33 22.5H13V24.5H33V22.5Z" fill="white"/>
<path d="M32.7786 28.5C32.8535 28.5 32.9273 28.5041 33 28.5121V30.5H30.7786C30.7786 29.3954 31.6741 28.5 32.7786 28.5Z" fill="white"/>
<path d="M29.906 28.5C29.5106 29.0669 29.2786 29.7564 29.2786 30.5H18.0607L16.0607 28.5H29.906Z" fill="white"/>
<path d="M13 28.5H13.9393L15.9393 30.5H13V28.5Z" fill="white"/>
</svg>
