<svg width="383" height="272" viewBox="0 0 383 272" fill="none" xmlns="http://www.w3.org/2000/svg">
<path d="M371.347 70.4577C371.347 38.2242 348.316 12.138 319.958 12.138C291.599 12.138 268.568 38.2242 268.568 70.4577C268.568 102.691 291.599 128.778 319.958 128.778C348.316 128.778 371.347 102.691 371.347 70.4577Z" stroke="white" stroke-opacity="0.5" stroke-width="0.4"/>
<path d="M201.927 116.396C201.927 53.1678 156.746 1.95558 101.064 1.95558C45.3812 1.95558 0.2 53.1678 0.2 116.396C0.2 179.624 45.3812 230.836 101.064 230.836C156.746 230.836 201.927 179.624 201.927 116.396Z" stroke="white" stroke-opacity="0.5" stroke-width="0.4"/>
<path d="M296.439 112.943C296.439 104.174 290.177 97.1087 282.504 97.1087C274.83 97.1087 268.568 104.174 268.568 112.943C268.568 121.713 274.83 128.778 282.504 128.778C290.177 128.778 296.439 121.713 296.439 112.943Z" stroke="white" stroke-opacity="0.5" stroke-width="0.4"/>
<path d="M302.527 121.019C302.527 115.805 298.806 111.622 294.266 111.622C289.727 111.622 286.006 115.805 286.006 121.019C286.006 126.233 289.727 130.416 294.266 130.416C298.806 130.416 302.527 126.233 302.527 121.019Z" stroke="white" stroke-opacity="0.5" stroke-width="0.4"/>
<path d="M339.362 129.036C339.362 109.44 325.362 93.5977 308.144 93.5977C290.925 93.5977 276.926 109.44 276.926 129.036C276.926 148.633 290.925 164.475 308.144 164.475C325.362 164.475 339.362 148.633 339.362 129.036Z" stroke="white" stroke-opacity="0.5" stroke-width="0.4"/>
<path d="M250.215 129.036C250.215 109.44 236.215 93.5977 218.997 93.5977C201.779 93.5977 187.779 109.44 187.779 129.036C187.779 148.633 201.779 164.475 218.997 164.475C236.215 164.475 250.215 148.633 250.215 129.036Z" stroke="white" stroke-opacity="0.5" stroke-width="0.4"/>
<path d="M203.372 116.396C203.372 106.43 196.255 98.3961 187.528 98.3961C178.8 98.3961 171.683 106.43 171.683 116.396C171.683 126.361 178.8 134.395 187.528 134.395C196.255 134.395 203.372 126.361 203.372 116.396Z" stroke="white" stroke-opacity="0.5" stroke-width="0.4"/>
<path d="M252.382 104.224C252.382 97.8781 247.853 92.7783 242.316 92.7783C236.78 92.7783 232.25 97.8781 232.25 104.224C232.25 110.569 236.78 115.669 242.316 115.669C247.853 115.669 252.382 110.569 252.382 104.224Z" stroke="white" stroke-opacity="0.5" stroke-width="0.4"/>
<path d="M192.848 31.7763C192.848 18.2557 183.19 7.33942 171.329 7.33942C159.467 7.33942 149.809 18.2557 149.809 31.7763C149.809 45.2968 159.467 56.2131 171.329 56.2131C183.19 56.2131 192.848 45.2968 192.848 31.7763Z" stroke="white" stroke-opacity="0.5" stroke-width="0.4"/>
<path d="M167.259 70.8091C167.259 47.4311 150.557 28.5237 130.005 28.5237C109.453 28.5237 92.7513 47.4311 92.7513 70.8091C92.7513 94.1871 109.453 113.094 130.005 113.094C150.557 113.094 167.259 94.1871 167.259 70.8091Z" stroke="white" stroke-opacity="0.5" stroke-width="0.4"/>
<path d="M206.158 211.139C206.158 179.746 183.728 154.341 156.11 154.341C128.492 154.341 106.062 179.746 106.062 211.139C106.062 242.533 128.492 267.938 156.11 267.938C183.728 267.938 206.158 242.533 206.158 211.139Z" stroke="white" stroke-opacity="0.5" stroke-width="0.4"/>
<path d="M157.251 18.3168C157.251 15.4617 155.216 13.1915 152.756 13.1915C150.297 13.1915 148.262 15.4617 148.262 18.3168C148.262 21.1718 150.297 23.4421 152.756 23.4421C155.216 23.4421 157.251 21.1718 157.251 18.3168Z" stroke="white" stroke-opacity="0.5" stroke-width="0.4"/>
<path d="M176.855 13.8691C176.855 6.29537 171.447 0.199902 164.828 0.199902C158.209 0.199902 152.802 6.29537 152.802 13.8691C152.802 21.4428 158.209 27.5383 164.828 27.5383C171.447 27.5383 176.855 21.4428 176.855 13.8691Z" stroke="white" stroke-opacity="0.5" stroke-width="0.4"/>
<path d="M382.8 142.73C382.8 96.1139 349.491 58.3686 308.453 58.3686C267.416 58.3686 234.107 96.1139 234.107 142.73C234.107 189.345 267.416 227.091 308.453 227.091C349.491 227.091 382.8 189.345 382.8 142.73Z" stroke="white" stroke-opacity="0.5" stroke-width="0.4"/>
<path d="M312.535 221.614C312.535 193.873 292.715 171.429 268.316 171.429C243.918 171.429 224.098 193.873 224.098 221.614C224.098 249.356 243.918 271.8 268.316 271.8C292.715 271.8 312.535 249.356 312.535 221.614Z" stroke="white" stroke-opacity="0.5" stroke-width="0.4"/>
</svg>
