<svg width="262" height="296" viewBox="0 0 262 296" fill="none" xmlns="http://www.w3.org/2000/svg">
<g opacity="0.5">
<path d="M255.298 97.3834C250.608 94.2637 244.505 93.1275 239.589 92.8965C234.56 92.6654 230.096 93.1083 225.887 93.7246C217.552 95.0533 210.065 97.133 202.917 99.4439C194.696 102.178 186.983 105.336 179.496 108.668C178.959 105.24 178.394 101.832 177.716 98.4039C175.427 86.8497 172.517 75.3149 167.969 63.7414C165.624 57.9643 163.081 52.1487 159.154 46.2561C157.148 43.2905 154.916 40.3057 151.497 37.1475C149.717 35.5685 147.655 33.9316 144.547 32.314C141.524 30.7349 136.721 29.0981 130.986 29.0789C125.251 29.0789 120.448 30.7349 117.425 32.314C114.317 33.9316 112.254 35.5685 110.474 37.1475C107.056 40.2864 104.824 43.2905 102.79 46.2561C98.8626 52.1487 96.2916 57.9451 93.9466 63.7414C89.3697 75.2956 86.4879 86.8497 84.1712 98.4039C83.4931 101.812 82.9281 105.202 82.3913 108.61C74.9326 105.279 67.2478 102.14 59.0546 99.4246C51.8784 97.1138 44.4197 95.034 36.0852 93.7053C31.8755 93.0891 27.3834 92.6462 22.3826 92.8772C17.4949 93.1083 11.3641 94.2252 6.67416 97.3641C2.09723 100.561 0.430317 104.72 0.0912848 108.071C-0.247747 111.499 0.402086 114.541 1.30617 117.411C3.2556 123.091 6.30685 128.194 9.69717 133.066C16.6756 142.753 25.2927 151.515 34.3618 159.949C43.5721 168.345 53.4323 176.337 63.801 183.982C55.2687 191.338 47.132 198.906 39.4755 206.686C30.9997 215.217 23.2867 224.114 16.9581 233.453C13.8221 238.133 11.0816 242.947 9.47119 247.992C8.70837 250.515 8.28454 253.095 8.59532 255.657C8.9061 258.198 10.121 260.798 12.805 262.647C10.1775 260.779 8.99087 258.179 8.73659 255.657C8.48232 253.095 8.9909 250.534 9.78197 248.05C11.5054 243.062 14.3306 238.287 17.5515 233.665C24.1343 224.441 32.5818 215.91 41.4532 207.649C49.5334 200.293 58.1788 193.245 67.1914 186.447C71.6553 189.682 76.204 192.879 80.8374 195.998C81.1199 198.155 81.4024 200.312 81.7415 202.469C83.6061 213.946 85.7816 225.404 89.0872 236.688C89.7935 239.172 90.5563 241.657 91.3474 244.141C79.9051 249.802 68.0672 255.156 55.3252 259.392C48.5446 261.588 41.5379 263.513 34.2205 264.688C30.5477 265.227 26.7901 265.574 23.0607 265.401C19.3596 265.227 15.5455 264.438 12.805 262.628C15.5172 264.457 19.3031 265.304 23.0607 265.497C26.8183 265.709 30.6324 265.401 34.3053 264.9C41.6792 263.802 48.7706 261.934 55.636 259.797C68.265 255.811 80.3006 251.016 91.9124 245.797C94.5682 254 97.676 262.146 101.744 270.061C104.513 275.472 107.734 280.806 112.085 285.736C114.26 288.182 116.69 290.55 119.77 292.514C122.793 294.459 126.72 296.019 130.986 296C126.72 296 122.877 294.402 119.883 292.457C116.86 290.473 114.458 288.105 112.339 285.64C108.214 280.652 105.304 275.279 102.818 269.83C99.2016 261.511 96.7437 252.999 95.0202 244.43C107.395 238.787 119.374 232.741 131.042 226.405C142.682 232.741 154.662 238.787 167.036 244.43C165.313 252.999 162.827 261.53 159.21 269.83C156.724 275.26 153.814 280.652 149.661 285.64C147.542 288.105 145.14 290.473 142.117 292.457C139.123 294.421 135.28 296 131.014 296C135.28 296 139.179 294.459 142.23 292.514C145.31 290.55 147.768 288.182 149.915 285.736C154.266 280.825 157.487 275.472 160.256 270.061C164.324 262.127 167.432 254 170.088 245.778C181.699 251.016 193.763 255.811 206.364 259.797C213.229 261.934 220.292 263.802 227.695 264.9C231.396 265.42 235.182 265.709 238.939 265.497C242.669 265.285 246.483 264.457 249.195 262.628C246.455 264.418 242.64 265.227 238.939 265.401C235.182 265.574 231.424 265.227 227.779 264.688C220.462 263.513 213.455 261.588 206.675 259.392C193.933 255.156 182.067 249.802 170.624 244.122C171.415 241.637 172.15 239.173 172.856 236.669C176.162 225.365 178.337 213.927 180.174 202.449C180.513 200.331 180.795 198.213 181.078 196.075C185.74 192.937 190.316 189.721 194.809 186.466C203.821 193.245 212.466 200.273 220.518 207.63C229.39 215.872 237.809 224.422 244.42 233.627C247.641 238.248 250.466 243.024 252.19 248.011C252.981 250.515 253.489 253.076 253.235 255.618C252.981 258.16 251.822 260.74 249.167 262.608C251.851 260.76 253.094 258.179 253.376 255.618C253.687 253.057 253.235 250.457 252.501 247.954C250.89 242.928 248.15 238.094 245.014 233.415C238.685 224.075 230.972 215.178 222.496 206.647C214.868 198.868 206.731 191.319 198.227 183.963C208.568 176.318 218.428 168.345 227.638 159.949C236.707 151.495 245.381 142.753 252.303 133.047C255.693 128.156 258.744 123.072 260.694 117.391C261.598 114.522 262.248 111.46 261.909 108.052C261.57 104.72 259.931 100.541 255.326 97.3448L255.298 97.3834ZM100.162 129.427C107.508 132.97 114.712 136.648 121.804 140.442C112.932 146.219 104.344 152.169 96.0373 158.293C95.6983 158.563 95.3592 158.813 94.992 159.083C96.3763 149.165 98.0998 139.267 100.162 129.427ZM93.7488 168.153C93.7488 168.057 93.7771 167.941 93.8054 167.845C96.5741 166.034 99.3711 164.244 102.168 162.472C111.548 156.599 121.154 150.918 130.958 145.449C140.79 150.937 150.424 156.618 159.804 162.491C162.657 164.282 165.482 166.112 168.279 167.941C168.279 168.018 168.279 168.095 168.308 168.153C169.24 176.645 169.975 185.157 170.37 193.707C166.895 196.403 163.363 199.099 159.804 201.756C150.537 208.573 140.931 215.198 130.986 221.572C121.041 215.198 111.435 208.592 102.168 201.776C98.6366 199.137 95.1332 196.48 91.6864 193.803C92.0819 185.234 92.8165 176.703 93.7488 168.172V168.153ZM165.963 158.274C157.628 152.15 149.039 146.18 140.168 140.403C147.288 136.591 154.52 132.893 161.894 129.35C163.957 139.229 165.68 149.146 167.065 159.083C166.697 158.813 166.33 158.544 165.991 158.255L165.963 158.274ZM132.935 46.5834C132.992 46.5642 133.02 46.5449 132.935 46.5834V46.5834ZM129.036 46.5834C128.923 46.5257 128.952 46.5449 129.036 46.5834V46.5834ZM107.084 100.946C110.192 89.9116 113.78 78.9544 118.329 68.4786C120.617 63.26 123.273 58.1569 126.296 53.6315C127.765 51.4747 129.432 49.4527 131.014 48.0277C132.596 49.4527 134.235 51.4747 135.732 53.6315C138.755 58.1569 141.439 63.26 143.728 68.4786C148.276 78.9544 151.865 89.9116 155.001 100.946C156.639 106.723 158.137 112.539 159.521 118.374C149.661 123.534 140.196 128.965 131.071 134.607C121.945 128.946 112.48 123.515 102.62 118.374C104.005 112.539 105.502 106.723 107.112 100.946H107.084ZM46.5952 154.134C38.3454 145.795 30.8302 137.11 24.8406 128.252C21.8741 123.842 19.3596 119.317 17.9752 114.984C17.3254 112.847 17.0429 110.748 17.2689 109.034C17.4949 107.301 18.2295 106.261 18.9641 105.76C19.7269 105.279 21.2243 104.759 23.767 104.605C26.2533 104.451 29.3328 104.663 32.4971 105.086C38.8539 106.03 45.4933 107.744 51.9632 109.766C61.7668 112.866 71.4293 116.525 80.8374 120.569C80.3571 124.748 79.9333 128.946 79.6225 133.124C78.6619 144.698 78.3794 156.271 78.6902 167.845C78.6902 169.077 78.7749 170.329 78.8314 171.561C76.4017 173.506 74.0002 175.451 71.5988 177.435C62.7839 169.867 54.3929 162.106 46.5952 154.134ZM75.2716 180.554C76.543 179.649 77.8144 178.725 79.114 177.82C79.2552 179.938 79.3965 182.037 79.566 184.136C78.1251 182.942 76.7125 181.748 75.2716 180.554ZM94.6529 242.523C94.2574 240.443 93.8619 238.364 93.5511 236.265C92.0254 225.173 91.2061 214.061 91.4039 202.95C92.9578 203.952 94.4834 204.953 96.0373 205.935C106.067 212.213 116.351 218.298 126.889 224.152C116.577 230.603 105.841 236.765 94.6529 242.523ZM168.449 236.265C168.138 238.364 167.743 240.443 167.347 242.543C156.131 236.785 145.395 230.622 135.082 224.171C145.649 218.317 155.933 212.232 165.963 205.954C167.517 204.972 169.07 203.952 170.624 202.95C170.794 214.061 169.975 225.173 168.449 236.265ZM182.349 184.136C182.519 182.018 182.688 179.919 182.801 177.801C184.101 178.706 185.372 179.63 186.644 180.535C185.203 181.729 183.79 182.942 182.349 184.136ZM243.968 114.984C242.584 119.317 240.069 123.842 237.103 128.252C231.085 137.091 223.598 145.795 215.348 154.114C207.522 162.068 199.16 169.828 190.345 177.396C187.943 175.413 185.513 173.429 183.055 171.484C183.084 170.271 183.169 169.077 183.197 167.864C183.479 156.29 183.225 144.717 182.264 133.144C181.925 128.965 181.502 124.767 181.05 120.588C190.486 116.544 200.177 112.847 210.009 109.766C216.478 107.744 223.118 106.03 229.475 105.086C232.611 104.643 235.69 104.451 238.205 104.605C240.747 104.759 242.273 105.259 243.008 105.76C243.714 106.28 244.477 107.301 244.703 109.034C244.929 110.728 244.618 112.827 243.996 114.984H243.968Z" fill="white" fill-opacity="0.5"/>
<path d="M130.986 195.537C141.863 195.537 150.678 189.529 150.678 182.115C150.678 174.701 141.863 168.693 130.986 168.693C120.109 168.693 111.294 174.701 111.294 182.115C111.294 189.529 120.109 195.537 130.986 195.537Z" fill="white" fill-opacity="0.5"/>
<path d="M130.986 113.791C137.456 113.791 142.683 110.228 142.683 105.819C142.683 101.409 137.456 97.8462 130.986 97.8462C124.516 97.8462 119.29 101.409 119.29 105.819C119.29 110.228 124.516 113.791 130.986 113.791Z" fill="white" fill-opacity="0.5"/>
<path d="M130.986 11.2846C135.563 11.2846 139.264 8.76191 139.264 5.64228C139.264 2.52265 135.563 0 130.986 0C126.409 0 122.708 2.52265 122.708 5.64228C122.708 8.76191 126.409 11.2846 130.986 11.2846Z" fill="white" fill-opacity="0.5"/>
<path d="M130.986 250.399C126.409 250.399 122.708 252.922 122.708 256.041C122.708 259.161 126.409 261.684 130.986 261.684C135.563 261.684 139.264 259.161 139.264 256.041C139.264 252.922 135.563 250.399 130.986 250.399Z" fill="white" fill-opacity="0.5"/>
</g>
</svg>
