<svg width="661" height="785" viewBox="0 0 661 785" fill="none" xmlns="http://www.w3.org/2000/svg">
<g opacity="0.5">
<path d="M644.09 258.263C632.258 249.99 616.862 246.976 604.459 246.364C591.772 245.751 580.51 246.925 569.889 248.56C548.862 252.084 529.973 257.599 511.94 263.728C491.198 270.98 471.739 279.355 452.85 288.19C451.495 279.1 450.07 270.06 448.359 260.97C442.586 230.327 435.244 199.737 423.768 169.043C417.852 153.722 411.437 138.299 401.529 122.672C396.468 114.807 390.837 106.891 382.213 98.5156C377.722 94.3278 372.519 89.9868 364.678 85.6969C357.051 81.5092 344.934 77.1683 330.464 77.1172C315.995 77.1172 303.877 81.5092 296.251 85.6969C288.41 89.9868 283.207 94.3278 278.716 98.5156C270.091 106.84 264.46 114.807 259.328 122.672C249.421 138.299 242.934 153.671 237.018 169.043C225.471 199.686 218.2 230.327 212.356 260.97C210.645 270.009 209.219 278.998 207.865 288.037C189.047 279.202 169.66 270.877 148.989 263.676C130.884 257.548 112.067 252.032 91.0393 248.509C80.4188 246.874 69.0855 245.7 56.4692 246.313C44.1379 246.925 28.6705 249.887 16.8382 258.212C5.2911 266.69 1.08565 277.721 0.230302 286.607C-0.625041 295.697 1.01442 303.767 3.29534 311.376C8.21357 326.442 15.9116 339.975 24.465 352.896C42.0708 378.584 63.8109 401.821 86.6913 424.19C109.928 446.456 134.804 467.65 160.964 487.925C139.438 507.434 118.909 527.505 99.5928 548.137C78.2092 570.761 58.7501 594.356 42.7837 619.125C34.8717 631.535 27.9578 644.302 23.8949 657.683C21.9703 664.373 20.9011 671.216 21.6851 678.009C22.4692 684.75 25.5342 691.644 32.3057 696.547C25.6768 691.593 22.6831 684.699 22.0416 678.009C21.4 671.216 22.6831 664.424 24.6789 657.836C29.0269 644.609 36.1548 631.943 44.2806 619.687C60.8885 595.224 82.2008 572.6 104.582 550.691C124.968 531.182 146.779 512.49 169.517 494.462C180.779 503.042 192.255 511.52 203.945 519.793C204.657 525.513 205.37 531.233 206.226 536.953C210.93 567.391 216.418 597.777 224.758 627.704C226.54 634.292 228.465 640.881 230.46 647.469C201.593 662.483 171.727 676.681 139.58 687.916C122.473 693.738 104.796 698.845 86.3349 701.961C77.0687 703.39 67.5887 704.31 58.1799 703.85C48.8424 703.39 39.2197 701.297 32.3057 696.496C39.1484 701.348 48.6998 703.595 58.1799 704.105C67.6599 704.667 77.2825 703.85 86.5488 702.522C105.152 699.611 123.043 694.657 140.364 688.989C172.226 678.417 202.59 665.701 231.886 651.861C238.586 673.617 246.427 695.219 256.691 716.209C263.676 730.56 271.802 744.706 282.779 757.78C288.267 764.266 294.397 770.548 302.167 775.757C309.794 780.915 319.701 785.052 330.464 785.001C319.701 785.001 310.007 780.762 302.452 775.604C294.825 770.343 288.766 764.062 283.42 757.525C273.014 744.298 265.672 730.049 259.399 715.596C250.276 693.534 244.075 670.961 239.727 648.235C270.947 633.271 301.169 617.235 330.607 600.433C359.974 617.235 390.196 633.271 421.416 648.235C417.068 670.961 410.795 693.585 401.672 715.596C395.399 729.998 388.057 744.298 377.58 757.525C372.234 764.062 366.175 770.343 358.548 775.604C350.993 780.813 341.299 785.001 330.536 785.001C341.299 785.001 351.135 780.915 358.833 775.757C366.603 770.548 372.804 764.266 378.221 757.78C389.198 744.757 397.324 730.56 404.309 716.209C414.573 695.168 422.414 673.617 429.114 651.81C458.409 665.701 488.845 678.417 520.636 688.989C537.956 694.657 555.776 699.611 574.451 702.522C583.789 703.901 593.34 704.667 602.82 704.105C612.229 703.544 621.852 701.348 628.694 696.496C621.78 701.246 612.158 703.39 602.82 703.85C593.34 704.31 583.86 703.39 574.665 701.961C556.204 698.845 538.527 693.738 521.42 687.916C489.273 676.681 459.336 662.483 430.468 647.418C432.464 640.83 434.317 634.293 436.099 627.654C444.439 597.675 449.927 567.34 454.56 536.902C455.416 531.284 456.129 525.666 456.841 519.998C468.602 511.673 480.149 503.144 491.483 494.514C514.221 512.49 536.032 531.131 556.346 550.64C578.728 572.498 599.969 595.173 616.648 619.584C624.774 631.841 631.902 644.506 636.25 657.734C638.246 664.373 639.529 671.165 638.887 677.906C638.246 684.648 635.323 691.491 628.623 696.445C635.394 691.542 638.531 684.699 639.243 677.906C640.027 671.114 638.887 664.22 637.034 657.581C632.971 644.251 626.057 631.433 618.145 619.023C602.179 594.254 582.719 570.659 561.336 548.035C542.091 527.403 521.562 507.383 500.108 487.875C526.196 467.6 551.072 446.456 574.309 424.19C597.189 401.77 619.071 378.584 636.535 352.845C645.088 339.873 652.786 326.391 657.705 311.325C659.985 303.716 661.625 295.595 660.77 286.556C659.914 277.721 655.78 266.638 644.162 258.161L644.09 258.263ZM252.699 343.244C271.232 352.641 289.408 362.395 307.299 372.456C284.917 387.777 263.249 403.558 242.293 419.798C241.437 420.513 240.582 421.177 239.655 421.892C243.148 395.591 247.496 369.341 252.699 343.244ZM236.519 445.946C236.519 445.69 236.59 445.384 236.662 445.129C243.647 440.328 250.704 435.579 257.76 430.88C281.425 415.304 305.659 400.238 330.393 385.734C355.198 400.289 379.504 415.355 403.169 430.931C410.368 435.681 417.496 440.532 424.552 445.384C424.552 445.588 424.552 445.793 424.623 445.946C426.976 468.468 428.829 491.041 429.827 513.716C421.06 520.866 412.15 528.016 403.169 535.063C379.789 553.142 355.554 570.71 330.464 587.614C305.374 570.71 281.14 553.193 257.76 535.114C248.85 528.118 240.012 521.07 231.316 513.971C232.314 491.245 234.167 468.621 236.519 445.997V445.946ZM418.707 419.747C397.68 403.507 376.011 387.675 353.63 372.354C371.592 362.242 389.839 352.436 408.443 343.039C413.647 369.238 417.995 395.539 421.487 421.892C420.561 421.177 419.634 420.462 418.779 419.696L418.707 419.747ZM335.383 123.54C335.596 123.438 335.525 123.489 335.383 123.54ZM325.546 123.54C325.332 123.438 325.261 123.387 325.546 123.54ZM270.163 267.711C278.003 238.448 287.056 209.389 298.532 181.607C304.305 167.767 311.005 154.233 318.632 142.232C322.339 136.512 326.544 131.149 330.536 127.37C334.527 131.149 338.661 136.512 342.439 142.232C350.066 154.233 356.837 167.767 362.611 181.607C374.087 209.389 383.139 238.448 391.051 267.711C395.185 283.032 398.963 298.455 402.456 313.93C377.58 327.616 353.701 342.018 330.678 356.982C307.655 341.967 283.777 327.565 258.901 313.93C262.393 298.455 266.171 283.032 270.234 267.711H270.163ZM117.555 408.767C96.7416 386.653 77.7814 363.621 62.6704 340.128C55.1861 328.433 48.8424 316.432 45.3497 304.941C43.7103 299.272 42.9975 293.706 43.5677 289.16C44.138 284.564 45.9913 281.806 47.8445 280.478C49.769 279.202 53.5468 277.823 59.9619 277.414C66.2344 277.006 74.0037 277.568 81.9869 278.691C98.0246 281.194 114.775 285.739 131.098 291.101C155.832 299.323 180.209 309.027 203.945 319.751C202.733 330.834 201.664 341.967 200.88 353.049C198.456 383.742 197.744 414.435 198.528 445.129C198.528 448.397 198.741 451.717 198.884 454.985C192.754 460.143 186.695 465.301 180.637 470.562C158.398 450.491 137.228 429.91 117.555 408.767ZM189.903 478.835C193.11 476.435 196.318 473.983 199.597 471.583C199.953 477.201 200.31 482.767 200.737 488.334C197.102 485.168 193.538 482.001 189.903 478.835ZM238.8 643.179C237.802 637.663 236.804 632.148 236.02 626.581C232.171 597.165 230.104 567.697 230.603 538.23C234.523 540.885 238.372 543.541 242.293 546.145C267.597 562.794 293.542 578.933 320.129 594.458C294.112 611.566 267.026 627.909 238.8 643.179ZM424.98 626.581C424.196 632.148 423.198 637.663 422.2 643.23C393.902 627.96 366.816 611.617 340.8 594.509C367.458 578.983 393.403 562.845 418.707 546.197C422.628 543.592 426.548 540.885 430.468 538.23C430.896 567.697 428.829 597.165 424.98 626.581ZM460.049 488.334C460.477 482.716 460.904 477.15 461.189 471.532C464.468 473.932 467.676 476.384 470.883 478.784C467.248 481.95 463.684 485.168 460.049 488.334ZM615.508 304.941C612.015 316.432 605.671 328.433 598.187 340.128C583.005 363.57 564.116 386.653 543.302 408.716C523.558 429.808 502.46 450.389 480.221 470.459C474.162 465.199 468.032 459.939 461.831 454.781C461.902 451.563 462.116 448.397 462.187 445.18C462.9 414.486 462.259 383.793 459.835 353.1C458.98 342.018 457.911 330.885 456.77 319.802C480.577 309.078 505.026 299.272 529.831 291.101C546.154 285.739 562.904 281.194 578.942 278.691C586.854 277.516 594.623 277.006 600.967 277.414C607.382 277.823 611.231 279.151 613.084 280.478C614.866 281.857 616.791 284.564 617.361 289.16C617.931 293.655 617.147 299.221 615.579 304.941H615.508Z" fill="white" fill-opacity="0.6"/>
<path d="M330.466 518.569C357.908 518.569 380.147 502.635 380.147 482.973C380.147 463.311 357.908 447.377 330.466 447.377C303.024 447.377 280.785 463.311 280.785 482.973C280.785 502.635 303.024 518.569 330.466 518.569Z" fill="white" fill-opacity="0.6"/>
<path d="M330.465 301.776C346.788 301.776 359.975 292.328 359.975 280.633C359.975 268.938 346.788 259.49 330.465 259.49C314.143 259.49 300.956 268.938 300.956 280.633C300.956 292.328 314.143 301.776 330.465 301.776Z" fill="white" fill-opacity="0.6"/>
<path d="M330.465 29.9272C342.012 29.9272 351.349 23.2369 351.349 14.9635C351.349 6.69015 342.012 0 330.465 0C318.918 0 309.58 6.69015 309.58 14.9635C309.58 23.2369 318.918 29.9272 330.465 29.9272Z" fill="white" fill-opacity="0.6"/>
<path d="M330.465 664.066C318.918 664.066 309.58 670.756 309.58 679.029C309.58 687.303 318.918 693.993 330.465 693.993C342.012 693.993 351.349 687.303 351.349 679.029C351.349 670.756 342.012 664.066 330.465 664.066Z" fill="white" fill-opacity="0.6"/>
</g>
</svg>
