<svg width="300" height="239" viewBox="0 0 300 239" fill="none" xmlns="http://www.w3.org/2000/svg">
<path d="M3.6478 3.33488L3.98518 1.15L-0.000488281 0.235352L2.08319 4.47713L3.6478 3.33488ZM85.9935 4.46779L87.7825 4.03599L87.4282 1.85506L85.6393 2.28686L85.9935 4.46779ZM86.3477 6.6487L86.7018 8.82963L88.4909 8.39783L88.1366 6.2169L86.3477 6.6487ZM85.9799 6.73727L85.6273 4.55597L83.5739 5.04937L84.2557 7.46159L85.9799 6.73727ZM133.023 58.977L132.537 61.1198L134.212 61.6847L134.755 59.6719L133.023 58.977ZM139.044 32.8044L140.824 33.2879L140.867 33.0539L140.868 32.8143L139.044 32.8044ZM162.876 20.1946L161.107 20.7355L161.359 21.964L162.355 22.3254L162.876 20.1946ZM164.221 20.6801L163.705 22.8124L163.71 22.8144L164.221 20.6801ZM164.222 20.6803L164.737 18.5476L164.732 18.546L164.222 20.6803ZM164.227 20.6822L164.743 18.5498L164.741 18.5495L164.227 20.6822ZM176.835 34.6025L176.335 36.7402L179.813 37.952L178.543 33.8218L176.835 34.6025ZM161.132 37.721L160.053 35.9297L158.999 36.8735L159.394 38.3925L161.132 37.721ZM167.024 60.3897L165.285 61.0612L165.786 62.9895L167.409 62.563L167.024 60.3897ZM213.405 6.71622L213.94 4.59067L212.196 3.93883L211.662 6.06439L213.405 6.71622ZM215.149 7.36806L216.892 8.01989L217.427 5.89434L215.684 5.2425L215.149 7.36806ZM167.63 62.5017L167.239 60.3301L165.135 60.8926L165.938 63.3299L167.63 62.5017ZM173.911 81.5794L172.219 82.4074L172.783 84.1231L174.27 83.7591L173.911 81.5794ZM245.112 11.5147L246.827 12.2729L247.662 9.46489L245.215 9.29506L245.112 11.5147ZM213.653 6.09289L211.864 5.66111L211.51 7.84201L213.299 8.27381L213.653 6.09289ZM214.007 3.91197L214.362 1.73105L212.573 1.29925L212.218 3.48018L214.007 3.91197ZM295.729 3.33488L297.294 4.4771L299.378 0.235359L295.392 1.15L295.729 3.33488ZM239.835 47.9387L239.751 45.7178L234.805 45.9966L238.717 49.6957L239.835 47.9387ZM265.921 63.6879L267.011 65.4702L270.115 62.6484L266.354 61.5282L265.921 63.6879ZM203.324 80.88L203.75 78.7181L200.422 77.745L201.614 81.6546L203.324 80.88ZM222.665 110.179L222.972 112.371L227.054 111.52L223.783 108.423L222.665 110.179ZM172.876 87.5688L171.711 85.8587L170.308 87.2795L171.474 88.9896L172.876 87.5688ZM174.279 86.1481L175.682 84.7272L174.516 83.0172L173.114 84.4379L174.279 86.1481ZM218.273 108.818L218.55 111.016L222.671 110.244L219.409 107.079L218.273 108.818ZM200.472 77.7321L200.913 75.5748L197.637 74.5801L198.751 78.4657L200.472 77.7321ZM261.728 64.7126L262.804 66.5074L265.914 63.735L262.184 62.5601L261.728 64.7126ZM234.684 45.9443L234.623 43.7222L229.492 43.9324L233.582 47.7154L234.684 45.9443ZM292.08 6.43061L293.641 7.57887L295.736 3.34639L291.748 4.24435L292.08 6.43061ZM246.723 11.6154L246.806 9.39448L246.111 13.7094L246.723 11.6154ZM246.987 11.7297L248.704 12.4769L249.317 10.383L247.6 9.63576L246.987 11.7297ZM170.772 84.5468L170.466 82.3551L166.603 83.1577L169.594 86.2439L170.772 84.5468ZM171.619 85.4195L173.011 86.8556L174.189 85.1584L172.797 83.7223L171.619 85.4195ZM151.846 127.953L150.183 127.041L150.176 127.059L150.17 127.077L151.846 127.953ZM151.846 127.954L153.507 128.87L153.515 128.85L153.522 128.83L151.846 127.954ZM151.842 127.962L150.181 127.046L150.179 127.05L151.842 127.962ZM149.956 133.051L148.295 132.131L147.784 133.502L148.639 134.589L149.956 133.051ZM182.8 196.487L183.245 198.642L185.013 198.1L184.568 195.944L182.8 196.487ZM181.031 197.029L179.263 197.572L179.708 199.728L181.477 199.186L181.031 197.029ZM149.711 135.954L151.03 134.418L149.665 132.676L148.35 134.475L149.711 135.954ZM120.805 198.296L120.458 200.479L122.249 200.901L122.595 198.718L120.805 198.296ZM119.014 197.874L117.224 197.452L116.877 199.634L118.667 200.056L119.014 197.874ZM149.504 132.903L150.862 134.388L151.749 133.182L151.079 131.782L149.504 132.903ZM143.595 117.912L141.911 118.769L141.914 118.777L143.595 117.912ZM143.594 117.91L145.276 117.053V117.052L143.594 117.91ZM143.593 117.907L145.275 117.05L145.271 117.037L145.267 117.024L143.593 117.907ZM143.592 117.906L141.912 118.771L141.915 118.78L141.919 118.787L143.592 117.906ZM126.947 85.5141L125.614 83.9972L124.369 85.6225L125.702 87.1394L126.947 85.5141ZM127.877 84.2994L129.21 85.8164L131.495 82.8322L128.199 82.1111L127.877 84.2994ZM52.4643 11.9915L54.1883 11.2667L53.75 9.71735L52.4064 9.76934L52.4643 11.9915ZM7.29796 6.43117L7.62999 4.24506L3.64114 3.34471L5.73632 7.57943L7.29796 6.43117ZM64.6929 45.9443L65.7952 47.7154L69.8851 43.9324L64.7541 43.7222L64.6929 45.9443ZM58.1198 52.1212L59.1982 53.9141L59.2233 53.8917L59.2476 53.8683L58.1198 52.1212ZM58.1198 52.1212L57.0411 50.3285L57.0102 50.3562L56.9803 50.3853L58.1198 52.1212ZM58.1198 52.1212L59.2137 53.9001L59.2365 53.8792L59.2588 53.8575L58.1198 52.1212ZM58.1198 52.1212L57.0253 50.343L57.0082 50.3584L56.9915 50.3744L58.1198 52.1212ZM37.6495 64.7126L37.1933 62.5601L33.4627 63.735L36.5731 66.5074L37.6495 64.7126ZM98.9055 77.7321L100.627 78.4657L101.74 74.58L98.4642 75.5748L98.9055 77.7321ZM81.1043 108.818L79.9685 107.079L76.7073 110.244L80.8273 111.016L81.1043 108.818ZM125.099 86.1481L126.264 84.4379L124.861 83.0172L123.695 84.7272L125.099 86.1481ZM126.501 87.5688L127.903 88.9896L129.07 87.2795L127.666 85.8587L126.501 87.5688ZM76.7127 110.179L75.5941 108.423L72.3235 111.52L76.4053 112.371L76.7127 110.179ZM96.0533 80.88L97.763 81.6546L98.9548 77.745L95.6283 78.7181L96.0533 80.88ZM33.4568 63.6879L33.024 61.5282L29.2624 62.6484L32.3666 65.4702L33.4568 63.6879ZM56.8774 50.4823L55.8658 48.6324L55.8058 48.6812L55.7492 48.7354L56.8774 50.4823ZM56.8774 50.4823L57.889 52.3321L57.9489 52.2834L58.0055 52.2291L56.8774 50.4823ZM59.5421 47.9387L60.6597 49.6957L64.5725 45.9966L59.6263 45.7178L59.5421 47.9387ZM165.226 60.8307L165.56 63.0162L167.586 62.5549L166.964 60.1593L165.226 60.8307ZM159.002 36.8859L157.907 35.1081L156.874 36.0547L157.264 37.5574L159.002 36.8859ZM173.834 31.3107L173.441 33.4818L176.922 34.4166L175.508 30.4283L173.834 31.3107ZM163.748 22.8282L163.229 24.9595L163.232 24.9605L163.748 22.8282ZM163.748 22.8282L164.266 20.6967L164.264 20.6957L163.748 22.8282ZM161.224 21.9127L159.409 22.1212L159.524 23.612L160.701 24.0423L161.224 21.9127ZM140.867 33.0498L142.648 33.5319L142.691 33.2937V33.0498H140.867ZM134.789 59.5445L133.056 58.8504L132.444 61.1206L134.347 61.7011L134.789 59.5445ZM134.213 61.6588L134.66 59.5031L133.022 58.9989L132.485 60.9523L134.213 61.6588ZM165.815 62.9555L167.507 62.1273L166.947 60.4285L165.473 60.7717L165.815 62.9555ZM172.087 82.0078L172.418 84.1942L174.61 83.701L173.78 81.1796L172.087 82.0078ZM128.128 82.0986L126.428 81.2939L125.627 83.809L127.805 84.2868L128.128 82.0986ZM132.447 61.0877L134.176 61.795L134.788 59.5734L132.936 58.9457L132.447 61.0877ZM84.2393 7.40351L83.6465 5.30101L81.9218 6.02374L82.5147 8.12624L84.2393 7.40351ZM85.6276 6.82174L86.2205 8.92424L85.2764 4.64008L85.6276 6.82174ZM54.3701 11.902L54.2876 9.68104L51.8335 9.81638L52.65 12.641L54.3701 11.902ZM126.304 81.681L125.954 83.8628L127.45 84.2203L128.004 82.4873L126.304 81.681ZM128.7 84.4761L129.01 82.2852L123.128 81.0486L127.439 86.0818L128.7 84.4761ZM145.284 117.074L143.604 117.939L143.606 117.946L145.284 117.074ZM145.285 117.078L146.992 116.296L146.979 116.251L146.963 116.205L145.285 117.078ZM145.285 117.078L143.577 117.858L143.59 117.898L143.604 117.937L145.285 117.078ZM145.286 117.081L143.605 117.94L143.608 117.953L145.286 117.081ZM145.287 117.084L146.968 116.218L146.965 116.212L145.287 117.084ZM149.604 128.611L147.993 129.657L149.741 133.654L151.266 129.524L149.604 128.611ZM169.691 84.7653L171.098 86.1793L174.172 81.6333L169.401 82.5703L169.691 84.7653ZM150.287 155.889L151.914 154.888L150.274 150.924L148.654 154.9L150.287 155.889ZM121.089 198.527L119.975 196.766L117.778 198.832L120.206 200.472L121.089 198.527ZM151.64 234.489L150.096 235.672L151.755 238.889L153.243 235.551L151.64 234.489ZM181.139 197.244L182.07 199.157L184.838 197.155L182.007 195.289L181.139 197.244ZM150.293 160.771L151.909 159.741L150.293 155.977L148.677 159.741L150.293 160.771ZM124.365 198.232L123.236 196.487L121.126 198.517L123.453 200.156L124.365 198.232ZM151.53 230.15L150.001 231.364L151.635 234.425L153.115 231.249L151.53 230.15ZM177.516 197.322L178.478 199.212L181.064 197.256L178.43 195.398L177.516 197.322ZM2.08319 4.47713L3.12503 6.598L6.25425 4.31353L5.21241 2.19264L2.08319 4.47713ZM5.97801 1.60732L3.98518 1.15L3.31042 5.51977L5.30325 5.97709L5.97801 1.60732ZM46.5476 7.62048C34.7379 7.46168 22.6409 5.43124 5.97801 1.60732L5.30325 5.97709C22.0318 9.81605 34.3764 11.9036 46.5073 12.0667L46.5476 7.62048ZM85.6393 2.28686C69.9562 6.07226 58.3401 7.77904 46.5476 7.62048L46.5073 12.0667C58.644 12.2299 70.5301 10.4666 86.3477 6.6487L85.6393 2.28686ZM88.1366 6.2169L87.7825 4.03599L84.2045 4.89959L84.5587 7.08051L88.1366 6.2169ZM86.3326 8.91856C86.4555 8.88904 86.5786 8.8594 86.7018 8.82963L85.9935 4.46779C85.8711 4.49731 85.7491 4.5267 85.6273 4.55597L86.3326 8.91856ZM84.2557 7.46159C92.1223 35.293 111.19 53.9215 132.537 61.1198L133.509 56.8342C113.144 49.9668 95.1232 32.2601 87.7041 6.01295L84.2557 7.46159ZM137.265 32.3208C136.172 38.2938 134.395 46.7796 131.29 58.2821L134.755 59.6719C137.898 48.0259 139.707 39.3989 140.824 33.2879L137.265 32.3208ZM141.281 18.5969C138.776 22.0206 137.243 26.7484 137.221 32.7944L140.868 32.8143C140.886 27.7199 142.159 24.0767 144.003 21.557L141.281 18.5969ZM150.253 12.5495C147.059 13.31 143.776 15.1882 141.281 18.5969L144.003 21.557C145.871 19.0055 148.383 17.5251 150.952 16.9136L150.253 12.5495ZM159.309 13.2908C156.687 12.0962 153.424 11.7946 150.253 12.5495L150.952 16.9136C153.528 16.3004 156.101 16.5763 158.032 17.456L159.309 13.2908ZM164.645 19.6536C163.961 16.3336 161.561 14.317 159.309 13.2908L158.032 17.456C159.805 18.2638 160.851 19.4891 161.107 20.7355L164.645 19.6536ZM164.737 18.5476C164.306 18.3927 163.861 18.2323 163.396 18.0638L162.355 22.3254C162.824 22.4957 163.274 22.6576 163.705 22.8124L164.737 18.5476ZM164.732 18.546L164.731 18.5457L163.71 22.8144L163.711 22.8146L164.732 18.546ZM164.741 18.5495L164.737 18.5476L163.706 22.8131L163.712 22.8149L164.741 18.5495ZM168.373 19.9049C167.314 19.4746 166.097 19.0371 164.743 18.5498L163.711 22.8146C165.084 23.3084 166.233 23.7226 167.22 24.1232L168.373 19.9049ZM172.52 22.1732C171.289 21.2026 169.897 20.5242 168.373 19.9049L167.22 24.1232C168.647 24.7033 169.695 25.2411 170.538 25.9064L172.52 22.1732ZM177.908 31.7568C176.528 27.2706 175.162 24.2582 172.52 22.1732L170.538 25.9064C172.164 27.1889 173.183 29.0612 174.493 33.318L177.908 31.7568ZM178.543 33.8218L177.908 31.7568L174.493 33.318L175.127 35.3831L178.543 33.8218ZM174.595 36.1344L176.335 36.7402L177.337 32.4648L175.597 31.8589L174.595 36.1344ZM168.257 35.5086C169.918 35.0154 171.733 35.1372 174.595 36.1344L175.597 31.8589C172.422 30.7531 169.912 30.4408 167.394 31.1884L168.257 35.5086ZM162.213 39.5123C164.839 37.1587 166.623 35.9937 168.257 35.5086L167.394 31.1884C165.047 31.8852 162.793 33.4741 160.053 35.9297L162.213 39.5123ZM168.763 59.7182L162.871 37.0496L159.394 38.3925L165.285 61.0612L168.763 59.7182ZM167.409 62.563C188.428 57.0354 207.119 39.2877 215.149 7.36806L211.662 6.06439C204.035 36.3819 186.421 53.0143 166.639 58.2164L167.409 62.563ZM212.871 8.84178L214.614 9.49361L215.684 5.2425L213.94 4.59067L212.871 8.84178ZM213.405 6.71622C205.59 37.7856 187.515 54.9086 167.239 60.3301L168.02 64.6733C189.527 58.923 208.675 40.6885 216.892 8.01989L213.405 6.71622ZM175.603 80.7512L169.323 61.6736L165.938 63.3299L172.219 82.4074L175.603 80.7512ZM243.398 10.7565C232.003 49.044 204.528 71.815 173.552 79.3996L174.27 83.7591C206.185 75.9445 234.9 52.3492 246.827 12.2729L243.398 10.7565ZM213.299 8.27381C225.606 11.2444 235.51 13.075 245.008 13.7344L245.215 9.29506C235.957 8.65226 226.238 6.86409 214.007 3.91197L213.299 8.27381ZM212.218 3.48018L211.864 5.66111L215.442 6.52468L215.796 4.34376L212.218 3.48018ZM253.168 7.34237C241.53 7.36495 230.067 5.52169 214.362 1.73105L213.653 6.09289C229.463 9.90901 241.192 11.8122 253.173 11.7889L253.168 7.34237ZM293.399 1.60732C276.748 5.42853 264.813 7.31977 253.168 7.34237L253.173 11.7889C265.151 11.7656 277.342 9.81695 294.074 5.97709L293.399 1.60732ZM295.392 1.15L293.399 1.60732L294.074 5.97709L296.067 5.51977L295.392 1.15ZM296.253 6.598L297.294 4.4771L294.165 2.19266L293.123 4.31355L296.253 6.598ZM274.74 39.3291C283.271 32.245 288.969 21.4257 296.253 6.598L293.123 4.31355C285.777 19.2682 280.45 29.2067 272.687 35.6542L274.74 39.3291ZM239.919 50.1597C256.087 49.2482 266.554 46.1277 274.74 39.3291L272.687 35.6542C265.329 41.7649 255.671 44.8204 239.751 45.7178L239.919 50.1597ZM243.628 48.7354C242.812 47.9515 241.926 47.1023 240.953 46.1818L238.717 49.6957C239.679 50.6048 240.554 51.4444 241.372 52.2291L243.628 48.7354ZM250.466 54.8014C248.311 53.2258 246.375 51.3718 243.628 48.7354L241.372 52.2291C244.077 54.8254 246.199 56.8669 248.59 58.6145L250.466 54.8014ZM264.473 60.9681C257.223 58.8091 253.577 57.0761 250.466 54.8014L248.59 58.6145C252.155 61.2216 256.206 63.0837 263.607 65.2876L264.473 60.9681ZM266.354 61.5282L264.473 60.9681L263.607 65.2876L265.488 65.8477L266.354 61.5282ZM265.458 66.8812L267.011 65.4702L264.83 61.9057L263.278 63.3167L265.458 66.8812ZM235.558 85.6259C245.445 83.1411 254.413 76.9224 265.458 66.8812L263.278 63.3167C252.374 73.2292 243.922 78.9837 234.821 81.271L235.558 85.6259ZM202.899 83.042C216.026 86.8812 226.065 88.0117 235.558 85.6259L234.821 81.271C226.088 83.4657 216.656 82.4928 203.75 78.7181L202.899 83.042ZM211.341 94.5831C208.913 90.7946 206.947 86.3786 205.034 80.1053L201.614 81.6546C203.623 88.2414 205.754 93.0873 208.467 97.3204L211.341 94.5831ZM222.148 106.875C217.37 102.351 214.025 98.7728 211.341 94.5831L208.467 97.3204C211.437 101.958 215.076 105.81 219.91 110.387L222.148 106.875ZM223.783 108.423L222.148 106.875L219.91 110.387L221.546 111.935L223.783 108.423ZM220.931 112.796L222.972 112.371L222.358 107.988L220.316 108.413L220.931 112.796ZM194.235 111.6C202.086 115.219 210.444 114.982 220.931 112.796L220.316 108.413C210.054 110.552 202.469 110.642 195.526 107.441L194.235 111.6ZM171.474 88.9896C179.475 100.73 186.407 107.991 194.235 111.6L195.526 107.441C188.575 104.236 182.133 97.6725 174.279 86.1481L171.474 88.9896ZM173.114 84.4379L171.711 85.8587L174.041 89.2789L175.445 87.8581L173.114 84.4379ZM196.171 105.361C189.658 102.359 183.463 96.1442 175.682 84.7272L172.876 87.5688C180.804 99.201 187.49 106.114 194.881 109.52L196.171 105.361ZM217.996 106.621C208.89 108.327 202.221 108.151 196.171 105.361L194.881 109.52C201.78 112.701 209.174 112.772 218.55 111.016L217.996 106.621ZM207.029 98.6889C209.784 102.989 213.059 106.599 217.137 110.558L219.409 107.079C215.42 103.208 212.401 99.8498 209.904 95.9517L207.029 98.6889ZM199.308 80.4085C201.534 88.1727 203.893 93.7947 207.029 98.6889L209.904 95.9517C207.082 91.5488 204.889 86.3986 202.751 78.9414L199.308 80.4085ZM198.751 78.4657L199.308 80.4085L202.751 78.9414L202.194 76.9986L198.751 78.4657ZM202.551 76.0722L200.913 75.5748L200.032 79.8895L201.67 80.3868L202.551 76.0722ZM234.453 79.0936C225.748 81.2812 216.206 80.2175 202.551 76.0722L201.67 80.3868C215.523 84.5929 225.694 85.8347 235.189 83.4485L234.453 79.0936ZM260.652 62.9179C250.569 71.9047 242.742 77.0103 234.453 79.0936L235.189 83.4485C244.23 81.1763 252.558 75.6405 262.804 66.5074L260.652 62.9179ZM247.652 60.5211C251.11 63.0499 254.949 64.8741 261.272 66.8652L262.184 62.5601C256.043 60.6257 252.572 58.934 249.527 56.7079L247.652 60.5211ZM240.13 53.8684C242.902 56.5281 245.161 58.7001 247.652 60.5211L249.527 56.7079C247.272 55.0589 245.201 53.0749 242.386 50.3743L240.13 53.8684ZM235.627 49.6068C237.327 51.1787 238.794 52.5866 240.13 53.8684L242.386 50.3743C241.051 49.0934 239.56 47.6631 237.832 46.0645L235.627 49.6068ZM233.582 47.7154L235.627 49.6068L237.832 46.0645L235.787 44.1731L233.582 47.7154ZM237.189 43.6172L234.623 43.7222L234.745 48.1662L237.311 48.0611L237.189 43.6172ZM271.66 33.8168C264.355 39.8831 254.503 42.9078 237.189 43.6172L237.311 48.0611C254.838 47.3431 265.541 44.2784 273.713 37.4917L271.66 33.8168ZM290.518 5.28234C283.683 19.0984 278.679 27.9871 271.66 33.8168L273.713 37.4917C281.476 31.0448 286.839 21.3293 293.641 7.57887L290.518 5.28234ZM253.176 14.0122C264.833 13.9895 276.649 12.1668 292.411 8.61686L291.748 4.24435C276.077 7.77396 264.507 9.54363 253.17 9.56562L253.176 14.0122ZM246.641 13.8364C248.828 13.9577 250.997 14.0164 253.176 14.0122L253.17 9.56562C251.049 9.56974 248.937 9.51268 246.806 9.39448L246.641 13.8364ZM247.6 9.63576L247.337 9.5215L246.111 13.7094L246.373 13.8237L247.6 9.63576ZM171.079 86.7384C205.026 79.6867 236.171 55.2934 248.704 12.4769L245.269 10.9825C233.285 51.9245 203.455 75.5024 170.466 82.3551L171.079 86.7384ZM172.797 83.7223L171.951 82.8495L169.594 86.2439L170.441 87.1167L172.797 83.7223ZM153.509 128.864C158.001 116.684 164.485 99.1392 173.011 86.8556L170.226 83.9834C161.308 96.8319 154.628 114.987 150.183 127.041L153.509 128.864ZM153.522 128.83L150.17 127.077L150.169 127.078L153.522 128.83ZM153.505 128.879L153.507 128.87L150.184 127.038L150.181 127.046L153.505 128.879ZM152.179 132.462C152.599 131.333 153.042 130.132 153.506 128.873L150.179 127.05C149.715 128.311 149.275 129.504 148.858 130.622L152.179 132.462ZM151.615 133.971L152.179 132.462L148.858 130.622L148.295 132.131L151.615 133.971ZM151.663 132.009L151.272 131.512L148.639 134.589L149.03 135.087L151.663 132.009ZM184.568 195.944C179.006 169.013 167.269 151.852 151.663 132.009L149.03 135.087C164.544 154.812 175.712 171.273 181.031 197.029L184.568 195.944ZM181.477 199.186L183.245 198.642L182.354 194.33L180.586 194.874L181.477 199.186ZM148.393 137.489C163.499 156.766 174.142 172.774 179.263 197.572L182.8 196.487C177.439 170.529 166.242 153.829 151.03 134.418L148.393 137.489ZM122.595 198.718C126.086 176.712 135.225 159.108 151.073 137.434L148.35 134.475C132.317 156.403 122.687 174.727 119.014 197.874L122.595 198.718ZM118.667 200.056L120.458 200.479L121.151 196.113L119.36 195.691L118.667 200.056ZM147.652 132.09C131.134 154.54 121.038 173.411 117.224 197.452L120.805 198.296C124.436 175.412 134.028 157.266 150.367 135.059L147.652 132.09ZM148.147 131.419L147.652 132.09L150.367 135.059L150.862 134.388L148.147 131.419ZM147.325 132.762L147.929 134.023L151.079 131.782L150.475 130.521L147.325 132.762ZM142.971 121.811C144.305 125.606 145.687 129.338 147.325 132.762L150.475 130.521C148.957 127.348 147.649 123.829 146.324 120.059L142.971 121.811ZM141.914 118.777C142.267 119.793 142.618 120.807 142.971 121.811L146.324 120.059C145.975 119.068 145.627 118.064 145.274 117.047L141.914 118.777ZM141.911 118.769L145.277 117.054L145.276 117.053L141.911 118.769ZM141.91 118.765L141.911 118.769L145.276 117.052L145.275 117.05L141.91 118.765ZM141.919 118.787V118.79L145.267 117.024L145.266 117.023L141.919 118.787ZM138.804 110.111C139.923 113.031 140.922 115.915 141.912 118.771L145.272 117.04C144.285 114.194 143.26 111.237 142.109 108.23L138.804 110.111ZM125.702 87.1394C131.984 94.2866 135.785 102.226 138.804 110.111L142.109 108.23C138.986 100.072 134.945 91.5734 128.192 83.8888L125.702 87.1394ZM126.544 82.7824L125.614 83.9972L128.28 87.0311L129.21 85.8164L126.544 82.7824ZM50.7401 12.7164C62.5149 54.3392 93.511 79.0394 127.555 86.4877L128.199 82.1111C95.0758 74.864 65.4194 50.9681 54.1883 11.2667L50.7401 12.7164ZM46.4873 14.2899C48.4994 14.3169 50.505 14.2916 52.5221 14.2136L52.4064 9.76934C50.4412 9.84539 48.4877 9.86996 46.5275 9.8436L46.4873 14.2899ZM6.96593 8.61726C22.7286 12.1752 34.6886 14.1312 46.4873 14.2899L46.5275 9.8436C35.0387 9.68912 23.3175 7.78605 7.62999 4.24506L6.96593 8.61726ZM27.7174 33.8168C20.6978 27.9872 15.6951 19.0987 8.85959 5.2829L5.73632 7.57943C12.5393 21.3296 17.9011 31.0449 25.6638 37.4917L27.7174 33.8168ZM62.1886 43.6172C44.8745 42.9078 35.022 39.8831 27.7174 33.8168L25.6638 37.4917C33.8358 44.2784 44.5395 47.3431 62.0662 48.0611L62.1886 43.6172ZM64.7541 43.7222L62.1886 43.6172L62.0662 48.0611L64.6317 48.1662L64.7541 43.7222ZM63.7503 49.6068L65.7952 47.7154L63.5906 44.1731L61.5456 46.0645L63.7503 49.6068ZM59.2476 53.8683C60.5837 52.5865 62.051 51.1786 63.7503 49.6068L61.5456 46.0645C59.8175 47.6629 58.3266 49.0935 56.9915 50.3744L59.2476 53.8683ZM51.7259 60.5211C54.2163 58.7001 56.4756 56.528 59.2476 53.8683L56.9915 50.3744C54.1771 53.0749 52.1049 55.0589 49.8497 56.7079L51.7259 60.5211ZM38.1057 66.8652C44.4277 64.8741 48.2675 63.0499 51.7259 60.5211L49.8497 56.7079C46.8053 58.934 43.3348 60.6257 37.1933 62.5601L38.1057 66.8652ZM64.9245 79.0936C56.6354 77.0103 48.8085 71.9047 38.7258 62.9179L36.5731 66.5074C46.8201 75.6405 55.1472 81.1763 64.1881 83.4485L64.9245 79.0936ZM96.8265 76.0722C83.1723 80.2175 73.6295 81.2812 64.9245 79.0936L64.1881 83.4485C73.6832 85.8347 83.8538 84.5929 97.7074 80.3868L96.8265 76.0722ZM98.4642 75.5748L96.8265 76.0722L97.7074 80.3868L99.346 79.8895L98.4642 75.5748ZM100.07 80.4086L100.627 78.4657L97.184 76.9986L96.6268 78.9414L100.07 80.4086ZM92.3484 98.6889C95.4843 93.7947 97.8432 88.1729 100.07 80.4086L96.6268 78.9414C94.4885 86.3986 92.2955 91.5488 89.4741 95.9517L92.3484 98.6889ZM82.2402 110.558C86.3189 106.599 89.5935 102.989 92.3484 98.6889L89.4741 95.9517C86.9764 99.8498 83.957 103.208 79.9685 107.079L82.2402 110.558ZM103.207 105.361C97.1566 108.151 90.4874 108.327 81.3814 106.621L80.8273 111.016C90.2028 112.772 97.597 112.701 104.497 109.52L103.207 105.361ZM123.695 84.7272C115.914 96.1442 109.719 102.359 103.207 105.361L104.497 109.52C111.887 106.114 118.573 99.201 126.501 87.5688L123.695 84.7272ZM127.666 85.8587L126.264 84.4379L123.933 87.8581L125.336 89.2789L127.666 85.8587ZM105.142 111.6C112.97 107.991 119.903 100.73 127.903 88.9896L125.099 86.1481C117.244 97.6725 110.803 104.236 103.851 107.441L105.142 111.6ZM78.4463 112.796C88.9333 114.982 97.2907 115.219 105.142 111.6L103.851 107.441C96.9077 110.642 89.3234 110.552 79.061 108.413L78.4463 112.796ZM76.4053 112.371L78.4463 112.796L79.061 108.413L77.02 107.988L76.4053 112.371ZM77.2293 106.875L75.5941 108.423L77.8313 111.935L79.4666 110.387L77.2293 106.875ZM88.0368 94.5831C85.3523 98.7728 82.0072 102.351 77.2293 106.875L79.4666 110.387C84.3013 105.81 87.9396 101.958 90.9112 97.3204L88.0368 94.5831ZM94.3444 80.1053C92.4314 86.3786 90.4643 90.7946 88.0368 94.5831L90.9112 97.3204C93.6232 93.0873 95.7542 88.2414 97.763 81.6546L94.3444 80.1053ZM63.8199 85.6259C73.3132 88.0117 83.3519 86.8812 96.4791 83.042L95.6283 78.7181C82.7215 82.4928 73.2892 83.4657 64.5563 81.271L63.8199 85.6259ZM33.9186 66.8812C44.9641 76.9224 53.9326 83.1411 63.8199 85.6259L64.5563 81.271C55.4552 78.9837 47.0029 73.2292 36.099 63.3167L33.9186 66.8812ZM32.3666 65.4702L33.9186 66.8812L36.099 63.3167L34.547 61.9057L32.3666 65.4702ZM34.9048 60.9681L33.024 61.5282L33.8894 65.8477L35.7702 65.2876L34.9048 60.9681ZM48.9116 54.8014C45.8007 57.0761 42.155 58.8091 34.9048 60.9681L35.7702 65.2876C43.1716 63.0837 47.2224 61.2216 50.7877 58.6145L48.9116 54.8014ZM55.7492 48.7354C53.0024 51.3718 51.0663 53.2258 48.9116 54.8014L50.7877 58.6145C53.1778 56.8669 55.3004 54.8253 58.0055 52.2291L55.7492 48.7354ZM58.4245 46.1818C57.4507 47.1023 56.566 47.9515 55.7492 48.7354L58.0055 52.2291C58.8231 51.4444 59.6979 50.6048 60.6597 49.6957L58.4245 46.1818ZM24.637 39.3291C32.8234 46.1277 43.2897 49.2482 59.4578 50.1597L59.6263 45.7178C43.7066 44.8204 34.0485 41.7649 26.6905 35.6542L24.637 39.3291ZM3.12503 6.598C10.4087 21.4257 16.107 32.245 24.637 39.3291L26.6905 35.6542C18.9268 29.2067 13.6003 19.2682 6.25425 4.31353L3.12503 6.598ZM157.459 38.3087L163.487 61.5023L166.964 60.1593L160.936 36.9657L157.459 38.3087ZM157.264 37.5574L157.459 38.3087L160.936 36.9657L160.741 36.2144L157.264 37.5574ZM158.424 34.6349L157.907 35.1081L160.097 38.6636L160.614 38.1903L158.424 34.6349ZM166.962 29.0283C164.096 29.8792 161.457 31.8585 158.424 34.6349L160.614 38.1903C163.56 35.4943 165.709 33.9769 167.825 33.3485L166.962 29.0283ZM174.226 29.1394C171.658 28.4499 169.337 28.3233 166.962 29.0283L167.825 33.3485C169.518 32.8461 171.254 32.8944 173.441 33.4818L174.226 29.1394ZM169.547 27.7729C170.475 28.5053 171.216 29.5321 172.159 32.193L175.508 30.4283C174.407 27.3275 173.288 25.4278 171.528 24.0397L169.547 27.7729ZM166.643 26.2324C168.022 26.793 168.898 27.2607 169.547 27.7729L171.528 24.0397C170.492 23.2218 169.272 22.6136 167.796 22.0141L166.643 26.2324ZM163.232 24.9605C164.585 25.4476 165.688 25.8445 166.643 26.2324L167.796 22.0141C166.768 21.5966 165.599 21.1763 164.265 20.6958L163.232 24.9605ZM161.289 24.2574C161.984 24.5116 162.63 24.7443 163.231 24.9604L164.264 20.6957C163.663 20.4793 163.023 20.2493 162.337 19.9984L161.289 24.2574ZM160.701 24.0423L161.289 24.2574L162.337 19.9984L161.749 19.7833L160.701 24.0423ZM159.351 21.3757L159.409 22.1212L163.04 21.7043L162.982 20.959L159.351 21.3757ZM157.393 19.5385C159.106 20.3191 159.339 21.2114 159.351 21.3757L162.982 20.959C162.775 18.2783 160.91 16.394 158.67 15.3734L157.393 19.5385ZM151.302 19.0957C153.58 18.5532 155.808 18.8162 157.393 19.5385L158.67 15.3734C156.394 14.3362 153.476 14.0474 150.602 14.7316L151.302 19.0957ZM145.364 23.037C146.917 20.9137 149.047 19.6326 151.302 19.0957L150.602 14.7316C147.721 15.4176 144.823 17.0971 142.643 20.0769L145.364 23.037ZM142.691 32.9278C142.691 28.2515 143.84 25.1197 145.364 23.037L142.643 20.0769C140.451 23.0704 139.044 27.2957 139.044 32.9278H142.691ZM142.691 33.0498V32.9278H139.044V33.0498H142.691ZM142.626 33.6512L142.648 33.5319L139.087 32.5677L139.065 32.6868L142.626 33.6512ZM136.521 60.2386C139.683 48.513 141.502 39.8195 142.626 33.6512L139.065 32.6868C137.967 38.717 136.179 47.2686 133.056 58.8504L136.521 60.2386ZM134.347 61.7011C139.259 63.2008 144.284 64.1016 149.317 64.3748L149.48 59.9326C144.693 59.6729 139.911 58.816 135.232 57.3878L134.347 61.7011ZM149.317 64.3748C154.768 64.6707 160.227 64.2306 165.56 63.0162L164.89 58.6453C159.842 59.7949 154.663 60.2141 149.48 59.9326L149.317 64.3748ZM149.399 62.1538C144.45 61.8851 139.502 60.993 134.66 59.5031L133.768 63.8145C138.845 65.377 144.039 66.3137 149.236 66.5959L149.399 62.1538ZM165.473 60.7717C160.206 61.9969 154.801 62.4471 149.399 62.1538L149.236 66.5959C154.912 66.904 160.601 66.4319 166.157 65.1394L165.473 60.7717ZM164.122 63.7837L170.395 82.836L173.78 81.1796L167.507 62.1273L164.122 63.7837ZM171.756 79.8215C164.251 81.5098 156.565 82.3108 148.881 82.2302L148.849 86.6765C156.761 86.7596 164.679 85.9351 172.418 84.1942L171.756 79.8215ZM148.881 82.2302C142.013 82.1581 135.159 81.3822 128.451 79.9106L127.805 84.2868C134.719 85.8035 141.777 86.6024 148.849 86.6765L148.881 82.2302ZM129.827 82.9034C132.267 75.2473 134.277 68.4226 135.942 62.3652L132.485 60.9523C130.838 66.9408 128.846 73.7001 126.428 81.2939L129.827 82.9034ZM132.936 58.9457C112.083 51.8783 93.5858 33.7093 85.964 6.68077L82.5147 8.12624C90.5827 36.7388 110.126 55.8302 131.958 63.2297L132.936 58.9457ZM84.8322 9.50602L86.2205 8.92424L85.0348 4.71923L83.6465 5.30101L84.8322 9.50602ZM54.4524 14.123C63.9748 13.5979 73.8562 11.9032 85.9787 9.00339L85.2764 4.64008C73.2539 7.51599 63.5649 9.16941 54.2876 9.68104L54.4524 14.123ZM126.655 79.4992C94.9581 71.9285 66.9697 48.7978 56.0901 11.1631L52.65 12.641C64.0683 52.1392 93.3487 76.0753 125.954 83.8628L126.655 79.4992ZM130.718 60.3805C129.061 66.4034 127.051 73.2128 124.604 80.8746L128.004 82.4873C130.469 74.7629 132.499 67.8873 134.176 61.795L130.718 60.3805ZM128.391 86.6671C135.123 88.0822 141.977 88.8278 148.833 88.8997L148.864 84.4534C142.204 84.3835 135.547 83.6591 129.01 82.2852L128.391 86.6671ZM143.761 107.29C140.668 99.2072 136.636 90.6624 129.962 82.8704L127.439 86.0818C133.663 93.3476 137.463 101.352 140.457 109.17L143.761 107.29ZM146.964 116.208C145.973 113.352 144.929 110.338 143.761 107.29L140.457 109.17C141.59 112.133 142.61 115.072 143.604 117.939L146.964 116.208ZM146.963 116.205L146.961 116.203L143.606 117.946L143.607 117.949L146.963 116.205ZM146.993 116.297L146.992 116.296L143.577 117.858L146.993 116.297ZM146.968 116.221L146.968 116.218L143.604 117.937L143.605 117.94L146.968 116.221ZM146.965 116.212L146.964 116.208L143.608 117.953L143.609 117.956L146.965 116.212ZM148 119.184C147.659 118.215 147.317 117.227 146.968 116.218L143.607 117.949C143.957 118.955 144.302 119.954 144.648 120.935L148 119.184ZM151.213 127.566C150.09 124.996 149.059 122.198 148 119.184L144.648 120.935C145.716 123.978 146.795 126.915 147.993 129.657L151.213 127.566ZM148.52 126.124C148.323 126.662 148.129 127.187 147.941 127.698L151.266 129.524C151.456 129.011 151.65 128.484 151.848 127.947L148.52 126.124ZM168.283 83.3513C159.466 96.3939 152.862 114.345 148.52 126.124L151.848 127.947C156.23 116.056 162.647 98.6794 171.098 86.1793L168.283 83.3513ZM148.833 88.8997C155.912 88.974 163.005 88.3303 169.981 86.9602L169.401 82.5703C162.63 83.9 155.742 84.5255 148.864 84.4534L148.833 88.8997ZM148.658 156.891C149.007 157.733 149.352 158.559 149.695 159.367L152.936 157.329C152.599 156.533 152.259 155.719 151.914 154.888L148.658 156.891ZM150.889 159.367C151.231 158.556 151.574 157.727 151.92 156.879L148.654 154.9C148.314 155.732 147.978 156.544 147.644 157.338L150.889 159.367ZM123.778 198.795C136.541 186.6 143.235 177.559 150.889 159.367L147.644 157.338C140.263 174.881 133.936 183.441 121.529 195.294L123.778 198.795ZM122.203 200.288C122.738 199.784 123.263 199.287 123.778 198.795L121.529 195.294C121.022 195.779 120.504 196.27 119.975 196.766L122.203 200.288ZM123.72 197.78C123.149 197.383 122.567 196.984 121.973 196.583L120.206 200.472C120.786 200.865 121.355 201.254 121.911 201.64L123.72 197.78ZM152.057 231.143C143.525 214.976 136.862 206.931 123.72 197.78L121.911 201.64C134.495 210.403 140.743 217.924 148.989 233.549L152.057 231.143ZM153.185 233.306C152.804 232.569 152.429 231.849 152.057 231.143L148.989 233.549C149.354 234.24 149.722 234.948 150.096 235.672L153.185 233.306ZM151.054 231.181C150.717 231.913 150.379 232.663 150.038 233.427L153.243 235.551C153.578 234.8 153.909 234.067 154.237 233.352L151.054 231.181ZM178.379 196.675C171.657 201.68 166.654 206.277 162.403 211.677C158.152 217.078 154.715 223.203 151.054 231.181L154.237 233.352C157.81 225.565 161.074 219.788 165.035 214.755C168.997 209.723 173.72 205.354 180.28 200.469L178.379 196.675ZM180.209 195.332C179.585 195.783 178.975 196.231 178.379 196.675L180.28 200.469C180.862 200.036 181.458 199.598 182.07 199.157L180.209 195.332ZM178.395 197.934C179.006 198.357 179.632 198.778 180.272 199.2L182.007 195.289C181.386 194.88 180.781 194.472 180.191 194.065L178.395 197.934ZM149.695 159.367C153.65 168.714 157.237 175.91 161.652 182.001C166.084 188.115 171.286 193.031 178.395 197.934L180.191 194.065C173.347 189.345 168.49 184.72 164.386 179.058C160.265 173.373 156.839 166.554 152.936 157.329L149.695 159.367ZM140.695 182.689C144.813 176.771 148.296 170.216 151.909 161.802L148.677 159.741C145.155 167.945 141.815 174.207 137.914 179.814L140.695 182.689ZM125.495 199.977C131.628 194.077 136.455 188.784 140.695 182.689L137.914 179.814C133.89 185.596 129.268 190.683 123.236 196.487L125.495 199.977ZM140.89 210.238C136.486 205.026 131.57 200.742 125.278 196.307L123.453 200.156C129.568 204.467 134.22 208.543 138.35 213.428L140.89 210.238ZM153.058 228.938C148.991 221.323 145.244 215.39 140.89 210.238L138.35 213.428C142.44 218.269 146.019 223.907 150.001 231.364L153.058 228.938ZM161.067 210.164C156.871 215.499 153.468 221.49 149.944 229.052L153.115 231.249C156.548 223.882 159.781 218.225 163.699 213.241L161.067 210.164ZM176.555 195.433C170.172 200.26 165.277 204.811 161.067 210.164L163.699 213.241C167.633 208.24 172.26 203.914 178.478 199.212L176.555 195.433ZM160.283 183.471C164.689 189.549 169.809 194.452 176.603 199.246L178.43 195.398C171.901 190.791 167.11 186.174 163.017 180.527L160.283 183.471ZM148.677 161.803C152.429 170.54 155.954 177.497 160.283 183.471L163.017 180.527C158.968 174.941 155.602 168.343 151.909 159.741L148.677 161.803Z" fill="white"/>
</svg>
