<svg width="300" height="239" viewBox="0 0 300 239" fill="none" xmlns="http://www.w3.org/2000/svg">
<path d="M3.64829 3.09953L3.98567 0.914649L0 0L2.08368 4.24177L3.64829 3.09953ZM85.994 4.23244L87.783 3.80064L87.4287 1.61971L85.6397 2.05151L85.994 4.23244ZM86.3482 6.41335L86.7023 8.59428L88.4914 8.16247L88.1371 5.98155L86.3482 6.41335ZM85.9804 6.50191L85.6278 4.32062L83.5744 4.81402L84.2562 7.22624L85.9804 6.50191ZM133.023 58.7416L132.537 60.8844L134.212 61.4493L134.756 59.4365L133.023 58.7416ZM139.045 32.569L140.825 33.0526L140.868 32.8186L140.869 32.5789L139.045 32.569ZM162.876 19.9593L161.107 20.5002L161.36 21.7286L162.356 22.09L162.876 19.9593ZM164.221 20.4447L163.705 22.577L163.711 22.579L164.221 20.4447ZM164.222 20.4449L164.737 18.3123L164.733 18.3106L164.222 20.4449ZM164.228 20.4468L164.744 18.3145L164.742 18.3142L164.228 20.4468ZM176.836 34.3672L176.335 36.5048L179.814 37.7166L178.544 33.5865L176.836 34.3672ZM161.133 37.4856L160.053 35.6944L159 36.6381L159.395 38.1572L161.133 37.4856ZM167.024 60.1544L165.285 60.8258L165.787 62.7542L167.409 62.3276L167.024 60.1544ZM213.406 6.48087L213.94 4.35532L212.197 3.70348L211.662 5.82903L213.406 6.48087ZM215.149 7.13271L216.893 7.78454L217.428 5.65899L215.684 5.00715L215.149 7.13271ZM167.631 62.2664L167.239 60.0947L165.136 60.6573L165.938 63.0945L167.631 62.2664ZM173.912 81.344L172.219 82.1721L172.784 83.8878L174.271 83.5237L173.912 81.344ZM245.113 11.2793L246.827 12.0376L247.662 9.22954L245.216 9.0597L245.113 11.2793ZM213.654 5.85754L211.865 5.42576L211.51 7.60666L213.299 8.03846L213.654 5.85754ZM214.008 3.67662L214.362 1.4957L212.573 1.0639L212.218 3.24483L214.008 3.67662ZM295.73 3.09953L297.294 4.24175L299.378 7.76877e-06L295.392 0.914649L295.73 3.09953ZM239.836 47.7034L239.752 45.4825L234.805 45.7613L238.718 49.4603L239.836 47.7034ZM265.921 63.4526L267.012 65.2349L270.116 62.413L266.354 61.2928L265.921 63.4526ZM203.324 80.6446L203.75 78.4827L200.423 77.5097L201.615 81.4193L203.324 80.6446ZM222.666 109.944L222.973 112.136L227.054 111.284L223.784 108.188L222.666 109.944ZM172.877 87.3335L171.711 85.6234L170.309 87.0441L171.474 88.7543L172.877 87.3335ZM174.28 85.9127L175.682 84.4918L174.517 82.7818L173.115 84.2026L174.28 85.9127ZM218.273 108.583L218.55 110.78L222.671 110.009L219.409 106.844L218.273 108.583ZM200.473 77.4968L200.913 75.3395L197.637 74.3448L198.751 78.2304L200.473 77.4968ZM261.729 64.4773L262.805 66.272L265.915 63.4996L262.184 62.3247L261.729 64.4773ZM234.685 45.7089L234.624 43.4869L229.493 43.6971L233.582 47.4801L234.685 45.7089ZM292.08 6.19526L293.642 7.34352L295.736 3.11104L291.749 4.009L292.08 6.19526ZM246.724 11.38L246.807 9.15913L246.111 13.474L246.724 11.38ZM246.987 11.4943L248.705 12.2416L249.317 10.1476L247.6 9.40041L246.987 11.4943ZM170.773 84.3114L170.467 82.1197L166.603 82.9223L169.595 86.0085L170.773 84.3114ZM171.619 85.1841L173.012 86.6203L174.19 84.923L172.797 83.4869L171.619 85.1841ZM151.846 127.717L150.183 126.806L150.177 126.824L150.17 126.842L151.846 127.717ZM151.846 127.719L153.508 128.635L153.515 128.615L153.522 128.595L151.846 127.719ZM151.843 127.726L150.181 126.81L150.18 126.815L151.843 127.726ZM149.956 132.815L148.296 131.896L147.784 133.267L148.639 134.354L149.956 132.815ZM182.8 196.252L183.245 198.407L185.013 197.865L184.568 195.709L182.8 196.252ZM181.031 196.794L179.263 197.337L179.708 199.493L181.477 198.951L181.031 196.794ZM149.712 135.719L151.03 134.183L149.665 132.441L148.35 134.239L149.712 135.719ZM120.805 198.06L120.459 200.243L122.25 200.666L122.595 198.483L120.805 198.06ZM119.014 197.639L117.224 197.216L116.878 199.399L118.668 199.821L119.014 197.639ZM149.505 132.668L150.863 134.153L151.75 132.947L151.08 131.547L149.505 132.668ZM143.595 117.676L141.912 118.533L141.915 118.542L143.595 117.676ZM143.594 117.675L145.277 116.818V116.817L143.594 117.675ZM143.593 117.672L145.276 116.815L145.271 116.801L145.267 116.789L143.593 117.672ZM143.592 117.671L141.913 118.535L141.915 118.544L141.919 118.552L143.592 117.671ZM126.947 85.2788L125.614 83.7618L124.37 85.3871L125.703 86.9041L126.947 85.2788ZM127.877 84.0641L129.211 85.581L131.496 82.5968L128.199 81.8757L127.877 84.0641ZM52.4648 11.7561L54.1888 11.0313L53.7505 9.482L52.4069 9.53399L52.4648 11.7561ZM7.29845 6.19582L7.63047 4.00971L3.64163 3.10936L5.73681 7.34408L7.29845 6.19582ZM64.6934 45.7089L65.7957 47.4801L69.8856 43.6971L64.7546 43.4869L64.6934 45.7089ZM58.1203 51.8859L59.1987 53.6787L59.2238 53.6564L59.2481 53.6329L58.1203 51.8859ZM58.1203 51.8859L57.0416 50.0932L57.0107 50.1208L56.9808 50.15L58.1203 51.8859ZM58.1203 51.8859L59.2142 53.6647L59.237 53.6438L59.2593 53.6221L58.1203 51.8859ZM58.1203 51.8859L57.0258 50.1076L57.0087 50.1231L56.992 50.1391L58.1203 51.8859ZM37.65 64.4773L37.1938 62.3247L33.4632 63.4996L36.5736 66.272L37.65 64.4773ZM98.906 77.4968L100.628 78.2304L101.741 74.3447L98.4647 75.3395L98.906 77.4968ZM81.1048 108.583L79.969 106.844L76.7078 110.009L80.8278 110.78L81.1048 108.583ZM125.099 85.9127L126.264 84.2026L124.862 82.7818L123.696 84.4918L125.099 85.9127ZM126.501 87.3335L127.904 88.7543L129.07 87.0441L127.667 85.6234L126.501 87.3335ZM76.7131 109.944L75.5946 108.188L72.3239 111.284L76.4058 112.136L76.7131 109.944ZM96.0538 80.6446L97.7635 81.4193L98.9553 77.5097L95.6288 78.4827L96.0538 80.6446ZM33.4573 63.4526L33.0245 61.2928L29.2629 62.413L32.367 65.2349L33.4573 63.4526ZM56.8779 50.2469L55.8663 48.397L55.8063 48.4458L55.7497 48.5001L56.8779 50.2469ZM56.8779 50.2469L57.8895 52.0968L57.9494 52.0481L58.006 51.9937L56.8779 50.2469ZM59.5426 47.7034L60.6601 49.4603L64.573 45.7613L59.6268 45.4825L59.5426 47.7034ZM165.226 60.5954L165.561 62.7808L167.587 62.3195L166.964 59.924L165.226 60.5954ZM159.003 36.6506L157.908 34.8728L156.874 35.8193L157.265 37.322L159.003 36.6506ZM173.834 31.0753L173.442 33.2464L176.922 34.1812L175.508 30.1929L173.834 31.0753ZM163.749 22.5928L163.229 24.7241L163.233 24.7251L163.749 22.5928ZM163.749 22.5928L164.267 20.4614L164.264 20.4604L163.749 22.5928ZM161.225 21.6774L159.409 21.8858L159.524 23.3766L160.701 23.8069L161.225 21.6774ZM140.868 32.8145L142.649 33.2966L142.691 33.0584V32.8145H140.868ZM134.789 59.3091L133.057 58.615L132.445 60.8853L134.347 61.4658L134.789 59.3091ZM134.214 61.4234L134.661 59.2678L133.022 58.7635L132.485 60.717L134.214 61.4234ZM165.815 62.7201L167.508 61.892L166.948 60.1932L165.473 60.5364L165.815 62.7201ZM172.088 81.7725L172.419 83.9588L174.61 83.4657L173.78 80.9443L172.088 81.7725ZM128.128 81.8633L126.429 81.0586L125.627 83.5736L127.805 84.0514L128.128 81.8633ZM132.448 60.8524L134.177 61.5596L134.788 59.338L132.936 58.7104L132.448 60.8524ZM84.2398 7.16816L83.647 5.06566L81.9223 5.78839L82.5152 7.89089L84.2398 7.16816ZM85.6281 6.58639L86.221 8.68889L85.2769 4.40473L85.6281 6.58639ZM54.3705 11.6666L54.2881 9.44568L51.8339 9.58102L52.6505 12.4056L54.3705 11.6666ZM126.305 81.4456L125.954 83.6274L127.451 83.9849L128.004 82.2519L126.305 81.4456ZM128.701 84.2407L129.011 82.0498L123.129 80.8132L127.44 85.8465L128.701 84.2407ZM145.285 116.839L143.604 117.704L143.607 117.711L145.285 116.839ZM145.286 116.842L146.993 116.061L146.979 116.015L146.963 115.97L145.286 116.842ZM145.286 116.842L143.578 117.623L143.591 117.663L143.604 117.702L145.286 116.842ZM145.287 116.846L143.605 117.705L143.609 117.717L145.287 116.846ZM145.287 116.849L146.968 115.983L146.965 115.976L145.287 116.849ZM149.604 128.376L147.994 129.422L149.742 133.419L151.267 129.288L149.604 128.376ZM169.691 84.53L171.098 85.9439L174.172 81.3979L169.401 82.3349L169.691 84.53ZM150.287 155.654L151.915 154.652L150.274 150.688L148.654 154.664L150.287 155.654ZM121.09 198.291L119.975 196.531L117.779 198.597L120.206 200.237L121.09 198.291ZM151.64 234.254L150.097 235.436L151.755 238.654L153.243 235.315L151.64 234.254ZM181.14 197.009L182.071 198.922L184.838 196.92L182.008 195.053L181.14 197.009ZM150.294 160.536L151.909 159.506L150.294 155.742L148.678 159.506L150.294 160.536ZM124.366 197.997L123.236 196.252L121.126 198.281L123.453 199.921L124.366 197.997ZM151.53 229.915L150.002 231.129L151.636 234.189L153.116 231.013L151.53 229.915ZM177.517 197.086L178.478 198.976L181.064 197.021L178.431 195.162L177.517 197.086ZM2.08368 4.24177L3.12551 6.36265L6.25474 4.07818L5.2129 1.95729L2.08368 4.24177ZM5.9785 1.37197L3.98567 0.914649L3.31091 5.28441L5.30374 5.74174L5.9785 1.37197ZM46.5481 7.38512C34.7384 7.22633 22.6414 5.19588 5.9785 1.37197L5.30374 5.74174C22.0323 9.5807 34.3769 11.6683 46.5078 11.8314L46.5481 7.38512ZM85.6397 2.05151C69.9567 5.8369 58.3406 7.54369 46.5481 7.38512L46.5078 11.8314C58.6445 11.9946 70.5306 10.2312 86.3482 6.41335L85.6397 2.05151ZM88.1371 5.98155L87.783 3.80064L84.2049 4.66424L84.5592 6.84516L88.1371 5.98155ZM86.3331 8.68321C86.4559 8.65369 86.579 8.62404 86.7023 8.59428L85.994 4.23244C85.8716 4.26196 85.7496 4.29135 85.6278 4.32062L86.3331 8.68321ZM84.2562 7.22624C92.1228 35.0576 111.191 53.6862 132.537 60.8844L133.509 56.5989C113.145 49.7314 95.1237 32.0248 87.7046 5.7776L84.2562 7.22624ZM137.265 32.0855C136.173 38.0585 134.395 46.5443 131.291 58.0468L134.756 59.4365C137.899 47.7905 139.708 39.1635 140.825 33.0526L137.265 32.0855ZM141.282 18.3615C138.777 21.7852 137.243 26.5131 137.221 32.559L140.869 32.5789C140.887 27.4845 142.16 23.8414 144.004 21.3217L141.282 18.3615ZM150.253 12.3142C147.059 13.0746 143.777 14.9528 141.282 18.3615L144.004 21.3217C145.871 18.7702 148.383 17.2898 150.953 16.6783L150.253 12.3142ZM159.309 13.0555C156.687 11.8608 153.425 11.5592 150.253 12.3142L150.953 16.6783C153.529 16.065 156.101 16.3409 158.032 17.2207L159.309 13.0555ZM164.645 19.4182C163.961 16.0982 161.561 14.0816 159.309 13.0555L158.032 17.2207C159.805 18.0285 160.851 19.2537 161.107 20.5002L164.645 19.4182ZM164.737 18.3123C164.307 18.1573 163.861 17.9969 163.396 17.8285L162.356 22.09C162.824 22.2603 163.275 22.4223 163.705 22.577L164.737 18.3123ZM164.733 18.3106L164.732 18.3104L163.711 22.579L163.712 22.5793L164.733 18.3106ZM164.742 18.3142L164.737 18.3123L163.707 22.5777L163.712 22.5796L164.742 18.3142ZM168.374 19.6696C167.314 19.2393 166.098 18.8017 164.744 18.3145L163.712 22.5793C165.085 23.073 166.234 23.4872 167.22 23.8879L168.374 19.6696ZM172.52 21.9378C171.289 20.9673 169.898 20.2889 168.374 19.6696L167.22 23.8879C168.647 24.4679 169.695 25.0057 170.539 25.671L172.52 21.9378ZM177.908 31.5214C176.529 27.0352 175.163 24.0228 172.52 21.9378L170.539 25.671C172.164 26.9535 173.184 28.8258 174.493 33.0827L177.908 31.5214ZM178.544 33.5865L177.908 31.5214L174.493 33.0827L175.128 35.1478L178.544 33.5865ZM174.595 35.899L176.335 36.5048L177.337 32.2294L175.598 31.6236L174.595 35.899ZM168.257 35.2733C169.918 34.78 171.733 34.9019 174.595 35.899L175.598 31.6236C172.422 30.5177 169.912 30.2055 167.394 30.953L168.257 35.2733ZM162.213 39.2769C164.839 36.9234 166.623 35.7584 168.257 35.2733L167.394 30.953C165.047 31.6498 162.793 33.2388 160.053 35.6944L162.213 39.2769ZM168.763 59.4829L162.872 36.8142L159.395 38.1572L165.285 60.8258L168.763 59.4829ZM167.409 62.3276C188.428 56.8001 207.119 39.0524 215.149 7.13271L211.662 5.82903C204.036 36.1466 186.421 52.779 166.639 57.9811L167.409 62.3276ZM212.871 8.60643L214.615 9.25826L215.684 5.00715L213.94 4.35532L212.871 8.60643ZM213.406 6.48087C205.59 37.5502 187.515 54.6733 167.239 60.0947L168.021 64.4379C189.527 58.6876 208.675 40.4531 216.893 7.78454L213.406 6.48087ZM175.604 80.5159L169.323 61.4382L165.938 63.0945L172.219 82.1721L175.604 80.5159ZM243.398 10.5211C232.004 48.8087 204.529 71.5796 173.552 79.1642L174.271 83.5237C206.186 75.7092 234.901 52.1139 246.827 12.0376L243.398 10.5211ZM213.299 8.03846C225.606 11.0091 235.511 12.8396 245.009 13.499L245.216 9.0597C235.958 8.4169 226.238 6.62874 214.008 3.67662L213.299 8.03846ZM212.218 3.24483L211.865 5.42576L215.443 6.28933L215.797 4.10841L212.218 3.24483ZM253.168 7.10702C241.53 7.12959 230.067 5.28634 214.362 1.4957L213.654 5.85754C229.463 9.67366 241.193 11.5768 253.173 11.5536L253.168 7.10702ZM293.4 1.37197C276.749 5.19318 264.813 7.08442 253.168 7.10702L253.173 11.5536C265.152 11.5302 277.342 9.5816 294.075 5.74174L293.4 1.37197ZM295.392 0.914649L293.4 1.37197L294.075 5.74174L296.067 5.28441L295.392 0.914649ZM296.253 6.36265L297.294 4.24175L294.166 1.95731L293.124 4.0782L296.253 6.36265ZM274.741 39.0937C283.271 32.0096 288.969 21.1904 296.253 6.36265L293.124 4.0782C285.778 19.0329 280.451 28.9713 272.687 35.4189L274.741 39.0937ZM239.92 49.9243C256.088 49.0129 266.554 45.8923 274.741 39.0937L272.687 35.4189C265.329 41.5295 255.671 44.585 239.752 45.4825L239.92 49.9243ZM243.628 48.5001C242.812 47.7162 241.927 46.867 240.954 45.9465L238.718 49.4603C239.68 50.3694 240.554 51.209 241.372 51.9937L243.628 48.5001ZM250.466 54.566C248.311 52.9904 246.376 51.1364 243.628 48.5001L241.372 51.9937C244.078 54.59 246.2 56.6315 248.591 58.3791L250.466 54.566ZM264.473 60.7328C257.223 58.5738 253.577 56.8407 250.466 54.566L248.591 58.3791C252.156 60.9862 256.206 62.8483 263.608 65.0522L264.473 60.7328ZM266.354 61.2928L264.473 60.7328L263.608 65.0522L265.488 65.6124L266.354 61.2928ZM265.459 66.6459L267.012 65.2349L264.831 61.6703L263.279 63.0813L265.459 66.6459ZM235.558 85.3906C245.446 82.9058 254.414 76.6871 265.459 66.6459L263.279 63.0813C252.375 72.9938 243.923 78.7484 234.822 81.0357L235.558 85.3906ZM202.899 82.8066C216.026 86.6458 226.065 87.7764 235.558 85.3906L234.822 81.0357C226.089 83.2304 216.657 82.2575 203.75 78.4827L202.899 82.8066ZM211.341 94.3477C208.914 90.5592 206.947 86.1433 205.034 79.8699L201.615 81.4193C203.623 88.006 205.754 92.8519 208.467 97.085L211.341 94.3477ZM222.149 106.64C217.37 102.116 214.026 98.5375 211.341 94.3477L208.467 97.085C211.438 101.723 215.076 105.574 219.911 110.152L222.149 106.64ZM223.784 108.188L222.149 106.64L219.911 110.152L221.547 111.7L223.784 108.188ZM220.931 112.56L222.973 112.136L222.358 107.753L220.317 108.178L220.931 112.56ZM194.236 111.364C202.087 114.984 210.445 114.747 220.931 112.56L220.317 108.178C210.055 110.317 202.47 110.407 195.526 107.206L194.236 111.364ZM171.474 88.7543C179.476 100.494 186.408 107.756 194.236 111.364L195.526 107.206C188.575 104.001 182.134 97.4372 174.28 85.9127L171.474 88.7543ZM173.115 84.2026L171.711 85.6234L174.042 89.0435L175.445 87.6227L173.115 84.2026ZM196.172 105.126C189.658 102.123 183.463 95.9088 175.682 84.4918L172.877 87.3335C180.804 98.9657 187.491 105.878 194.881 109.285L196.172 105.126ZM217.997 106.386C208.89 108.091 202.222 107.915 196.172 105.126L194.881 109.285C201.781 112.466 209.175 112.537 218.55 110.78L217.997 106.386ZM207.029 98.4535C209.785 102.753 213.059 106.364 217.138 110.322L219.409 106.844C215.421 102.973 212.402 99.6144 209.904 95.7164L207.029 98.4535ZM199.308 80.1732C201.534 87.9373 203.893 93.5594 207.029 98.4535L209.904 95.7164C207.083 91.3134 204.89 86.1633 202.752 78.706L199.308 80.1732ZM198.751 78.2304L199.308 80.1732L202.752 78.706L202.194 76.7632L198.751 78.2304ZM202.552 75.8368L200.913 75.3395L200.032 79.6541L201.67 80.1515L202.552 75.8368ZM234.453 78.8582C225.749 81.0459 216.206 79.9822 202.552 75.8368L201.67 80.1515C215.524 84.3575 225.695 85.5993 235.19 83.2131L234.453 78.8582ZM260.653 62.6826C250.569 71.6693 242.743 76.7749 234.453 78.8582L235.19 83.2131C244.231 80.941 252.558 75.4052 262.805 66.272L260.653 62.6826ZM247.652 60.2858C251.111 62.8145 254.95 64.6387 261.273 66.6299L262.184 62.3247C256.043 60.3904 252.573 58.6986 249.528 56.4726L247.652 60.2858ZM240.13 53.633C242.902 56.2927 245.162 58.4647 247.652 60.2858L249.528 56.4726C247.273 54.8236 245.201 52.8396 242.386 50.139L240.13 53.633ZM235.628 49.3715C237.327 50.9433 238.794 52.3512 240.13 53.633L242.386 50.139C241.051 48.858 239.56 47.4277 237.832 45.8292L235.628 49.3715ZM233.582 47.4801L235.628 49.3715L237.832 45.8292L235.787 43.9377L233.582 47.4801ZM237.19 43.3818L234.624 43.4869L234.746 47.9308L237.312 47.8258L237.19 43.3818ZM271.66 33.5815C264.356 39.6477 254.503 42.6725 237.19 43.3818L237.312 47.8258C254.839 47.1078 265.542 44.043 273.714 37.2563L271.66 33.5815ZM290.518 5.04699C283.683 18.8631 278.68 27.7518 271.66 33.5815L273.714 37.2563C281.477 30.8094 286.839 21.0939 293.642 7.34352L290.518 5.04699ZM253.176 13.7768C264.833 13.7542 276.649 11.9314 292.411 8.38151L291.749 4.009C276.077 7.53861 264.508 9.30827 253.171 9.33027L253.176 13.7768ZM246.642 13.6011C248.829 13.7224 250.998 13.7811 253.176 13.7768L253.171 9.33027C251.05 9.33439 248.937 9.27733 246.807 9.15913L246.642 13.6011ZM247.6 9.40041L247.338 9.28615L246.111 13.474L246.374 13.5883L247.6 9.40041ZM171.079 86.5031C205.027 79.4514 236.172 55.058 248.705 12.2416L245.27 10.7472C233.285 51.6891 203.456 75.2671 170.467 82.1197L171.079 86.5031ZM172.797 83.4869L171.951 82.6142L169.595 86.0085L170.441 86.8814L172.797 83.4869ZM153.51 128.629C158.001 116.449 164.486 98.9039 173.012 86.6203L170.227 83.748C161.309 96.5966 154.629 114.751 150.183 126.806L153.51 128.629ZM153.522 128.595L150.17 126.842L150.17 126.843L153.522 128.595ZM153.505 128.643L153.508 128.635L150.184 126.803L150.181 126.81L153.505 128.643ZM152.179 132.226C152.6 131.098 153.043 129.896 153.507 128.638L150.18 126.815C149.715 128.075 149.275 129.268 148.858 130.387L152.179 132.226ZM151.616 133.736L152.179 132.226L148.858 130.387L148.296 131.896L151.616 133.736ZM151.663 131.774L151.272 131.277L148.639 134.354L149.031 134.852L151.663 131.774ZM184.568 195.709C179.007 168.778 167.27 151.616 151.663 131.774L149.031 134.852C164.545 154.577 175.712 171.038 181.031 196.794L184.568 195.709ZM181.477 198.951L183.245 198.407L182.354 194.095L180.586 194.639L181.477 198.951ZM148.393 137.254C163.5 156.531 174.142 172.538 179.263 197.337L182.8 196.252C177.439 170.294 166.243 153.594 151.03 134.183L148.393 137.254ZM122.595 198.483C126.087 176.477 135.225 158.873 151.073 137.199L148.35 134.239C132.317 156.167 122.687 174.491 119.014 197.639L122.595 198.483ZM118.668 199.821L120.459 200.243L121.152 195.878L119.361 195.456L118.668 199.821ZM147.653 131.855C131.135 154.304 121.039 173.175 117.224 197.216L120.805 198.06C124.436 175.176 134.029 157.031 150.367 134.824L147.653 131.855ZM148.147 131.184L147.653 131.855L150.367 134.824L150.863 134.153L148.147 131.184ZM147.325 132.526L147.929 133.788L151.08 131.547L150.476 130.285L147.325 132.526ZM142.971 121.576C144.305 125.371 145.688 129.103 147.325 132.526L150.476 130.285C148.958 127.113 147.649 123.593 146.324 119.824L142.971 121.576ZM141.915 118.542C142.267 119.558 142.619 120.572 142.971 121.576L146.324 119.824C145.975 118.832 145.628 117.828 145.275 116.811L141.915 118.542ZM141.912 118.533L145.277 116.819L145.277 116.818L141.912 118.533ZM141.911 118.53L141.912 118.533L145.277 116.817L145.276 116.815L141.911 118.53ZM141.919 118.552V118.554L145.267 116.789L145.267 116.788L141.919 118.552ZM138.804 109.875C139.923 112.796 140.922 115.68 141.913 118.535L145.272 116.805C144.285 113.959 143.26 111.002 142.11 107.995L138.804 109.875ZM125.703 86.9041C131.984 94.0513 135.786 101.991 138.804 109.875L142.11 107.995C138.987 99.8371 134.945 91.338 128.192 83.6534L125.703 86.9041ZM126.544 82.547L125.614 83.7618L128.281 86.7958L129.211 85.581L126.544 82.547ZM50.7406 12.481C62.5154 54.1038 93.5115 78.8041 127.556 86.2523L128.199 81.8757C95.0763 74.6287 65.4199 50.7328 54.1888 11.0313L50.7406 12.481ZM46.4877 14.0545C48.4999 14.0815 50.5055 14.0563 52.5226 13.9783L52.4069 9.53399C50.4417 9.61004 48.4882 9.6346 46.528 9.60825L46.4877 14.0545ZM6.96642 8.38191C22.7291 11.9399 34.6891 13.8959 46.4877 14.0545L46.528 9.60825C35.0391 9.45376 23.318 7.5507 7.63047 4.00971L6.96642 8.38191ZM27.7179 33.5815C20.6983 27.7519 15.6956 18.8633 8.86008 5.04755L5.73681 7.34408C12.5398 21.0942 17.9016 30.8095 25.6643 37.2563L27.7179 33.5815ZM62.1891 43.3818C44.875 42.6725 35.0225 39.6477 27.7179 33.5815L25.6643 37.2563C33.8363 44.043 44.54 47.1078 62.0667 47.8258L62.1891 43.3818ZM64.7546 43.4869L62.1891 43.3818L62.0667 47.8258L64.6322 47.9308L64.7546 43.4869ZM63.7508 49.3715L65.7957 47.4801L63.5911 43.9377L61.5461 45.8292L63.7508 49.3715ZM59.2481 53.6329C60.5842 52.3511 62.0514 50.9432 63.7508 49.3715L61.5461 45.8292C59.8179 47.4276 58.3271 48.8581 56.992 50.1391L59.2481 53.6329ZM51.7263 60.2858C54.2168 58.4647 56.4761 56.2926 59.2481 53.6329L56.992 50.1391C54.1776 52.8395 52.1054 54.8236 49.8502 56.4726L51.7263 60.2858ZM38.1062 66.6299C44.4282 64.6387 48.268 62.8145 51.7263 60.2858L49.8502 56.4726C46.8058 58.6986 43.3353 60.3904 37.1938 62.3247L38.1062 66.6299ZM64.925 78.8582C56.6359 76.7749 48.809 71.6693 38.7263 62.6826L36.5736 66.272C46.8206 75.4052 55.1477 80.941 64.1886 83.2131L64.925 78.8582ZM96.827 75.8368C83.1728 79.9822 73.63 81.0459 64.925 78.8582L64.1886 83.2131C73.6837 85.5993 83.8543 84.3575 97.7079 80.1515L96.827 75.8368ZM98.4647 75.3395L96.827 75.8368L97.7079 80.1515L99.3465 79.6541L98.4647 75.3395ZM100.07 80.1733L100.628 78.2304L97.1845 76.7632L96.6273 78.706L100.07 80.1733ZM92.3489 98.4535C95.4848 93.5594 97.8437 87.9375 100.07 80.1733L96.6273 78.706C94.489 86.1633 92.296 91.3134 89.4745 95.7164L92.3489 98.4535ZM82.2407 110.322C86.3193 106.364 89.594 102.753 92.3489 98.4535L89.4745 95.7164C86.9769 99.6144 83.9575 102.973 79.969 106.844L82.2407 110.322ZM103.207 105.126C97.1571 107.915 90.4879 108.091 81.3818 106.386L80.8278 110.78C90.2033 112.537 97.5975 112.466 104.498 109.285L103.207 105.126ZM123.696 84.4918C115.915 95.9088 109.72 102.123 103.207 105.126L104.498 109.285C111.887 105.878 118.574 98.9657 126.501 87.3335L123.696 84.4918ZM127.667 85.6234L126.264 84.2026L123.934 87.6227L125.336 89.0435L127.667 85.6234ZM105.142 111.364C112.97 107.756 119.903 100.494 127.904 88.7543L125.099 85.9127C117.244 97.4372 110.804 104.001 103.852 107.206L105.142 111.364ZM78.4468 112.56C88.9338 114.747 97.2911 114.984 105.142 111.364L103.852 107.206C96.9082 110.407 89.3239 110.317 79.0614 108.178L78.4468 112.56ZM76.4058 112.136L78.4468 112.56L79.0614 108.178L77.0205 107.753L76.4058 112.136ZM77.2298 106.64L75.5946 108.188L77.8318 111.7L79.467 110.152L77.2298 106.64ZM88.0373 94.3477C85.3528 98.5375 82.0077 102.116 77.2298 106.64L79.467 110.152C84.3018 105.574 87.9401 101.723 90.9117 97.085L88.0373 94.3477ZM94.3449 79.8699C92.4319 86.1433 90.4648 90.5592 88.0373 94.3477L90.9117 97.085C93.6237 92.8519 95.7547 88.006 97.7635 81.4193L94.3449 79.8699ZM63.8204 85.3906C73.3137 87.7764 83.3524 86.6458 96.4796 82.8066L95.6288 78.4827C82.722 82.2575 73.2897 83.2304 64.5568 81.0357L63.8204 85.3906ZM33.9191 66.6459C44.9646 76.6871 53.9331 82.9058 63.8204 85.3906L64.5568 81.0357C55.4557 78.7484 47.0034 72.9938 36.0994 63.0813L33.9191 66.6459ZM32.367 65.2349L33.9191 66.6459L36.0994 63.0813L34.5475 61.6703L32.367 65.2349ZM34.9053 60.7328L33.0245 61.2928L33.8899 65.6124L35.7707 65.0522L34.9053 60.7328ZM48.9121 54.566C45.8012 56.8407 42.1555 58.5738 34.9053 60.7328L35.7707 65.0522C43.1721 62.8483 47.2229 60.9862 50.7882 58.3791L48.9121 54.566ZM55.7497 48.5001C53.0028 51.1364 51.0668 52.9904 48.9121 54.566L50.7882 58.3791C53.1783 56.6315 55.3009 54.5899 58.006 51.9937L55.7497 48.5001ZM58.425 45.9465C57.4512 46.867 56.5665 47.7162 55.7497 48.5001L58.006 51.9937C58.8236 51.209 59.6984 50.3694 60.6601 49.4603L58.425 45.9465ZM24.6375 39.0937C32.8239 45.8923 43.2901 49.0129 59.4583 49.9243L59.6268 45.4825C43.7071 44.585 34.049 41.5295 26.691 35.4189L24.6375 39.0937ZM3.12551 6.36265C10.4092 21.1904 16.1075 32.0096 24.6375 39.0937L26.691 35.4189C18.9273 28.9713 13.6008 19.0328 6.25474 4.07818L3.12551 6.36265ZM157.46 38.0733L163.487 61.2669L166.964 59.924L160.937 36.7304L157.46 38.0733ZM157.265 37.322L157.46 38.0733L160.937 36.7304L160.742 35.979L157.265 37.322ZM158.425 34.3995L157.908 34.8728L160.098 38.4283L160.615 37.955L158.425 34.3995ZM166.962 28.7929C164.096 29.6439 161.457 31.6231 158.425 34.3995L160.615 37.955C163.56 35.2589 165.709 33.7416 167.826 33.1132L166.962 28.7929ZM174.226 28.9041C171.658 28.2145 169.338 28.0879 166.962 28.7929L167.826 33.1132C169.518 32.6107 171.254 32.6591 173.442 33.2464L174.226 28.9041ZM169.547 27.5376C170.476 28.2699 171.216 29.2967 172.16 31.9576L175.508 30.1929C174.408 27.0921 173.289 25.1925 171.529 23.8044L169.547 27.5376ZM166.643 25.9971C168.023 26.5577 168.898 27.0253 169.547 27.5376L171.529 23.8044C170.492 22.9864 169.272 22.3783 167.797 21.7788L166.643 25.9971ZM163.233 24.7251C164.586 25.2123 165.688 25.6091 166.643 25.9971L167.797 21.7788C166.769 21.3612 165.6 20.9409 164.265 20.4605L163.233 24.7251ZM161.29 24.022C161.984 24.2763 162.631 24.5089 163.232 24.725L164.264 20.4604C163.663 20.2439 163.023 20.014 162.337 19.7631L161.29 24.022ZM160.701 23.8069L161.29 24.022L162.337 19.7631L161.749 19.548L160.701 23.8069ZM159.352 21.1404L159.409 21.8858L163.04 21.469L162.983 20.7236L159.352 21.1404ZM157.393 19.3032C159.107 20.0838 159.339 20.9761 159.352 21.1404L162.983 20.7236C162.776 18.0429 160.91 16.1586 158.671 15.138L157.393 19.3032ZM151.302 18.8603C153.581 18.3178 155.808 18.5808 157.393 19.3032L158.671 15.138C156.395 14.1009 153.477 13.8121 150.603 14.4963L151.302 18.8603ZM145.364 22.8017C146.918 20.6784 149.047 19.3972 151.302 18.8603L150.603 14.4963C147.721 15.1823 144.823 16.8617 142.643 19.8415L145.364 22.8017ZM142.691 32.6924C142.691 28.0161 143.84 24.8843 145.364 22.8017L142.643 19.8415C140.452 22.835 139.044 27.0603 139.044 32.6924H142.691ZM142.691 32.8145V32.6924H139.044V32.8145H142.691ZM142.627 33.4159L142.649 33.2966L139.088 32.3323L139.066 32.4514L142.627 33.4159ZM136.522 60.0032C139.683 48.2776 141.502 39.5842 142.627 33.4159L139.066 32.4514C137.967 38.4817 136.179 47.0333 133.057 58.615L136.522 60.0032ZM134.347 61.4658C139.259 62.9655 144.284 63.8662 149.318 64.1395L149.48 59.6973C144.694 59.4375 139.911 58.5807 135.232 57.1524L134.347 61.4658ZM149.318 64.1395C154.769 64.4354 160.227 63.9953 165.561 62.7808L164.891 58.4099C159.843 59.5596 154.663 59.9788 149.48 59.6973L149.318 64.1395ZM149.399 61.9184C144.45 61.6498 139.503 60.7577 134.661 59.2678L133.768 63.5791C138.845 65.1416 144.039 66.0784 149.237 66.3605L149.399 61.9184ZM165.473 60.5364C160.206 61.7616 154.802 62.2118 149.399 61.9184L149.237 66.3605C154.912 66.6686 160.601 66.1965 166.157 64.9041L165.473 60.5364ZM164.123 63.5483L170.395 82.6006L173.78 80.9443L167.508 61.892L164.123 63.5483ZM171.757 79.5861C164.251 81.2744 156.565 82.0755 148.881 81.9949L148.849 86.4412C156.761 86.5242 164.68 85.6997 172.419 83.9588L171.757 79.5861ZM148.881 81.9949C142.013 81.9227 135.16 81.1468 128.451 79.6753L127.805 84.0514C134.719 85.5681 141.778 86.367 148.849 86.4412L148.881 81.9949ZM129.828 82.6681C132.267 75.012 134.278 68.1872 135.943 62.1299L132.485 60.717C130.838 66.7054 128.847 73.4647 126.429 81.0586L129.828 82.6681ZM132.936 58.7104C112.083 51.643 93.5863 33.474 85.9645 6.44542L82.5152 7.89089C90.5832 36.5034 110.126 55.5948 131.959 62.9944L132.936 58.7104ZM84.8327 9.27067L86.221 8.68889L85.0353 4.48387L83.647 5.06566L84.8327 9.27067ZM54.4529 13.8877C63.9753 13.3625 73.8567 11.6678 85.9792 8.76803L85.2769 4.40473C73.2544 7.28064 63.5654 8.93406 54.2881 9.44568L54.4529 13.8877ZM126.656 79.2638C94.9586 71.6931 66.9702 48.5625 56.0906 10.9277L52.6505 12.4056C64.0688 51.9039 93.3492 75.8399 125.954 83.6274L126.656 79.2638ZM130.719 60.1452C129.061 66.1681 127.051 72.9775 124.605 80.6393L128.004 82.2519C130.47 74.5275 132.5 67.652 134.177 61.5596L130.719 60.1452ZM128.392 86.4317C135.124 87.8468 141.977 88.5924 148.834 88.6643L148.865 84.218C142.205 84.1481 135.547 83.4238 129.011 82.0498L128.392 86.4317ZM143.762 107.055C140.668 98.9719 136.637 90.427 129.963 82.6351L127.44 85.8465C133.663 93.1123 137.464 101.117 140.457 108.935L143.762 107.055ZM146.964 115.973C145.973 113.116 144.929 110.103 143.762 107.055L140.457 108.935C141.591 111.898 142.61 114.837 143.604 117.704L146.964 115.973ZM146.963 115.97L146.962 115.968L143.607 117.711L143.608 117.714L146.963 115.97ZM146.994 116.062L146.993 116.061L143.578 117.623L146.994 116.062ZM146.969 115.985L146.968 115.983L143.604 117.702L143.605 117.705L146.969 115.985ZM146.965 115.976L146.964 115.973L143.609 117.717L143.61 117.721L146.965 115.976ZM148 118.949C147.659 117.98 147.317 116.991 146.968 115.983L143.608 117.714C143.957 118.72 144.303 119.718 144.648 120.7L148 118.949ZM151.214 127.331C150.09 124.761 149.06 121.963 148 118.949L144.648 120.7C145.717 123.742 146.796 126.679 147.994 129.422L151.214 127.331ZM148.521 125.889C148.323 126.427 148.13 126.952 147.941 127.463L151.267 129.288C151.456 128.776 151.65 128.249 151.848 127.712L148.521 125.889ZM168.284 83.116C159.467 96.1586 152.862 114.11 148.521 125.889L151.848 127.712C156.231 115.821 162.647 98.4441 171.098 85.9439L168.284 83.116ZM148.834 88.6643C155.912 88.7387 163.006 88.0949 169.981 86.7249L169.401 82.3349C162.631 83.6647 155.743 84.2902 148.865 84.218L148.834 88.6643ZM148.659 156.655C149.008 157.498 149.353 158.324 149.695 159.132L152.936 157.093C152.6 156.297 152.26 155.484 151.915 154.652L148.659 156.655ZM150.89 159.132C151.232 158.321 151.575 157.491 151.92 156.643L148.654 154.664C148.315 155.497 147.978 156.309 147.645 157.102L150.89 159.132ZM123.779 198.559C136.542 186.365 143.236 177.324 150.89 159.132L147.645 157.102C140.263 174.646 133.937 183.206 121.529 195.059L123.779 198.559ZM122.203 200.052C122.738 199.549 123.263 199.052 123.779 198.559L121.529 195.059C121.022 195.543 120.504 196.035 119.975 196.531L122.203 200.052ZM123.72 197.544C123.15 197.148 122.568 196.748 121.973 196.347L120.206 200.237C120.787 200.629 121.356 201.018 121.911 201.405L123.72 197.544ZM152.057 230.908C143.526 214.74 136.863 206.695 123.72 197.544L121.911 201.405C134.496 210.168 140.744 217.688 148.99 233.313L152.057 230.908ZM153.185 233.071C152.805 232.334 152.429 231.614 152.057 230.908L148.99 233.313C149.354 234.005 149.723 234.713 150.097 235.436L153.185 233.071ZM151.054 230.945C150.718 231.678 150.379 232.427 150.038 233.192L153.243 235.315C153.578 234.565 153.909 233.831 154.237 233.117L151.054 230.945ZM178.38 196.439C171.657 201.445 166.655 206.042 162.404 211.442C158.153 216.842 154.715 222.967 151.054 230.945L154.237 233.117C157.811 225.33 161.074 219.552 165.036 214.52C168.998 209.488 173.72 205.119 180.281 200.233L178.38 196.439ZM180.21 195.097C179.585 195.548 178.976 195.996 178.38 196.439L180.281 200.233C180.863 199.801 181.459 199.363 182.071 198.922L180.21 195.097ZM178.395 197.699C179.007 198.121 179.632 198.543 180.273 198.965L182.008 195.053C181.387 194.644 180.781 194.236 180.191 193.829L178.395 197.699ZM149.695 159.132C153.65 168.479 157.237 175.674 161.653 181.766C166.084 187.88 171.286 192.796 178.395 197.699L180.191 193.829C173.348 189.109 168.491 184.485 164.386 178.822C160.266 173.137 156.84 166.319 152.936 157.093L149.695 159.132ZM140.695 182.454C144.813 176.536 148.297 169.98 151.909 161.567L148.678 159.506C145.155 167.709 141.815 173.971 137.914 179.578L140.695 182.454ZM125.496 199.742C131.629 193.842 136.455 188.549 140.695 182.454L137.914 179.578C133.89 185.361 129.269 190.448 123.236 196.252L125.496 199.742ZM140.891 210.002C136.486 204.791 131.57 200.507 125.279 196.071L123.453 199.921C129.568 204.232 134.22 208.307 138.35 213.193L140.891 210.002ZM153.058 228.702C148.991 221.088 145.245 215.155 140.891 210.002L138.35 213.193C142.441 218.034 146.02 223.672 150.002 231.129L153.058 228.702ZM161.067 209.929C156.872 215.264 153.469 221.254 149.944 228.817L153.116 231.013C156.549 223.647 159.781 217.989 163.7 213.006L161.067 209.929ZM176.556 195.198C170.172 200.024 165.277 204.575 161.067 209.929L163.7 213.006C167.633 208.005 172.26 203.678 178.478 198.976L176.556 195.198ZM160.284 183.236C164.689 189.314 169.809 194.216 176.603 199.011L178.431 195.162C171.902 190.556 167.111 185.939 163.018 180.292L160.284 183.236ZM148.678 161.568C152.429 170.305 155.954 177.262 160.284 183.236L163.018 180.292C158.969 174.706 155.602 168.107 151.909 159.506L148.678 161.568Z" fill="white" fill-opacity="0.6"/>
</svg>
