<svg width="366" height="138" viewBox="0 0 366 138" fill="none" xmlns="http://www.w3.org/2000/svg">
<g filter="url(#filter0_d_66_5)">
<path d="M88.9002 55.8264L75.4042 88H171.543L174.471 81.0196C170.314 78.489 167.558 74.0514 167.558 69C167.558 61.1299 174.248 54.75 182.502 54.75C183.486 54.75 184.448 54.8408 185.38 55.014L187.483 50H103.329L88.9002 55.8264Z" fill="white"/>
<path d="M193.46 50L190.478 56.9478C194.665 59.4728 197.445 63.9268 197.445 69C197.445 76.8701 190.755 83.25 182.502 83.25C181.413 83.25 180.351 83.1389 179.328 82.928L177.151 88H263.738L277.193 81.9503L290.595 50H193.46Z" fill="white"/>
<path d="M274.655 88H268.41L276.107 84.5392L274.655 88Z" fill="white"/>
<path d="M98.2194 50H91.3442L89.9422 53.3423L98.2194 50Z" fill="white"/>
<path d="M288.769 88H279.803L296.112 50H304.709L288.769 88Z" fill="white"/>
<path d="M77.2309 50H86.1972L69.8881 88H61.2908L77.2309 50Z" fill="white"/>
<path d="M299.728 88H293.75L310.059 50H315.668L299.728 88Z" fill="white"/>
<path d="M66.2721 50H72.2496L55.9406 88H50.332L66.2721 50Z" fill="white"/>
<path d="M193.46 69C193.46 70.788 192.979 72.5461 192.063 74.1061C191.147 75.6661 189.826 76.9759 188.227 77.9101C186.629 78.8443 184.805 79.3717 182.932 79.4419C181.058 79.5121 179.197 79.1227 177.526 78.311C175.855 77.4993 174.431 76.2924 173.389 74.8057C172.348 73.319 171.723 71.6024 171.576 69.8199C171.429 68.0374 171.764 66.2487 172.549 64.625C173.334 63.0012 174.543 61.5967 176.06 60.5458L177.992 63.082C176.93 63.8177 176.084 64.8009 175.535 65.9375C174.985 67.0741 174.751 68.3262 174.854 69.5739C174.957 70.8217 175.394 72.0233 176.123 73.064C176.852 74.1047 177.849 74.9495 179.019 75.5177C180.188 76.0859 181.491 76.3585 182.802 76.3094C184.114 76.2602 185.39 75.891 186.51 75.2371C187.629 74.5831 188.553 73.6663 189.194 72.5743C189.836 71.4823 190.172 70.2516 190.172 69H193.46Z" fill="white"/>
<path d="M179.115 59.0615C180.484 58.6374 181.926 58.4745 183.361 58.5822C184.796 58.6899 186.194 59.066 187.477 59.689C188.759 60.312 189.9 61.1698 190.834 62.2133C191.769 63.2568 192.479 64.4656 192.924 65.7708L190.631 66.4812C190.284 65.4632 189.73 64.5203 189.001 63.7064C188.272 62.8924 187.382 62.2234 186.382 61.7374C185.382 61.2515 184.291 60.9581 183.172 60.8741C182.053 60.7901 180.927 60.9172 179.86 61.2479L179.115 59.0615Z" fill="white"/>
<path d="M185.49 69C185.49 70.574 184.152 71.85 182.501 71.85C180.851 71.85 179.513 70.574 179.513 69C179.513 67.426 180.851 66.15 182.501 66.15C184.152 66.15 185.49 67.426 185.49 69Z" fill="white"/>
</g>
<mask id="mask0_66_5" style="mask-type:alpha" maskUnits="userSpaceOnUse" x="50" y="50" width="266" height="38">
<path d="M88.9002 55.8264L75.4042 88H171.543L174.471 81.0196C170.314 78.489 167.558 74.0514 167.558 69C167.558 61.1299 174.248 54.75 182.502 54.75C183.486 54.75 184.448 54.8408 185.38 55.014L187.483 50H103.329L88.9002 55.8264Z" fill="white"/>
<path d="M193.46 50L190.478 56.9478C194.665 59.4728 197.445 63.9268 197.445 69C197.445 76.8701 190.755 83.25 182.502 83.25C181.413 83.25 180.351 83.1389 179.328 82.928L177.151 88H263.738L277.193 81.9503L290.595 50H193.46Z" fill="white"/>
<path d="M274.655 88H268.41L276.107 84.5392L274.655 88Z" fill="white"/>
<path d="M98.2194 50H91.3442L89.9422 53.3423L98.2194 50Z" fill="white"/>
<path d="M288.769 88H279.803L296.112 50H304.709L288.769 88Z" fill="white"/>
<path d="M77.2309 50H86.1972L69.8881 88H61.2908L77.2309 50Z" fill="white"/>
<path d="M299.728 88H293.75L310.059 50H315.668L299.728 88Z" fill="white"/>
<path d="M66.2721 50H72.2496L55.9406 88H50.332L66.2721 50Z" fill="white"/>
<path d="M193.46 69C193.46 70.788 192.979 72.5461 192.063 74.1061C191.147 75.6661 189.826 76.9759 188.227 77.9101C186.629 78.8443 184.805 79.3717 182.932 79.4419C181.058 79.5121 179.197 79.1227 177.526 78.311C175.855 77.4993 174.431 76.2924 173.389 74.8057C172.348 73.319 171.723 71.6024 171.576 69.8199C171.429 68.0374 171.764 66.2487 172.549 64.625C173.334 63.0012 174.543 61.5967 176.06 60.5458L177.992 63.082C176.93 63.8177 176.084 64.8009 175.535 65.9375C174.985 67.0741 174.751 68.3262 174.854 69.5739C174.957 70.8217 175.394 72.0233 176.123 73.064C176.852 74.1047 177.849 74.9495 179.019 75.5177C180.188 76.0859 181.491 76.3585 182.802 76.3094C184.114 76.2602 185.39 75.891 186.51 75.2371C187.629 74.5831 188.553 73.6663 189.194 72.5743C189.836 71.4823 190.172 70.2516 190.172 69H193.46Z" fill="white"/>
<path d="M179.115 59.0615C180.484 58.6374 181.926 58.4745 183.361 58.5822C184.796 58.6899 186.194 59.066 187.477 59.689C188.759 60.312 189.9 61.1698 190.834 62.2133C191.769 63.2568 192.479 64.4656 192.924 65.7708L190.631 66.4812C190.284 65.4632 189.73 64.5203 189.001 63.7064C188.272 62.8924 187.382 62.2234 186.382 61.7374C185.382 61.2515 184.291 60.9581 183.172 60.8741C182.053 60.7901 180.927 60.9172 179.86 61.2479L179.115 59.0615Z" fill="white"/>
<path d="M185.49 69C185.49 70.574 184.152 71.85 182.501 71.85C180.851 71.85 179.513 70.574 179.513 69C179.513 67.426 180.851 66.15 182.501 66.15C184.152 66.15 185.49 67.426 185.49 69Z" fill="white"/>
</mask>
<g mask="url(#mask0_66_5)">
<g style="mix-blend-mode:difference" opacity="0.58">
<path fill-rule="evenodd" clip-rule="evenodd" d="M269.4 164.115L266.079 169.7H259.134L255.813 164.115H248.985L245.664 158.53H238.836L235.515 152.945H228.687L225.366 147.36H218.538L215.217 141.775H208.389L204.917 135.936L208.238 130.351L204.917 124.766L208.238 119.181L204.917 113.596L208.238 108.011L204.917 102.426L208.238 96.8407L204.917 91.2557L208.238 85.6706L204.917 80.0856L208.238 74.5005L204.917 68.9155L208.238 63.3305L204.917 57.7454L208.238 52.1604L204.917 46.5753L208.238 40.9903L204.917 35.4052L208.238 29.8202L204.917 24.2352L208.238 18.6501L204.917 13.0651L208.238 7.48003L204.917 1.89498L208.238 -3.69006L204.917 -9.2751L208.238 -14.8601L204.917 -20.4452L208.238 -26.0302L204.917 -31.6153L208.238 -37.2003L204.917 -42.7854L208.238 -48.3704L204.917 -53.9554L208.238 -59.5405L204.917 -65.1255L208.238 -70.7106L204.917 -76.2956L208.238 -81.8807L204.917 -87.4657L208.238 -93.0507L204.917 -98.6358L208.238 -104.221L204.917 -109.806L208.238 -115.391L204.917 -120.976L208.389 -126.815H215.333L218.654 -121.23H225.482L228.803 -115.645H235.631L238.952 -110.06H245.78L249.101 -104.475H255.929L259.251 -98.8896H265.962L269.284 -104.475H276.112L279.433 -110.06H286.261L289.582 -115.645H296.41L299.731 -121.23H306.559L309.88 -126.815H316.708L320.029 -132.4H326.973L330.445 -126.561L327.124 -120.976L330.445 -115.391L327.124 -109.806L330.445 -104.221L327.124 -98.6358L330.445 -93.0507L327.124 -87.4657L330.445 -81.8807L327.124 -76.2956L330.445 -70.7106L327.124 -65.1255L330.445 -59.5405L327.124 -53.9554L330.445 -48.3704L327.124 -42.7854L330.445 -37.2003L327.124 -31.6153L330.445 -26.0302L327.124 -20.4452L330.445 -14.8601L327.124 -9.2751L330.445 -3.69006L327.124 1.89498L330.445 7.48003L327.124 13.0651L330.445 18.6501L327.124 24.2352L330.445 29.8202L327.124 35.4052L330.445 40.9903L327.124 46.5753L330.445 52.1604L327.124 57.7454L330.445 63.3305L327.124 68.9155L330.445 74.5005L327.124 80.0856L330.445 85.6706L327.124 91.2557L330.445 96.8407L327.124 102.426L330.445 108.011L327.124 113.596L330.445 119.181L327.124 124.766L330.445 130.351L326.973 136.19H320.145L316.824 141.775H309.996L306.675 147.36H299.847L296.526 152.945H289.698L286.377 158.53H279.549L276.228 164.115H269.4ZM320.341 -64.8717H326.661L329.832 -59.5405L326.661 -54.2093H320.341L317.17 -59.5405L320.341 -64.8717ZM310.192 -59.2866H316.512L319.682 -53.9554L316.512 -48.6243H310.192L307.021 -53.9554L310.192 -59.2866ZM300.042 -53.7016H306.363L309.533 -48.3704L306.363 -43.0392H300.042L296.872 -48.3704L300.042 -53.7016ZM289.893 -48.1165H296.214L299.384 -42.7854L296.214 -37.4542H289.893L286.723 -42.7854L289.893 -48.1165ZM279.744 -42.5315H286.065L289.235 -37.2003L286.065 -31.8691H279.744L276.574 -37.2003L279.744 -42.5315ZM269.595 -36.9464H275.916L279.086 -31.6153L275.916 -26.2841H269.595L266.425 -31.6153L269.595 -36.9464ZM329.832 -70.7106L326.661 -65.3794H320.341L317.17 -70.7106L320.341 -76.0417H326.661L329.832 -70.7106ZM319.682 -65.1255L316.512 -59.7943H310.192L307.021 -65.1255L310.192 -70.4567H316.512L319.682 -65.1255ZM309.533 -59.5405L306.363 -54.2093H300.042L296.872 -59.5405L300.042 -64.8717H306.363L309.533 -59.5405ZM299.384 -53.9554L296.214 -48.6243H289.893L286.723 -53.9554L289.893 -59.2866H296.214L299.384 -53.9554ZM289.235 -48.3704L286.065 -43.0392H279.744L276.574 -48.3704L279.744 -53.7016H286.065L289.235 -48.3704ZM279.086 -42.7854L275.916 -37.4542H269.595L266.425 -42.7854L269.595 -48.1165H275.916L279.086 -42.7854ZM269.595 96.5868H275.916L279.086 91.2557L275.916 85.9245H269.595L266.425 91.2557L269.595 96.5868ZM279.744 91.0018H286.065L289.235 85.6706L286.065 80.3394H279.744L276.574 85.6706L279.744 91.0018ZM289.893 85.4168H296.214L299.384 80.0856L296.214 74.7544H289.893L286.723 80.0856L289.893 85.4168ZM300.042 79.8317H306.363L309.533 74.5005L306.363 69.1694H300.042L296.872 74.5005L300.042 79.8317ZM310.192 74.2467H316.512L319.682 68.9155L316.512 63.5843H310.192L307.021 68.9155L310.192 74.2467ZM320.341 68.6616H326.661L329.832 63.3305L326.661 57.9993H320.341L317.17 63.3305L320.341 68.6616ZM269.595 97.0946L266.425 102.426L269.595 107.757H275.916L279.086 102.426L275.916 97.0946H269.595ZM279.744 91.5095L276.574 96.8407L279.744 102.172H286.065L289.235 96.8407L286.065 91.5095H279.744ZM289.893 85.9245L286.723 91.2557L289.893 96.5868H296.214L299.384 91.2557L296.214 85.9245H289.893ZM300.042 80.3394L296.872 85.6706L300.042 91.0018H306.363L309.533 85.6706L306.363 80.3394H300.042ZM310.192 74.7544L307.021 80.0856L310.192 85.4168H316.512L319.682 80.0856L316.512 74.7544H310.192ZM320.341 69.1694L317.17 74.5005L320.341 79.8317H326.661L329.832 74.5005L326.661 69.1694H320.341ZM279.086 158.276L275.916 152.945H269.595L266.425 158.276L269.595 163.607H275.916L279.086 158.276ZM289.893 97.0946H296.214L299.384 102.426L296.214 107.757H289.893L286.723 102.426L289.893 97.0946ZM279.744 102.68L276.574 108.011L279.744 113.342H286.065L289.235 108.011L286.065 102.68H279.744ZM269.595 108.265H275.916L279.086 113.596L275.916 118.927H269.595L266.425 113.596L269.595 108.265ZM296.214 119.435H289.893L286.723 124.766L289.893 130.097H296.214L299.384 124.766L296.214 119.435ZM296.214 118.927L299.384 113.596L296.214 108.265H289.893L286.723 113.596L289.893 118.927H296.214ZM289.893 130.605L286.723 135.936L289.893 141.267H296.214L299.384 135.936L296.214 130.605H289.893ZM279.744 136.19H286.065L289.235 141.521L286.065 146.852H279.744L276.574 141.521L279.744 136.19ZM286.065 124.512H279.744L276.574 119.181L279.744 113.85H286.065L289.235 119.181L286.065 124.512ZM289.235 130.351L286.065 135.682H279.744L276.574 130.351L279.744 125.02H286.065L289.235 130.351ZM269.595 141.267H275.916L279.086 135.936L275.916 130.605H269.595L266.425 135.936L269.595 141.267ZM269.595 141.775L266.425 147.106L269.595 152.437H275.916L279.086 147.106L275.916 141.775H269.595ZM269.595 130.097H275.916L279.086 124.766L275.916 119.435H269.595L266.425 124.766L269.595 130.097ZM289.893 141.775L286.723 147.106L289.893 152.437H296.214L299.384 147.106L296.214 141.775H289.893ZM279.744 147.36H286.065L289.235 152.691L286.065 158.022H279.744L276.574 152.691L279.744 147.36ZM309.533 141.521L306.363 136.19H300.042L296.872 141.521L300.042 146.852H306.363L309.533 141.521ZM320.341 80.3394H326.661L329.832 85.6706L326.661 91.0018H320.341L317.17 85.6706L320.341 80.3394ZM310.192 85.9245L307.021 91.2557L310.192 96.5868H316.512L319.682 91.2557L316.512 85.9245H310.192ZM300.042 91.5095H306.363L309.533 96.8407L306.363 102.172H300.042L296.872 96.8407L300.042 91.5095ZM326.661 102.68H320.341L317.17 108.011L320.341 113.342H326.661L329.832 108.011L326.661 102.68ZM326.661 102.172L329.832 96.8407L326.661 91.5095H320.341L317.17 96.8407L320.341 102.172H326.661ZM320.341 113.85L317.17 119.181L320.341 124.512H326.661L329.832 119.181L326.661 113.85H320.341ZM310.192 119.435H316.512L319.682 124.766L316.512 130.097H310.192L307.021 124.766L310.192 119.435ZM316.512 107.757H310.192L307.021 102.426L310.192 97.0946H316.512L319.682 102.426L316.512 107.757ZM319.682 113.596L316.512 118.927H310.192L307.021 113.596L310.192 108.265H316.512L319.682 113.596ZM300.042 124.512H306.363L309.533 119.181L306.363 113.85H300.042L296.872 119.181L300.042 124.512ZM300.042 125.02L296.872 130.351L300.042 135.682H306.363L309.533 130.351L306.363 125.02H300.042ZM300.042 113.342H306.363L309.533 108.011L306.363 102.68H300.042L296.872 108.011L300.042 113.342ZM320.341 125.02L317.17 130.351L320.341 135.682H326.661L329.832 130.351L326.661 125.02H320.341ZM310.192 130.605H316.512L319.682 135.936L316.512 141.267H310.192L307.021 135.936L310.192 130.605ZM275.916 29.5663H269.595L266.425 24.2352L269.595 18.904H275.916L279.086 24.2352L275.916 29.5663ZM286.065 23.9813H279.744L276.574 18.6501L279.744 13.3189H286.065L289.235 18.6501L286.065 23.9813ZM296.214 18.3962H289.893L286.723 13.0651L289.893 7.73389H296.214L299.384 13.0651L296.214 18.3962ZM306.363 12.8112H300.042L296.872 7.48003L300.042 2.14885H306.363L309.533 7.48003L306.363 12.8112ZM316.512 7.22616H310.192L307.021 1.89498L310.192 -3.43619H316.512L319.682 1.89498L316.512 7.22616ZM326.661 1.64112H320.341L317.17 -3.69006L320.341 -9.02124H326.661L329.832 -3.69006L326.661 1.64112ZM266.425 35.4052L269.595 30.0741H275.916L279.086 35.4052L275.916 40.7364H269.595L266.425 35.4052ZM276.574 29.8202L279.744 24.489H286.065L289.235 29.8202L286.065 35.1514H279.744L276.574 29.8202ZM286.723 24.2352L289.893 18.904H296.214L299.384 24.2352L296.214 29.5663H289.893L286.723 24.2352ZM296.872 18.6501L300.042 13.3189H306.363L309.533 18.6501L306.363 23.9813H300.042L296.872 18.6501ZM307.021 13.0651L310.192 7.73389H316.512L319.682 13.0651L316.512 18.3962H310.192L307.021 13.0651ZM317.17 7.48003L320.341 2.14885H326.661L329.832 7.48003L326.661 12.8112H320.341L317.17 7.48003ZM296.214 30.0741H289.893L286.723 35.4052L289.893 40.7364H296.214L299.384 35.4052L296.214 30.0741ZM276.574 40.9903L279.744 35.6591H286.065L289.235 40.9903L286.065 46.3215H279.744L276.574 40.9903ZM275.916 41.2441H269.595L266.425 46.5753L269.595 51.9065H275.916L279.086 46.5753L275.916 41.2441ZM289.893 52.4142H296.214L299.384 57.7454L296.214 63.0766H289.893L286.723 57.7454L289.893 52.4142ZM299.384 46.5753L296.214 51.9065H289.893L286.723 46.5753L289.893 41.2441H296.214L299.384 46.5753ZM286.723 68.9155L289.893 63.5843H296.214L299.384 68.9155L296.214 74.2467H289.893L286.723 68.9155ZM286.065 69.1694H279.744L276.574 74.5005L279.744 79.8317H286.065L289.235 74.5005L286.065 69.1694ZM279.744 57.4915H286.065L289.235 52.1604L286.065 46.8292H279.744L276.574 52.1604L279.744 57.4915ZM286.065 68.6616L289.235 63.3305L286.065 57.9993H279.744L276.574 63.3305L279.744 68.6616H286.065ZM275.916 74.2467H269.595L266.425 68.9155L269.595 63.5843H275.916L279.086 68.9155L275.916 74.2467ZM266.425 80.0856L269.595 74.7544H275.916L279.086 80.0856L275.916 85.4168H269.595L266.425 80.0856ZM275.916 63.0766H269.595L266.425 57.7454L269.595 52.4142H275.916L279.086 57.7454L275.916 63.0766ZM326.661 13.3189H320.341L317.17 18.6501L320.341 23.9813H326.661L329.832 18.6501L326.661 13.3189ZM307.021 24.2352L310.192 18.904H316.512L319.682 24.2352L316.512 29.5663H310.192L307.021 24.2352ZM306.363 24.489H300.042L296.872 29.8202L300.042 35.1514H306.363L309.533 29.8202L306.363 24.489ZM320.341 35.6591H326.661L329.832 40.9903L326.661 46.3215H320.341L317.17 40.9903L320.341 35.6591ZM329.832 29.8202L326.661 35.1514H320.341L317.17 29.8202L320.341 24.489H326.661L329.832 29.8202ZM317.17 52.1604L320.341 46.8292H326.661L329.832 52.1604L326.661 57.4915H320.341L317.17 52.1604ZM316.512 52.4142H310.192L307.021 57.7454L310.192 63.0766H316.512L319.682 57.7454L316.512 52.4142ZM310.192 40.7364H316.512L319.682 35.4052L316.512 30.0741H310.192L307.021 35.4052L310.192 40.7364ZM316.512 51.9065L319.682 46.5753L316.512 41.2441H310.192L307.021 46.5753L310.192 51.9065H316.512ZM306.363 57.4915H300.042L296.872 52.1604L300.042 46.8292H306.363L309.533 52.1604L306.363 57.4915ZM296.872 63.3305L300.042 57.9993H306.363L309.533 63.3305L306.363 68.6616H300.042L296.872 63.3305ZM306.363 46.3215H300.042L296.872 40.9903L300.042 35.6591H306.363L309.533 40.9903L306.363 46.3215ZM296.214 -36.9464H289.893L286.723 -31.6153L289.893 -26.2841H296.214L299.384 -31.6153L296.214 -36.9464ZM276.574 -26.0302L279.744 -31.3614H286.065L289.235 -26.0302L286.065 -20.6991H279.744L276.574 -26.0302ZM275.916 -25.7764H269.595L266.425 -20.4452L269.595 -15.114H275.916L279.086 -20.4452L275.916 -25.7764ZM289.893 -14.6063H296.214L299.384 -9.2751L296.214 -3.94392H289.893L286.723 -9.2751L289.893 -14.6063ZM299.384 -20.4452L296.214 -15.114H289.893L286.723 -20.4452L289.893 -25.7764H296.214L299.384 -20.4452ZM286.723 1.89498L289.893 -3.43619H296.214L299.384 1.89498L296.214 7.22616H289.893L286.723 1.89498ZM286.065 2.14885H279.744L276.574 7.48003L279.744 12.8112H286.065L289.235 7.48003L286.065 2.14885ZM279.744 -9.52897H286.065L289.235 -14.8601L286.065 -20.1913H279.744L276.574 -14.8601L279.744 -9.52897ZM286.065 1.64112L289.235 -3.69006L286.065 -9.02124H279.744L276.574 -3.69006L279.744 1.64112H286.065ZM275.916 7.22616H269.595L266.425 1.89498L269.595 -3.43619H275.916L279.086 1.89498L275.916 7.22616ZM266.425 13.0651L269.595 7.73389H275.916L279.086 13.0651L275.916 18.3962H269.595L266.425 13.0651ZM275.916 -3.94392H269.595L266.425 -9.2751L269.595 -14.6063H275.916L279.086 -9.2751L275.916 -3.94392ZM326.661 -53.7016H320.341L317.17 -48.3704L320.341 -43.0392H326.661L329.832 -48.3704L326.661 -53.7016ZM307.021 -42.7854L310.192 -48.1165H316.512L319.682 -42.7854L316.512 -37.4542H310.192L307.021 -42.7854ZM306.363 -42.5315H300.042L296.872 -37.2003L300.042 -31.8691H306.363L309.533 -37.2003L306.363 -42.5315ZM320.341 -31.3614H326.661L329.832 -26.0302L326.661 -20.6991H320.341L317.17 -26.0302L320.341 -31.3614ZM329.832 -37.2003L326.661 -31.8691H320.341L317.17 -37.2003L320.341 -42.5315H326.661L329.832 -37.2003ZM317.17 -14.8601L320.341 -20.1913H326.661L329.832 -14.8601L326.661 -9.52897H320.341L317.17 -14.8601ZM316.512 -14.6063H310.192L307.021 -9.2751L310.192 -3.94392H316.512L319.682 -9.2751L316.512 -14.6063ZM310.192 -26.2841H316.512L319.682 -31.6153L316.512 -36.9464H310.192L307.021 -31.6153L310.192 -26.2841ZM316.512 -15.114L319.682 -20.4452L316.512 -25.7764H310.192L307.021 -20.4452L310.192 -15.114H316.512ZM306.363 -9.52897H300.042L296.872 -14.8601L300.042 -20.1913H306.363L309.533 -14.8601L306.363 -9.52897ZM296.872 -3.69006L300.042 -9.02124H306.363L309.533 -3.69006L306.363 1.64112H300.042L296.872 -3.69006ZM306.363 -20.6991H300.042L296.872 -26.0302L300.042 -31.3614H306.363L309.533 -26.0302L306.363 -20.6991ZM296.214 -103.967H289.893L286.723 -98.6358L289.893 -93.3046H296.214L299.384 -98.6358L296.214 -103.967ZM296.214 -104.475L299.384 -109.806L296.214 -115.137H289.893L286.723 -109.806L289.893 -104.475H296.214ZM286.065 -98.8896H279.744L276.574 -104.221L279.744 -109.552H286.065L289.235 -104.221L286.065 -98.8896ZM276.574 -93.0507L279.744 -98.3819H286.065L289.235 -93.0507L286.065 -87.7196H279.744L276.574 -93.0507ZM275.916 -92.7969H269.595L266.425 -87.4657L269.595 -82.1345H275.916L279.086 -87.4657L275.916 -92.7969ZM275.916 -93.3046L279.086 -98.6358L275.916 -103.967H269.595L266.425 -98.6358L269.595 -93.3046H275.916ZM289.893 -81.6268H296.214L299.384 -76.2956L296.214 -70.9644H289.893L286.723 -76.2956L289.893 -81.6268ZM299.384 -87.4657L296.214 -82.1345H289.893L286.723 -87.4657L289.893 -92.7969H296.214L299.384 -87.4657ZM286.723 -65.1255L289.893 -70.4567H296.214L299.384 -65.1255L296.214 -59.7943H289.893L286.723 -65.1255ZM286.065 -64.8717H279.744L276.574 -59.5405L279.744 -54.2093H286.065L289.235 -59.5405L286.065 -64.8717ZM279.744 -76.5495H286.065L289.235 -81.8807L286.065 -87.2118H279.744L276.574 -81.8807L279.744 -76.5495ZM286.065 -65.3794L289.235 -70.7106L286.065 -76.0417H279.744L276.574 -70.7106L279.744 -65.3794H286.065ZM275.916 -59.7943H269.595L266.425 -65.1255L269.595 -70.4567H275.916L279.086 -65.1255L275.916 -59.7943ZM266.425 -53.9554L269.595 -59.2866H275.916L279.086 -53.9554L275.916 -48.6243H269.595L266.425 -53.9554ZM275.916 -70.9644H269.595L266.425 -76.2956L269.595 -81.6268H275.916L279.086 -76.2956L275.916 -70.9644ZM326.661 -120.722H320.341L317.17 -115.391L320.341 -110.06H326.661L329.832 -115.391L326.661 -120.722ZM326.661 -121.23L329.832 -126.561L326.661 -131.892H320.341L317.17 -126.561L320.341 -121.23H326.661ZM316.512 -115.645H310.192L307.021 -120.976L310.192 -126.307H316.512L319.682 -120.976L316.512 -115.645ZM307.021 -109.806L310.192 -115.137H316.512L319.682 -109.806L316.512 -104.475H310.192L307.021 -109.806ZM306.363 -109.552H300.042L296.872 -104.221L300.042 -98.8896H306.363L309.533 -104.221L306.363 -109.552ZM306.363 -110.06L309.533 -115.391L306.363 -120.722H300.042L296.872 -115.391L300.042 -110.06H306.363ZM320.341 -98.3819H326.661L329.832 -93.0507L326.661 -87.7196H320.341L317.17 -93.0507L320.341 -98.3819ZM329.832 -104.221L326.661 -98.8896H320.341L317.17 -104.221L320.341 -109.552H326.661L329.832 -104.221ZM317.17 -81.8807L320.341 -87.2118H326.661L329.832 -81.8807L326.661 -76.5495H320.341L317.17 -81.8807ZM316.512 -81.6268H310.192L307.021 -76.2956L310.192 -70.9644H316.512L319.682 -76.2956L316.512 -81.6268ZM310.192 -93.3046H316.512L319.682 -98.6358L316.512 -103.967H310.192L307.021 -98.6358L310.192 -93.3046ZM316.512 -82.1345L319.682 -87.4657L316.512 -92.7969H310.192L307.021 -87.4657L310.192 -82.1345H316.512ZM306.363 -76.5495H300.042L296.872 -81.8807L300.042 -87.2118H306.363L309.533 -81.8807L306.363 -76.5495ZM296.872 -70.7106L300.042 -76.0417H306.363L309.533 -70.7106L306.363 -65.3794H300.042L296.872 -70.7106ZM306.363 -87.7196H300.042L296.872 -93.0507L300.042 -98.3819H306.363L309.533 -93.0507L306.363 -87.7196ZM215.021 -59.2866H208.701L205.531 -53.9554L208.701 -48.6243H215.021L218.192 -53.9554L215.021 -59.2866ZM225.171 -53.7016H218.85L215.68 -48.3704L218.85 -43.0392H225.171L228.341 -48.3704L225.171 -53.7016ZM235.32 -48.1165H228.999L225.829 -42.7854L228.999 -37.4542H235.32L238.49 -42.7854L235.32 -48.1165ZM245.469 -42.5315H239.148L235.978 -37.2003L239.148 -31.8691H245.469L248.639 -37.2003L245.469 -42.5315ZM255.618 -36.9464H249.297L246.127 -31.6153L249.297 -26.2841H255.618L258.788 -31.6153L255.618 -36.9464ZM265.767 -31.3614H259.446L256.276 -26.0302L259.446 -20.6991H265.767L268.937 -26.0302L265.767 -31.3614ZM205.531 -65.1255L208.701 -59.7943H215.021L218.192 -65.1255L215.021 -70.4567H208.701L205.531 -65.1255ZM215.68 -59.5405L218.85 -54.2093H225.171L228.341 -59.5405L225.171 -64.8717H218.85L215.68 -59.5405ZM225.829 -53.9554L228.999 -48.6243H235.32L238.49 -53.9554L235.32 -59.2866H228.999L225.829 -53.9554ZM235.978 -48.3704L239.148 -43.0392H245.469L248.639 -48.3704L245.469 -53.7016H239.148L235.978 -48.3704ZM246.127 -42.7854L249.297 -37.4542H255.618L258.788 -42.7854L255.618 -48.1165H249.297L246.127 -42.7854ZM256.276 -37.2003L259.446 -31.8691H265.767L268.937 -37.2003L265.767 -42.5315H259.446L256.276 -37.2003ZM265.767 102.172H259.446L256.276 96.8407L259.446 91.5095H265.767L268.937 96.8407L265.767 102.172ZM255.618 96.5868H249.297L246.127 91.2557L249.297 85.9245H255.618L258.788 91.2557L255.618 96.5868ZM245.469 91.0018H239.148L235.978 85.6706L239.148 80.3394H245.469L248.639 85.6706L245.469 91.0018ZM235.32 85.4168H228.999L225.829 80.0856L228.999 74.7544H235.32L238.49 80.0856L235.32 85.4168ZM225.171 79.8317H218.85L215.68 74.5005L218.85 69.1694H225.171L228.341 74.5005L225.171 79.8317ZM215.021 74.2467H208.701L205.531 68.9155L208.701 63.5843H215.021L218.192 68.9155L215.021 74.2467ZM265.767 102.68L268.937 108.011L265.767 113.342H259.446L256.276 108.011L259.446 102.68H265.767ZM255.618 97.0946L258.788 102.426L255.618 107.757H249.297L246.127 102.426L249.297 97.0946H255.618ZM245.469 91.5095L248.639 96.8407L245.469 102.172H239.148L235.978 96.8407L239.148 91.5095H245.469ZM235.32 85.9245L238.49 91.2557L235.32 96.5868H228.999L225.829 91.2557L228.999 85.9245H235.32ZM225.171 80.3394L228.341 85.6706L225.171 91.0018H218.85L215.68 85.6706L218.85 80.3394H225.171ZM215.021 74.7544L218.192 80.0856L215.021 85.4168H208.701L205.531 80.0856L208.701 74.7544H215.021ZM256.276 163.861L259.446 158.53H265.767L268.937 163.861L265.767 169.192H259.446L256.276 163.861ZM245.469 102.68H239.148L235.978 108.011L239.148 113.342H245.469L248.639 108.011L245.469 102.68ZM255.618 108.265L258.788 113.596L255.618 118.927H249.297L246.127 113.596L249.297 108.265H255.618ZM265.767 113.85H259.446L256.276 119.181L259.446 124.512H265.767L268.937 119.181L265.767 113.85ZM239.148 125.02H245.469L248.639 130.351L245.469 135.682H239.148L235.978 130.351L239.148 125.02ZM239.148 124.512L235.978 119.181L239.148 113.85H245.469L248.639 119.181L245.469 124.512H239.148ZM245.469 136.19L248.639 141.521L245.469 146.852H239.148L235.978 141.521L239.148 136.19H245.469ZM255.618 141.775H249.297L246.127 147.106L249.297 152.437H255.618L258.788 147.106L255.618 141.775ZM249.297 130.097H255.618L258.788 124.766L255.618 119.435H249.297L246.127 124.766L249.297 130.097ZM246.127 135.936L249.297 141.267H255.618L258.788 135.936L255.618 130.605H249.297L246.127 135.936ZM265.767 146.852H259.446L256.276 141.521L259.446 136.19H265.767L268.937 141.521L265.767 146.852ZM265.767 147.36L268.937 152.691L265.767 158.022H259.446L256.276 152.691L259.446 147.36H265.767ZM265.767 135.682H259.446L256.276 130.351L259.446 125.02H265.767L268.937 130.351L265.767 135.682ZM245.469 147.36L248.639 152.691L245.469 158.022H239.148L235.978 152.691L239.148 147.36H245.469ZM255.618 152.945H249.297L246.127 158.276L249.297 163.607H255.618L258.788 158.276L255.618 152.945ZM225.829 147.106L228.999 141.775H235.32L238.49 147.106L235.32 152.437H228.999L225.829 147.106ZM215.021 85.9245H208.701L205.531 91.2557L208.701 96.5868H215.021L218.192 91.2557L215.021 85.9245ZM225.171 91.5095L228.341 96.8407L225.171 102.172H218.85L215.68 96.8407L218.85 91.5095H225.171ZM235.32 97.0946H228.999L225.829 102.426L228.999 107.757H235.32L238.49 102.426L235.32 97.0946ZM208.701 108.265H215.021L218.192 113.596L215.021 118.927H208.701L205.531 113.596L208.701 108.265ZM208.701 107.757L205.531 102.426L208.701 97.0946H215.021L218.192 102.426L215.021 107.757H208.701ZM215.021 119.435L218.192 124.766L215.021 130.097H208.701L205.531 124.766L208.701 119.435H215.021ZM225.171 125.02H218.85L215.68 130.351L218.85 135.682H225.171L228.341 130.351L225.171 125.02ZM218.85 113.342H225.171L228.341 108.011L225.171 102.68H218.85L215.68 108.011L218.85 113.342ZM215.68 119.181L218.85 124.512H225.171L228.341 119.181L225.171 113.85H218.85L215.68 119.181ZM235.32 130.097H228.999L225.829 124.766L228.999 119.435H235.32L238.49 124.766L235.32 130.097ZM235.32 130.605L238.49 135.936L235.32 141.267H228.999L225.829 135.936L228.999 130.605H235.32ZM235.32 118.927H228.999L225.829 113.596L228.999 108.265H235.32L238.49 113.596L235.32 118.927ZM215.021 130.605L218.192 135.936L215.021 141.267H208.701L205.531 135.936L208.701 130.605H215.021ZM225.171 136.19H218.85L215.68 141.521L218.85 146.852H225.171L228.341 141.521L225.171 136.19ZM259.446 35.1514H265.767L268.937 29.8202L265.767 24.489H259.446L256.276 29.8202L259.446 35.1514ZM249.297 29.5663H255.618L258.788 24.2352L255.618 18.904H249.297L246.127 24.2352L249.297 29.5663ZM239.148 23.9813H245.469L248.639 18.6501L245.469 13.3189H239.148L235.978 18.6501L239.148 23.9813ZM228.999 18.3962H235.32L238.49 13.0651L235.32 7.73389H228.999L225.829 13.0651L228.999 18.3962ZM218.85 12.8112H225.171L228.341 7.48003L225.171 2.14885H218.85L215.68 7.48003L218.85 12.8112ZM208.701 7.22616H215.021L218.192 1.89498L215.021 -3.43619H208.701L205.531 1.89498L208.701 7.22616ZM268.937 40.9903L265.767 35.6591H259.446L256.276 40.9903L259.446 46.3215H265.767L268.937 40.9903ZM258.788 35.4052L255.618 30.0741H249.297L246.127 35.4052L249.297 40.7364H255.618L258.788 35.4052ZM248.639 29.8202L245.469 24.489H239.148L235.978 29.8202L239.148 35.1514H245.469L248.639 29.8202ZM238.49 24.2352L235.32 18.904H228.999L225.829 24.2352L228.999 29.5663H235.32L238.49 24.2352ZM228.341 18.6501L225.171 13.3189H218.85L215.68 18.6501L218.85 23.9813H225.171L228.341 18.6501ZM218.192 13.0651L215.021 7.73389H208.701L205.531 13.0651L208.701 18.3962H215.021L218.192 13.0651ZM239.148 35.6591H245.469L248.639 40.9903L245.469 46.3215H239.148L235.978 40.9903L239.148 35.6591ZM258.788 46.5753L255.618 41.2441H249.297L246.127 46.5753L249.297 51.9065H255.618L258.788 46.5753ZM259.446 46.8292H265.767L268.937 52.1604L265.767 57.4915H259.446L256.276 52.1604L259.446 46.8292ZM245.469 57.9993H239.148L235.978 63.3305L239.148 68.6616H245.469L248.639 63.3305L245.469 57.9993ZM235.978 52.1604L239.148 57.4915H245.469L248.639 52.1604L245.469 46.8292H239.148L235.978 52.1604ZM248.639 74.5005L245.469 69.1694H239.148L235.978 74.5005L239.148 79.8317H245.469L248.639 74.5005ZM249.297 74.7544H255.618L258.788 80.0856L255.618 85.4168H249.297L246.127 80.0856L249.297 74.7544ZM255.618 63.0766H249.297L246.127 57.7454L249.297 52.4142H255.618L258.788 57.7454L255.618 63.0766ZM249.297 74.2467L246.127 68.9155L249.297 63.5843H255.618L258.788 68.9155L255.618 74.2467H249.297ZM259.446 79.8317H265.767L268.937 74.5005L265.767 69.1694H259.446L256.276 74.5005L259.446 79.8317ZM268.937 85.6706L265.767 80.3394H259.446L256.276 85.6706L259.446 91.0018H265.767L268.937 85.6706ZM259.446 68.6616H265.767L268.937 63.3305L265.767 57.9993H259.446L256.276 63.3305L259.446 68.6616ZM208.701 18.904H215.021L218.192 24.2352L215.021 29.5663H208.701L205.531 24.2352L208.701 18.904ZM228.341 29.8202L225.171 24.489H218.85L215.68 29.8202L218.85 35.1514H225.171L228.341 29.8202ZM228.999 30.0741H235.32L238.49 35.4052L235.32 40.7364H228.999L225.829 35.4052L228.999 30.0741ZM215.021 41.2441H208.701L205.531 46.5753L208.701 51.9065H215.021L218.192 46.5753L215.021 41.2441ZM205.531 35.4052L208.701 40.7364H215.021L218.192 35.4052L215.021 30.0741H208.701L205.531 35.4052ZM218.192 57.7454L215.021 52.4142H208.701L205.531 57.7454L208.701 63.0766H215.021L218.192 57.7454ZM218.85 57.9993H225.171L228.341 63.3305L225.171 68.6616H218.85L215.68 63.3305L218.85 57.9993ZM225.171 46.3215H218.85L215.68 40.9903L218.85 35.6591H225.171L228.341 40.9903L225.171 46.3215ZM218.85 57.4915L215.68 52.1604L218.85 46.8292H225.171L228.341 52.1604L225.171 57.4915H218.85ZM228.999 63.0766H235.32L238.49 57.7454L235.32 52.4142H228.999L225.829 57.7454L228.999 63.0766ZM238.49 68.9155L235.32 63.5843H228.999L225.829 68.9155L228.999 74.2467H235.32L238.49 68.9155ZM228.999 51.9065H235.32L238.49 46.5753L235.32 41.2441H228.999L225.829 46.5753L228.999 51.9065ZM239.148 -31.3614H245.469L248.639 -26.0302L245.469 -20.6991H239.148L235.978 -26.0302L239.148 -31.3614ZM258.788 -20.4452L255.618 -25.7764H249.297L246.127 -20.4452L249.297 -15.114H255.618L258.788 -20.4452ZM259.446 -20.1913H265.767L268.937 -14.8601L265.767 -9.52897H259.446L256.276 -14.8601L259.446 -20.1913ZM245.469 -9.02124H239.148L235.978 -3.69006L239.148 1.64112H245.469L248.639 -3.69006L245.469 -9.02124ZM235.978 -14.8601L239.148 -9.52897H245.469L248.639 -14.8601L245.469 -20.1913H239.148L235.978 -14.8601ZM248.639 7.48003L245.469 2.14885H239.148L235.978 7.48003L239.148 12.8112H245.469L248.639 7.48003ZM249.297 7.73389H255.618L258.788 13.0651L255.618 18.3962H249.297L246.127 13.0651L249.297 7.73389ZM255.618 -3.94392H249.297L246.127 -9.2751L249.297 -14.6063H255.618L258.788 -9.2751L255.618 -3.94392ZM249.297 7.22616L246.127 1.89498L249.297 -3.43619H255.618L258.788 1.89498L255.618 7.22616H249.297ZM259.446 12.8112H265.767L268.937 7.48003L265.767 2.14885H259.446L256.276 7.48003L259.446 12.8112ZM268.937 18.6501L265.767 13.3189H259.446L256.276 18.6501L259.446 23.9813H265.767L268.937 18.6501ZM259.446 1.64112H265.767L268.937 -3.69006L265.767 -9.02124H259.446L256.276 -3.69006L259.446 1.64112ZM208.701 -48.1165H215.021L218.192 -42.7854L215.021 -37.4542H208.701L205.531 -42.7854L208.701 -48.1165ZM228.341 -37.2003L225.171 -42.5315H218.85L215.68 -37.2003L218.85 -31.8691H225.171L228.341 -37.2003ZM228.999 -36.9464H235.32L238.49 -31.6153L235.32 -26.2841H228.999L225.829 -31.6153L228.999 -36.9464ZM215.021 -25.7764H208.701L205.531 -20.4452L208.701 -15.114H215.021L218.192 -20.4452L215.021 -25.7764ZM205.531 -31.6153L208.701 -26.2841H215.021L218.192 -31.6153L215.021 -36.9464H208.701L205.531 -31.6153ZM218.192 -9.2751L215.021 -14.6063H208.701L205.531 -9.2751L208.701 -3.94392H215.021L218.192 -9.2751ZM218.85 -9.02124H225.171L228.341 -3.69006L225.171 1.64112H218.85L215.68 -3.69006L218.85 -9.02124ZM225.171 -20.6991H218.85L215.68 -26.0302L218.85 -31.3614H225.171L228.341 -26.0302L225.171 -20.6991ZM218.85 -9.52897L215.68 -14.8601L218.85 -20.1913H225.171L228.341 -14.8601L225.171 -9.52897H218.85ZM228.999 -3.94392H235.32L238.49 -9.2751L235.32 -14.6063H228.999L225.829 -9.2751L228.999 -3.94392ZM238.49 1.89498L235.32 -3.43619H228.999L225.829 1.89498L228.999 7.22616H235.32L238.49 1.89498ZM228.999 -15.114H235.32L238.49 -20.4452L235.32 -25.7764H228.999L225.829 -20.4452L228.999 -15.114ZM239.148 -98.3819H245.469L248.639 -93.0507L245.469 -87.7196H239.148L235.978 -93.0507L239.148 -98.3819ZM239.148 -98.8896L235.978 -104.221L239.148 -109.552H245.469L248.639 -104.221L245.469 -98.8896H239.148ZM249.297 -93.3046H255.618L258.788 -98.6358L255.618 -103.967H249.297L246.127 -98.6358L249.297 -93.3046ZM258.788 -87.4657L255.618 -92.7969H249.297L246.127 -87.4657L249.297 -82.1345H255.618L258.788 -87.4657ZM259.446 -87.2118H265.767L268.937 -81.8807L265.767 -76.5495H259.446L256.276 -81.8807L259.446 -87.2118ZM259.446 -87.7196L256.276 -93.0507L259.446 -98.3819H265.767L268.937 -93.0507L265.767 -87.7196H259.446ZM245.469 -76.0417H239.148L235.978 -70.7106L239.148 -65.3794H245.469L248.639 -70.7106L245.469 -76.0417ZM235.978 -81.8807L239.148 -76.5495H245.469L248.639 -81.8807L245.469 -87.2118H239.148L235.978 -81.8807ZM248.639 -59.5405L245.469 -64.8717H239.148L235.978 -59.5405L239.148 -54.2093H245.469L248.639 -59.5405ZM249.297 -59.2866H255.618L258.788 -53.9554L255.618 -48.6243H249.297L246.127 -53.9554L249.297 -59.2866ZM255.618 -70.9644H249.297L246.127 -76.2956L249.297 -81.6268H255.618L258.788 -76.2956L255.618 -70.9644ZM249.297 -59.7943L246.127 -65.1255L249.297 -70.4567H255.618L258.788 -65.1255L255.618 -59.7943H249.297ZM259.446 -54.2093H265.767L268.937 -59.5405L265.767 -64.8717H259.446L256.276 -59.5405L259.446 -54.2093ZM268.937 -48.3704L265.767 -53.7016H259.446L256.276 -48.3704L259.446 -43.0392H265.767L268.937 -48.3704ZM259.446 -65.3794H265.767L268.937 -70.7106L265.767 -76.0417H259.446L256.276 -70.7106L259.446 -65.3794ZM208.701 -115.137H215.021L218.192 -109.806L215.021 -104.475H208.701L205.531 -109.806L208.701 -115.137ZM208.701 -115.645L205.531 -120.976L208.701 -126.307H215.021L218.192 -120.976L215.021 -115.645H208.701ZM218.85 -110.06H225.171L228.341 -115.391L225.171 -120.722H218.85L215.68 -115.391L218.85 -110.06ZM228.341 -104.221L225.171 -109.552H218.85L215.68 -104.221L218.85 -98.8896H225.171L228.341 -104.221ZM228.999 -103.967H235.32L238.49 -98.6358L235.32 -93.3046H228.999L225.829 -98.6358L228.999 -103.967ZM228.999 -104.475L225.829 -109.806L228.999 -115.137H235.32L238.49 -109.806L235.32 -104.475H228.999ZM215.021 -92.7969H208.701L205.531 -87.4657L208.701 -82.1345H215.021L218.192 -87.4657L215.021 -92.7969ZM205.531 -98.6358L208.701 -93.3046H215.021L218.192 -98.6358L215.021 -103.967H208.701L205.531 -98.6358ZM218.192 -76.2956L215.021 -81.6268H208.701L205.531 -76.2956L208.701 -70.9644H215.021L218.192 -76.2956ZM218.85 -76.0417H225.171L228.341 -70.7106L225.171 -65.3794H218.85L215.68 -70.7106L218.85 -76.0417ZM225.171 -87.7196H218.85L215.68 -93.0507L218.85 -98.3819H225.171L228.341 -93.0507L225.171 -87.7196ZM218.85 -76.5495L215.68 -81.8807L218.85 -87.2118H225.171L228.341 -81.8807L225.171 -76.5495H218.85ZM228.999 -70.9644H235.32L238.49 -76.2956L235.32 -81.6268H228.999L225.829 -76.2956L228.999 -70.9644ZM238.49 -65.1255L235.32 -70.4567H228.999L225.829 -65.1255L228.999 -59.7943H235.32L238.49 -65.1255ZM228.999 -82.1345H235.32L238.49 -87.4657L235.32 -92.7969H228.999L225.829 -87.4657L228.999 -82.1345Z" fill="url(#paint0_linear_66_5)"/>
</g>
<g style="mix-blend-mode:difference" opacity="0.58">
<path fill-rule="evenodd" clip-rule="evenodd" d="M70.6965 156.515L74.0176 162.1H80.9617L84.2828 156.515H91.1108L94.4319 150.93H101.26L104.581 145.345H111.409L114.73 139.76H121.558L124.879 134.175H131.707L135.179 128.336L131.858 122.751L135.179 117.166L131.858 111.581L135.179 105.996L131.858 100.411L135.179 94.8257L131.858 89.2406L135.179 83.6556L131.858 78.0705L135.179 72.4855L131.858 66.9004L135.179 61.3154L131.858 55.7304L135.179 50.1453L131.858 44.5603L135.179 38.9752L131.858 33.3902L135.179 27.8051L131.858 22.2201L135.179 16.6351L131.858 11.05L135.179 5.46497L131.858 -0.120071L135.179 -5.70511L131.858 -11.2902L135.179 -16.8752L131.858 -22.4602L135.179 -28.0453L131.858 -33.6303L135.179 -39.2154L131.858 -44.8004L135.179 -50.3855L131.858 -55.9705L135.179 -61.5555L131.858 -67.1406L135.179 -72.7256L131.858 -78.3107L135.179 -83.8957L131.858 -89.4808L135.179 -95.0658L131.858 -100.651L135.179 -106.236L131.858 -111.821L135.179 -117.406L131.858 -122.991L135.179 -128.576L131.707 -134.415H124.763L121.442 -128.83H114.614L111.293 -123.245H104.465L101.144 -117.66H94.3158L90.9947 -112.075H84.1667L80.8456 -106.49H74.1338L70.8127 -112.075H63.9847L60.6636 -117.66H53.8356L50.5145 -123.245H43.6865L40.3654 -128.83H33.5374L30.2163 -134.415H23.3883L20.0673 -140H13.1231L9.65109 -134.161L12.9722 -128.576L9.65109 -122.991L12.9722 -117.406L9.65109 -111.821L12.9722 -106.236L9.65109 -100.651L12.9722 -95.0658L9.65109 -89.4808L12.9722 -83.8957L9.65109 -78.3107L12.9722 -72.7256L9.65109 -67.1406L12.9722 -61.5555L9.65109 -55.9705L12.9722 -50.3855L9.65109 -44.8004L12.9722 -39.2154L9.65109 -33.6303L12.9722 -28.0453L9.65109 -22.4602L12.9722 -16.8752L9.65109 -11.2902L12.9722 -5.70511L9.65109 -0.120071L12.9722 5.46497L9.65109 11.05L12.9722 16.6351L9.65109 22.2201L12.9722 27.8051L9.65109 33.3902L12.9722 38.9752L9.65109 44.5603L12.9722 50.1453L9.65109 55.7304L12.9722 61.3154L9.65109 66.9004L12.9722 72.4855L9.65109 78.0705L12.9722 83.6556L9.65109 89.2406L12.9722 94.8257L9.65109 100.411L12.9722 105.996L9.65109 111.581L12.9722 117.166L9.65109 122.751L13.1231 128.59H19.9511L23.2722 134.175H30.1002L33.4213 139.76H40.2493L43.5704 145.345H50.3984L53.7195 150.93H60.5475L63.8686 156.515H70.6965ZM19.7556 -72.4718H13.4348L10.2647 -67.1406L13.4348 -61.8094H19.7556L22.9257 -67.1406L19.7556 -72.4718ZM29.9047 -66.8867H23.5839L20.4138 -61.5555L23.5839 -56.2244H29.9047L33.0748 -61.5555L29.9047 -66.8867ZM40.0537 -61.3017H33.733L30.5628 -55.9705L33.733 -50.6393H40.0537L43.2239 -55.9705L40.0537 -61.3017ZM50.2028 -55.7166H43.8821L40.7119 -50.3855L43.8821 -45.0543H50.2028L53.373 -50.3855L50.2028 -55.7166ZM60.3519 -50.1316H54.0311L50.861 -44.8004L54.0311 -39.4692H60.3519L63.522 -44.8004L60.3519 -50.1316ZM70.501 -44.5465H64.1802L61.0101 -39.2154L64.1802 -33.8842H70.501L73.6711 -39.2154L70.501 -44.5465ZM10.2647 -78.3107L13.4348 -72.9795H19.7556L22.9257 -78.3107L19.7556 -83.6418H13.4348L10.2647 -78.3107ZM20.4138 -72.7256L23.5839 -67.3944H29.9047L33.0748 -72.7256L29.9047 -78.0568H23.5839L20.4138 -72.7256ZM30.5628 -67.1406L33.733 -61.8094H40.0537L43.2239 -67.1406L40.0537 -72.4718H33.733L30.5628 -67.1406ZM40.7119 -61.5555L43.8821 -56.2244H50.2028L53.373 -61.5555L50.2028 -66.8867H43.8821L40.7119 -61.5555ZM50.861 -55.9705L54.0311 -50.6393H60.3519L63.522 -55.9705L60.3519 -61.3017H54.0311L50.861 -55.9705ZM61.0101 -50.3855L64.1802 -45.0543H70.501L73.6711 -50.3855L70.501 -55.7166H64.1802L61.0101 -50.3855ZM70.501 88.9867H64.1802L61.0101 83.6556L64.1802 78.3244H70.501L73.6711 83.6556L70.501 88.9867ZM60.3519 83.4017H54.0311L50.861 78.0705L54.0311 72.7393H60.3519L63.522 78.0705L60.3519 83.4017ZM50.2028 77.8167H43.8821L40.7119 72.4855L43.8821 67.1543H50.2028L53.373 72.4855L50.2028 77.8167ZM40.0537 72.2316H33.733L30.5628 66.9004L33.733 61.5693H40.0537L43.2239 66.9004L40.0537 72.2316ZM29.9047 66.6466H23.5839L20.4138 61.3154L23.5839 55.9842H29.9047L33.0748 61.3154L29.9047 66.6466ZM19.7556 61.0615H13.4348L10.2647 55.7304L13.4348 50.3992H19.7556L22.9257 55.7304L19.7556 61.0615ZM70.501 89.4945L73.6711 94.8257L70.501 100.157H64.1802L61.0101 94.8257L64.1802 89.4945H70.501ZM60.3519 83.9094L63.522 89.2406L60.3519 94.5718H54.0311L50.861 89.2406L54.0311 83.9094H60.3519ZM50.2028 78.3244L53.373 83.6556L50.2028 88.9867H43.8821L40.7119 83.6556L43.8821 78.3244H50.2028ZM40.0537 72.7393L43.2239 78.0705L40.0537 83.4017H33.733L30.5628 78.0705L33.733 72.7393H40.0537ZM29.9047 67.1543L33.0748 72.4855L29.9047 77.8167H23.5839L20.4138 72.4855L23.5839 67.1543H29.9047ZM19.7556 61.5693L22.9257 66.9004L19.7556 72.2316H13.4348L10.2647 66.9004L13.4348 61.5693H19.7556ZM61.0101 150.676L64.1802 145.345H70.501L73.6711 150.676L70.501 156.007H64.1802L61.0101 150.676ZM50.2028 89.4945H43.8821L40.7119 94.8257L43.8821 100.157H50.2028L53.373 94.8257L50.2028 89.4945ZM60.3519 95.0795L63.522 100.411L60.3519 105.742H54.0311L50.861 100.411L54.0311 95.0795H60.3519ZM70.501 100.665H64.1802L61.0101 105.996L64.1802 111.327H70.501L73.6711 105.996L70.501 100.665ZM43.8821 111.835H50.2028L53.373 117.166L50.2028 122.497H43.8821L40.7119 117.166L43.8821 111.835ZM43.8821 111.327L40.7119 105.996L43.8821 100.665H50.2028L53.373 105.996L50.2028 111.327H43.8821ZM50.2028 123.005L53.373 128.336L50.2028 133.667H43.8821L40.7119 128.336L43.8821 123.005H50.2028ZM60.3519 128.59H54.0311L50.861 133.921L54.0311 139.252H60.3519L63.522 133.921L60.3519 128.59ZM54.0311 116.912H60.3519L63.522 111.581L60.3519 106.25H54.0311L50.861 111.581L54.0311 116.912ZM50.861 122.751L54.0311 128.082H60.3519L63.522 122.751L60.3519 117.42H54.0311L50.861 122.751ZM70.501 133.667H64.1802L61.0101 128.336L64.1802 123.005H70.501L73.6711 128.336L70.501 133.667ZM70.501 134.175L73.6711 139.506L70.501 144.837H64.1802L61.0101 139.506L64.1802 134.175H70.501ZM70.501 122.497H64.1802L61.0101 117.166L64.1802 111.835H70.501L73.6711 117.166L70.501 122.497ZM50.2028 134.175L53.373 139.506L50.2028 144.837H43.8821L40.7119 139.506L43.8821 134.175H50.2028ZM60.3519 139.76H54.0311L50.861 145.091L54.0311 150.422H60.3519L63.522 145.091L60.3519 139.76ZM30.5628 133.921L33.733 128.59H40.0537L43.2239 133.921L40.0537 139.252H33.733L30.5628 133.921ZM19.7556 72.7393H13.4348L10.2647 78.0705L13.4348 83.4017H19.7556L22.9257 78.0705L19.7556 72.7393ZM29.9047 78.3244L33.0748 83.6556L29.9047 88.9867H23.5839L20.4138 83.6556L23.5839 78.3244H29.9047ZM40.0537 83.9094H33.733L30.5628 89.2406L33.733 94.5718H40.0537L43.2239 89.2406L40.0537 83.9094ZM13.4348 95.0795H19.7556L22.9257 100.411L19.7556 105.742H13.4348L10.2647 100.411L13.4348 95.0795ZM13.4348 94.5718L10.2647 89.2406L13.4348 83.9094H19.7556L22.9257 89.2406L19.7556 94.5718H13.4348ZM19.7556 106.25L22.9257 111.581L19.7556 116.912H13.4348L10.2647 111.581L13.4348 106.25H19.7556ZM29.9047 111.835H23.5839L20.4138 117.166L23.5839 122.497H29.9047L33.0748 117.166L29.9047 111.835ZM23.5839 100.157H29.9047L33.0748 94.8257L29.9047 89.4945H23.5839L20.4138 94.8257L23.5839 100.157ZM20.4138 105.996L23.5839 111.327H29.9047L33.0748 105.996L29.9047 100.665H23.5839L20.4138 105.996ZM40.0537 116.912H33.733L30.5628 111.581L33.733 106.25H40.0537L43.2239 111.581L40.0537 116.912ZM40.0537 117.42L43.2239 122.751L40.0537 128.082H33.733L30.5628 122.751L33.733 117.42H40.0537ZM40.0537 105.742H33.733L30.5628 100.411L33.733 95.0795H40.0537L43.2239 100.411L40.0537 105.742ZM19.7556 117.42L22.9257 122.751L19.7556 128.082H13.4348L10.2647 122.751L13.4348 117.42H19.7556ZM29.9047 123.005H23.5839L20.4138 128.336L23.5839 133.667H29.9047L33.0748 128.336L29.9047 123.005ZM64.1802 21.9662H70.501L73.6711 16.6351L70.501 11.3039H64.1802L61.0101 16.6351L64.1802 21.9662ZM54.0311 16.3812H60.3519L63.522 11.05L60.3519 5.71884H54.0311L50.861 11.05L54.0311 16.3812ZM43.8821 10.7961H50.2028L53.373 5.46497L50.2028 0.133795H43.8821L40.7119 5.46497L43.8821 10.7961ZM33.733 5.21111H40.0537L43.2239 -0.120071L40.0537 -5.45125H33.733L30.5628 -0.120071L33.733 5.21111ZM23.5839 -0.373937H29.9047L33.0748 -5.70511L29.9047 -11.0363H23.5839L20.4138 -5.70511L23.5839 -0.373937ZM13.4348 -5.95898H19.7556L22.9257 -11.2902L19.7556 -16.6213H13.4348L10.2647 -11.2902L13.4348 -5.95898ZM73.6711 27.8051L70.501 22.474H64.1802L61.0101 27.8051L64.1802 33.1363H70.501L73.6711 27.8051ZM63.522 22.2201L60.3519 16.8889H54.0311L50.861 22.2201L54.0311 27.5513H60.3519L63.522 22.2201ZM53.373 16.6351L50.2028 11.3039H43.8821L40.7119 16.6351L43.8821 21.9662H50.2028L53.373 16.6351ZM43.2239 11.05L40.0537 5.71884H33.733L30.5628 11.05L33.733 16.3812H40.0537L43.2239 11.05ZM33.0748 5.46497L29.9047 0.133795H23.5839L20.4138 5.46497L23.5839 10.7961H29.9047L33.0748 5.46497ZM22.9257 -0.120071L19.7556 -5.45125H13.4348L10.2647 -0.120071L13.4348 5.21111H19.7556L22.9257 -0.120071ZM43.8821 22.474H50.2028L53.373 27.8051L50.2028 33.1363H43.8821L40.7119 27.8051L43.8821 22.474ZM63.522 33.3902L60.3519 28.059H54.0311L50.861 33.3902L54.0311 38.7214H60.3519L63.522 33.3902ZM64.1802 33.644H70.501L73.6711 38.9752L70.501 44.3064H64.1802L61.0101 38.9752L64.1802 33.644ZM50.2028 44.8141H43.8821L40.7119 50.1453L43.8821 55.4765H50.2028L53.373 50.1453L50.2028 44.8141ZM40.7119 38.9752L43.8821 44.3064H50.2028L53.373 38.9752L50.2028 33.644H43.8821L40.7119 38.9752ZM53.373 61.3154L50.2028 55.9842H43.8821L40.7119 61.3154L43.8821 66.6466H50.2028L53.373 61.3154ZM54.0311 61.5693H60.3519L63.522 66.9004L60.3519 72.2316H54.0311L50.861 66.9004L54.0311 61.5693ZM60.3519 49.8914H54.0311L50.861 44.5603L54.0311 39.2291H60.3519L63.522 44.5603L60.3519 49.8914ZM54.0311 61.0615L50.861 55.7304L54.0311 50.3992H60.3519L63.522 55.7304L60.3519 61.0615H54.0311ZM64.1802 66.6466H70.501L73.6711 61.3154L70.501 55.9842H64.1802L61.0101 61.3154L64.1802 66.6466ZM73.6711 72.4855L70.501 67.1543H64.1802L61.0101 72.4855L64.1802 77.8167H70.501L73.6711 72.4855ZM64.1802 55.4765H70.501L73.6711 50.1453L70.501 44.8141H64.1802L61.0101 50.1453L64.1802 55.4765ZM13.4348 5.71884H19.7556L22.9257 11.05L19.7556 16.3812H13.4348L10.2647 11.05L13.4348 5.71884ZM33.0748 16.6351L29.9047 11.3039H23.5839L20.4138 16.6351L23.5839 21.9662H29.9047L33.0748 16.6351ZM33.733 16.8889H40.0537L43.2239 22.2201L40.0537 27.5513H33.733L30.5628 22.2201L33.733 16.8889ZM19.7556 28.059H13.4348L10.2647 33.3902L13.4348 38.7214H19.7556L22.9257 33.3902L19.7556 28.059ZM10.2647 22.2201L13.4348 27.5513H19.7556L22.9257 22.2201L19.7556 16.8889H13.4348L10.2647 22.2201ZM22.9257 44.5603L19.7556 39.2291H13.4348L10.2647 44.5603L13.4348 49.8914H19.7556L22.9257 44.5603ZM23.5839 44.8141H29.9047L33.0748 50.1453L29.9047 55.4765H23.5839L20.4138 50.1453L23.5839 44.8141ZM29.9047 33.1363H23.5839L20.4138 27.8051L23.5839 22.474H29.9047L33.0748 27.8051L29.9047 33.1363ZM23.5839 44.3064L20.4138 38.9752L23.5839 33.644H29.9047L33.0748 38.9752L29.9047 44.3064H23.5839ZM33.733 49.8914H40.0537L43.2239 44.5603L40.0537 39.2291H33.733L30.5628 44.5603L33.733 49.8914ZM43.2239 55.7304L40.0537 50.3992H33.733L30.5628 55.7304L33.733 61.0615H40.0537L43.2239 55.7304ZM33.733 38.7214H40.0537L43.2239 33.3902L40.0537 28.059H33.733L30.5628 33.3902L33.733 38.7214ZM43.8821 -44.5465H50.2028L53.373 -39.2154L50.2028 -33.8842H43.8821L40.7119 -39.2154L43.8821 -44.5465ZM63.522 -33.6303L60.3519 -38.9615H54.0311L50.861 -33.6303L54.0311 -28.2991H60.3519L63.522 -33.6303ZM64.1802 -33.3765H70.501L73.6711 -28.0453L70.501 -22.7141H64.1802L61.0101 -28.0453L64.1802 -33.3765ZM50.2028 -22.2064H43.8821L40.7119 -16.8752L43.8821 -11.544H50.2028L53.373 -16.8752L50.2028 -22.2064ZM40.7119 -28.0453L43.8821 -22.7141H50.2028L53.373 -28.0453L50.2028 -33.3765H43.8821L40.7119 -28.0453ZM53.373 -5.70511L50.2028 -11.0363H43.8821L40.7119 -5.70511L43.8821 -0.373937H50.2028L53.373 -5.70511ZM54.0311 -5.45125H60.3519L63.522 -0.120071L60.3519 5.21111H54.0311L50.861 -0.120071L54.0311 -5.45125ZM60.3519 -17.1291H54.0311L50.861 -22.4602L54.0311 -27.7914H60.3519L63.522 -22.4602L60.3519 -17.1291ZM54.0311 -5.95898L50.861 -11.2902L54.0311 -16.6213H60.3519L63.522 -11.2902L60.3519 -5.95898H54.0311ZM64.1802 -0.373937H70.501L73.6711 -5.70511L70.501 -11.0363H64.1802L61.0101 -5.70511L64.1802 -0.373937ZM73.6711 5.46497L70.501 0.133795H64.1802L61.0101 5.46497L64.1802 10.7961H70.501L73.6711 5.46497ZM64.1802 -11.544H70.501L73.6711 -16.8752L70.501 -22.2064H64.1802L61.0101 -16.8752L64.1802 -11.544ZM13.4348 -61.3017H19.7556L22.9257 -55.9705L19.7556 -50.6393H13.4348L10.2647 -55.9705L13.4348 -61.3017ZM33.0748 -50.3855L29.9047 -55.7166H23.5839L20.4138 -50.3855L23.5839 -45.0543H29.9047L33.0748 -50.3855ZM33.733 -50.1316H40.0537L43.2239 -44.8004L40.0537 -39.4692H33.733L30.5628 -44.8004L33.733 -50.1316ZM19.7556 -38.9615H13.4348L10.2647 -33.6303L13.4348 -28.2991H19.7556L22.9257 -33.6303L19.7556 -38.9615ZM10.2647 -44.8004L13.4348 -39.4692H19.7556L22.9257 -44.8004L19.7556 -50.1316H13.4348L10.2647 -44.8004ZM22.9257 -22.4602L19.7556 -27.7914H13.4348L10.2647 -22.4602L13.4348 -17.1291H19.7556L22.9257 -22.4602ZM23.5839 -22.2064H29.9047L33.0748 -16.8752L29.9047 -11.544H23.5839L20.4138 -16.8752L23.5839 -22.2064ZM29.9047 -33.8842H23.5839L20.4138 -39.2154L23.5839 -44.5465H29.9047L33.0748 -39.2154L29.9047 -33.8842ZM23.5839 -22.7141L20.4138 -28.0453L23.5839 -33.3765H29.9047L33.0748 -28.0453L29.9047 -22.7141H23.5839ZM33.733 -17.1291H40.0537L43.2239 -22.4602L40.0537 -27.7914H33.733L30.5628 -22.4602L33.733 -17.1291ZM43.2239 -11.2902L40.0537 -16.6213H33.733L30.5628 -11.2902L33.733 -5.95898H40.0537L43.2239 -11.2902ZM33.733 -28.2991H40.0537L43.2239 -33.6303L40.0537 -38.9615H33.733L30.5628 -33.6303L33.733 -28.2991ZM43.8821 -111.567H50.2028L53.373 -106.236L50.2028 -100.905H43.8821L40.7119 -106.236L43.8821 -111.567ZM43.8821 -112.075L40.7119 -117.406L43.8821 -122.737H50.2028L53.373 -117.406L50.2028 -112.075H43.8821ZM54.0311 -106.49H60.3519L63.522 -111.821L60.3519 -117.152H54.0311L50.861 -111.821L54.0311 -106.49ZM63.522 -100.651L60.3519 -105.982H54.0311L50.861 -100.651L54.0311 -95.3197H60.3519L63.522 -100.651ZM64.1802 -100.397H70.501L73.6711 -95.0658L70.501 -89.7346H64.1802L61.0101 -95.0658L64.1802 -100.397ZM64.1802 -100.905L61.0101 -106.236L64.1802 -111.567H70.501L73.6711 -106.236L70.501 -100.905H64.1802ZM50.2028 -89.2269H43.8821L40.7119 -83.8957L43.8821 -78.5645H50.2028L53.373 -83.8957L50.2028 -89.2269ZM40.7119 -95.0658L43.8821 -89.7346H50.2028L53.373 -95.0658L50.2028 -100.397H43.8821L40.7119 -95.0658ZM53.373 -72.7256L50.2028 -78.0568H43.8821L40.7119 -72.7256L43.8821 -67.3944H50.2028L53.373 -72.7256ZM54.0311 -72.4718H60.3519L63.522 -67.1406L60.3519 -61.8094H54.0311L50.861 -67.1406L54.0311 -72.4718ZM60.3519 -84.1496H54.0311L50.861 -89.4808L54.0311 -94.8119H60.3519L63.522 -89.4808L60.3519 -84.1496ZM54.0311 -72.9795L50.861 -78.3107L54.0311 -83.6418H60.3519L63.522 -78.3107L60.3519 -72.9795H54.0311ZM64.1802 -67.3944H70.501L73.6711 -72.7256L70.501 -78.0568H64.1802L61.0101 -72.7256L64.1802 -67.3944ZM73.6711 -61.5555L70.501 -66.8867H64.1802L61.0101 -61.5555L64.1802 -56.2244H70.501L73.6711 -61.5555ZM64.1802 -78.5645H70.501L73.6711 -83.8957L70.501 -89.2269H64.1802L61.0101 -83.8957L64.1802 -78.5645ZM13.4348 -128.322H19.7556L22.9257 -122.991L19.7556 -117.66H13.4348L10.2647 -122.991L13.4348 -128.322ZM13.4348 -128.83L10.2647 -134.161L13.4348 -139.492H19.7556L22.9257 -134.161L19.7556 -128.83H13.4348ZM23.5839 -123.245H29.9047L33.0748 -128.576L29.9047 -133.907H23.5839L20.4138 -128.576L23.5839 -123.245ZM33.0748 -117.406L29.9047 -122.737H23.5839L20.4138 -117.406L23.5839 -112.075H29.9047L33.0748 -117.406ZM33.733 -117.152H40.0537L43.2239 -111.821L40.0537 -106.49H33.733L30.5628 -111.821L33.733 -117.152ZM33.733 -117.66L30.5628 -122.991L33.733 -128.322H40.0537L43.2239 -122.991L40.0537 -117.66H33.733ZM19.7556 -105.982H13.4348L10.2647 -100.651L13.4348 -95.3197H19.7556L22.9257 -100.651L19.7556 -105.982ZM10.2647 -111.821L13.4348 -106.49H19.7556L22.9257 -111.821L19.7556 -117.152H13.4348L10.2647 -111.821ZM22.9257 -89.4808L19.7556 -94.8119H13.4348L10.2647 -89.4808L13.4348 -84.1496H19.7556L22.9257 -89.4808ZM23.5839 -89.2269H29.9047L33.0748 -83.8957L29.9047 -78.5645H23.5839L20.4138 -83.8957L23.5839 -89.2269ZM29.9047 -100.905H23.5839L20.4138 -106.236L23.5839 -111.567H29.9047L33.0748 -106.236L29.9047 -100.905ZM23.5839 -89.7346L20.4138 -95.0658L23.5839 -100.397H29.9047L33.0748 -95.0658L29.9047 -89.7346H23.5839ZM33.733 -84.1496H40.0537L43.2239 -89.4808L40.0537 -94.8119H33.733L30.5628 -89.4808L33.733 -84.1496ZM43.2239 -78.3107L40.0537 -83.6418H33.733L30.5628 -78.3107L33.733 -72.9795H40.0537L43.2239 -78.3107ZM33.733 -95.3197H40.0537L43.2239 -100.651L40.0537 -105.982H33.733L30.5628 -100.651L33.733 -95.3197ZM125.075 -66.8867H131.395L134.566 -61.5555L131.395 -56.2244H125.075L121.905 -61.5555L125.075 -66.8867ZM114.926 -61.3017H121.246L124.417 -55.9705L121.246 -50.6393H114.926L111.755 -55.9705L114.926 -61.3017ZM104.777 -55.7166H111.097L114.267 -50.3855L111.097 -45.0543H104.777L101.606 -50.3855L104.777 -55.7166ZM94.6275 -50.1316H100.948L104.118 -44.8004L100.948 -39.4692H94.6275L91.4573 -44.8004L94.6275 -50.1316ZM84.4784 -44.5465H90.7992L93.9693 -39.2154L90.7992 -33.8842H84.4784L81.3082 -39.2154L84.4784 -44.5465ZM74.3293 -38.9615H80.6501L83.8202 -33.6303L80.6501 -28.2991H74.3293L71.1592 -33.6303L74.3293 -38.9615ZM134.566 -72.7256L131.395 -67.3944H125.075L121.905 -72.7256L125.075 -78.0568H131.395L134.566 -72.7256ZM124.417 -67.1406L121.246 -61.8094H114.926L111.755 -67.1406L114.926 -72.4718H121.246L124.417 -67.1406ZM114.267 -61.5555L111.097 -56.2244H104.777L101.606 -61.5555L104.777 -66.8867H111.097L114.267 -61.5555ZM104.118 -55.9705L100.948 -50.6393H94.6275L91.4573 -55.9705L94.6275 -61.3017H100.948L104.118 -55.9705ZM93.9693 -50.3855L90.7992 -45.0543H84.4784L81.3082 -50.3855L84.4784 -55.7166H90.7992L93.9693 -50.3855ZM83.8202 -44.8004L80.6501 -39.4692H74.3293L71.1592 -44.8004L74.3293 -50.1316H80.6501L83.8202 -44.8004ZM74.3293 94.5718H80.6501L83.8202 89.2406L80.6501 83.9094H74.3293L71.1592 89.2406L74.3293 94.5718ZM84.4784 88.9867H90.7992L93.9693 83.6556L90.7992 78.3244H84.4784L81.3082 83.6556L84.4784 88.9867ZM94.6275 83.4017H100.948L104.118 78.0705L100.948 72.7393H94.6275L91.4573 78.0705L94.6275 83.4017ZM104.777 77.8167H111.097L114.267 72.4855L111.097 67.1543H104.777L101.606 72.4855L104.777 77.8167ZM114.926 72.2316H121.246L124.417 66.9004L121.246 61.5693H114.926L111.755 66.9004L114.926 72.2316ZM125.075 66.6466H131.395L134.566 61.3154L131.395 55.9842H125.075L121.905 61.3154L125.075 66.6466ZM74.3293 95.0795L71.1592 100.411L74.3293 105.742H80.6501L83.8202 100.411L80.6501 95.0795H74.3293ZM84.4784 89.4945L81.3082 94.8257L84.4784 100.157H90.7992L93.9693 94.8257L90.7992 89.4945H84.4784ZM94.6275 83.9094L91.4573 89.2406L94.6275 94.5718H100.948L104.118 89.2406L100.948 83.9094H94.6275ZM104.777 78.3244L101.606 83.6556L104.777 88.9867H111.097L114.267 83.6556L111.097 78.3244H104.777ZM114.926 72.7393L111.755 78.0705L114.926 83.4017H121.246L124.417 78.0705L121.246 72.7393H114.926ZM125.075 67.1543L121.905 72.4855L125.075 77.8167H131.395L134.566 72.4855L131.395 67.1543H125.075ZM83.8202 156.261L80.6501 150.93H74.3293L71.1592 156.261L74.3293 161.592H80.6501L83.8202 156.261ZM94.6275 95.0795H100.948L104.118 100.411L100.948 105.742H94.6275L91.4573 100.411L94.6275 95.0795ZM84.4784 100.665L81.3082 105.996L84.4784 111.327H90.7992L93.9693 105.996L90.7992 100.665H84.4784ZM74.3293 106.25H80.6501L83.8202 111.581L80.6501 116.912H74.3293L71.1592 111.581L74.3293 106.25ZM100.948 117.42H94.6275L91.4573 122.751L94.6275 128.082H100.948L104.118 122.751L100.948 117.42ZM100.948 116.912L104.118 111.581L100.948 106.25H94.6275L91.4573 111.581L94.6275 116.912H100.948ZM94.6275 128.59L91.4573 133.921L94.6275 139.252H100.948L104.118 133.921L100.948 128.59H94.6275ZM84.4784 134.175H90.7992L93.9693 139.506L90.7992 144.837H84.4784L81.3082 139.506L84.4784 134.175ZM90.7992 122.497H84.4784L81.3082 117.166L84.4784 111.835H90.7992L93.9693 117.166L90.7992 122.497ZM93.9693 128.336L90.7992 133.667H84.4784L81.3082 128.336L84.4784 123.005H90.7992L93.9693 128.336ZM74.3293 139.252H80.6501L83.8202 133.921L80.6501 128.59H74.3293L71.1592 133.921L74.3293 139.252ZM74.3293 139.76L71.1592 145.091L74.3293 150.422H80.6501L83.8202 145.091L80.6501 139.76H74.3293ZM74.3293 128.082H80.6501L83.8202 122.751L80.6501 117.42H74.3293L71.1592 122.751L74.3293 128.082ZM94.6275 139.76L91.4573 145.091L94.6275 150.422H100.948L104.118 145.091L100.948 139.76H94.6275ZM84.4784 145.345H90.7992L93.9693 150.676L90.7992 156.007H84.4784L81.3082 150.676L84.4784 145.345ZM114.267 139.506L111.097 134.175H104.777L101.606 139.506L104.777 144.837H111.097L114.267 139.506ZM125.075 78.3244H131.395L134.566 83.6556L131.395 88.9867H125.075L121.905 83.6556L125.075 78.3244ZM114.926 83.9094L111.755 89.2406L114.926 94.5718H121.246L124.417 89.2406L121.246 83.9094H114.926ZM104.777 89.4945H111.097L114.267 94.8257L111.097 100.157H104.777L101.606 94.8257L104.777 89.4945ZM131.395 100.665H125.075L121.905 105.996L125.075 111.327H131.395L134.566 105.996L131.395 100.665ZM131.395 100.157L134.566 94.8257L131.395 89.4945H125.075L121.905 94.8257L125.075 100.157H131.395ZM125.075 111.835L121.905 117.166L125.075 122.497H131.395L134.566 117.166L131.395 111.835H125.075ZM114.926 117.42H121.246L124.417 122.751L121.246 128.082H114.926L111.755 122.751L114.926 117.42ZM121.246 105.742H114.926L111.755 100.411L114.926 95.0795H121.246L124.417 100.411L121.246 105.742ZM124.417 111.581L121.246 116.912H114.926L111.755 111.581L114.926 106.25H121.246L124.417 111.581ZM104.777 122.497H111.097L114.267 117.166L111.097 111.835H104.777L101.606 117.166L104.777 122.497ZM104.777 123.005L101.606 128.336L104.777 133.667H111.097L114.267 128.336L111.097 123.005H104.777ZM104.777 111.327H111.097L114.267 105.996L111.097 100.665H104.777L101.606 105.996L104.777 111.327ZM125.075 123.005L121.905 128.336L125.075 133.667H131.395L134.566 128.336L131.395 123.005H125.075ZM114.926 128.59H121.246L124.417 133.921L121.246 139.252H114.926L111.755 133.921L114.926 128.59ZM80.6501 27.5513H74.3293L71.1592 22.2201L74.3293 16.8889H80.6501L83.8202 22.2201L80.6501 27.5513ZM90.7992 21.9662H84.4784L81.3082 16.6351L84.4784 11.3039H90.7992L93.9693 16.6351L90.7992 21.9662ZM100.948 16.3812H94.6275L91.4573 11.05L94.6275 5.71884H100.948L104.118 11.05L100.948 16.3812ZM111.097 10.7961H104.777L101.606 5.46497L104.777 0.133795H111.097L114.267 5.46497L111.097 10.7961ZM121.246 5.21111H114.926L111.755 -0.120071L114.926 -5.45125H121.246L124.417 -0.120071L121.246 5.21111ZM131.395 -0.373937H125.075L121.905 -5.70511L125.075 -11.0363H131.395L134.566 -5.70511L131.395 -0.373937ZM71.1592 33.3902L74.3293 28.059H80.6501L83.8202 33.3902L80.6501 38.7214H74.3293L71.1592 33.3902ZM81.3082 27.8051L84.4784 22.474H90.7992L93.9693 27.8051L90.7992 33.1363H84.4784L81.3082 27.8051ZM91.4573 22.2201L94.6275 16.8889H100.948L104.118 22.2201L100.948 27.5513H94.6275L91.4573 22.2201ZM101.606 16.6351L104.777 11.3039H111.097L114.267 16.6351L111.097 21.9662H104.777L101.606 16.6351ZM111.755 11.05L114.926 5.71884H121.246L124.417 11.05L121.246 16.3812H114.926L111.755 11.05ZM121.905 5.46497L125.075 0.133795H131.395L134.566 5.46497L131.395 10.7961H125.075L121.905 5.46497ZM100.948 28.059H94.6275L91.4573 33.3902L94.6275 38.7214H100.948L104.118 33.3902L100.948 28.059ZM81.3082 38.9752L84.4784 33.644H90.7992L93.9693 38.9752L90.7992 44.3064H84.4784L81.3082 38.9752ZM80.6501 39.2291H74.3293L71.1592 44.5603L74.3293 49.8914H80.6501L83.8202 44.5603L80.6501 39.2291ZM94.6275 50.3992H100.948L104.118 55.7304L100.948 61.0615H94.6275L91.4573 55.7304L94.6275 50.3992ZM104.118 44.5603L100.948 49.8914H94.6275L91.4573 44.5603L94.6275 39.2291H100.948L104.118 44.5603ZM91.4573 66.9004L94.6275 61.5693H100.948L104.118 66.9004L100.948 72.2316H94.6275L91.4573 66.9004ZM90.7992 67.1543H84.4784L81.3082 72.4855L84.4784 77.8167H90.7992L93.9693 72.4855L90.7992 67.1543ZM84.4784 55.4765H90.7992L93.9693 50.1453L90.7992 44.8141H84.4784L81.3082 50.1453L84.4784 55.4765ZM90.7992 66.6466L93.9693 61.3154L90.7992 55.9842H84.4784L81.3082 61.3154L84.4784 66.6466H90.7992ZM80.6501 72.2316H74.3293L71.1592 66.9004L74.3293 61.5693H80.6501L83.8202 66.9004L80.6501 72.2316ZM71.1592 78.0705L74.3293 72.7393H80.6501L83.8202 78.0705L80.6501 83.4017H74.3293L71.1592 78.0705ZM80.6501 61.0615H74.3293L71.1592 55.7304L74.3293 50.3992H80.6501L83.8202 55.7304L80.6501 61.0615ZM131.395 11.3039H125.075L121.905 16.6351L125.075 21.9662H131.395L134.566 16.6351L131.395 11.3039ZM111.755 22.2201L114.926 16.8889H121.246L124.417 22.2201L121.246 27.5513H114.926L111.755 22.2201ZM111.097 22.474H104.777L101.606 27.8051L104.777 33.1363H111.097L114.267 27.8051L111.097 22.474ZM125.075 33.644H131.395L134.566 38.9752L131.395 44.3064H125.075L121.905 38.9752L125.075 33.644ZM134.566 27.8051L131.395 33.1363H125.075L121.905 27.8051L125.075 22.474H131.395L134.566 27.8051ZM121.905 50.1453L125.075 44.8141H131.395L134.566 50.1453L131.395 55.4765H125.075L121.905 50.1453ZM121.246 50.3992H114.926L111.755 55.7304L114.926 61.0615H121.246L124.417 55.7304L121.246 50.3992ZM114.926 38.7214H121.246L124.417 33.3902L121.246 28.059H114.926L111.755 33.3902L114.926 38.7214ZM121.246 49.8914L124.417 44.5603L121.246 39.2291H114.926L111.755 44.5603L114.926 49.8914H121.246ZM111.097 55.4765H104.777L101.606 50.1453L104.777 44.8141H111.097L114.267 50.1453L111.097 55.4765ZM101.606 61.3154L104.777 55.9842H111.097L114.267 61.3154L111.097 66.6466H104.777L101.606 61.3154ZM111.097 44.3064H104.777L101.606 38.9752L104.777 33.644H111.097L114.267 38.9752L111.097 44.3064ZM100.948 -38.9615H94.6275L91.4573 -33.6303L94.6275 -28.2991H100.948L104.118 -33.6303L100.948 -38.9615ZM81.3082 -28.0453L84.4784 -33.3765H90.7992L93.9693 -28.0453L90.7992 -22.7141H84.4784L81.3082 -28.0453ZM80.6501 -27.7914H74.3293L71.1592 -22.4602L74.3293 -17.1291H80.6501L83.8202 -22.4602L80.6501 -27.7914ZM94.6275 -16.6213H100.948L104.118 -11.2902L100.948 -5.95898H94.6275L91.4573 -11.2902L94.6275 -16.6213ZM104.118 -22.4602L100.948 -17.1291H94.6275L91.4573 -22.4602L94.6275 -27.7914H100.948L104.118 -22.4602ZM91.4573 -0.120071L94.6275 -5.45125H100.948L104.118 -0.120071L100.948 5.21111H94.6275L91.4573 -0.120071ZM90.7992 0.133795H84.4784L81.3082 5.46497L84.4784 10.7961H90.7992L93.9693 5.46497L90.7992 0.133795ZM84.4784 -11.544H90.7992L93.9693 -16.8752L90.7992 -22.2064H84.4784L81.3082 -16.8752L84.4784 -11.544ZM90.7992 -0.373937L93.9693 -5.70511L90.7992 -11.0363H84.4784L81.3082 -5.70511L84.4784 -0.373937H90.7992ZM80.6501 5.21111H74.3293L71.1592 -0.120071L74.3293 -5.45125H80.6501L83.8202 -0.120071L80.6501 5.21111ZM71.1592 11.05L74.3293 5.71884H80.6501L83.8202 11.05L80.6501 16.3812H74.3293L71.1592 11.05ZM80.6501 -5.95898H74.3293L71.1592 -11.2902L74.3293 -16.6213H80.6501L83.8202 -11.2902L80.6501 -5.95898ZM131.395 -55.7166H125.075L121.905 -50.3855L125.075 -45.0543H131.395L134.566 -50.3855L131.395 -55.7166ZM111.755 -44.8004L114.926 -50.1316H121.246L124.417 -44.8004L121.246 -39.4692H114.926L111.755 -44.8004ZM111.097 -44.5465H104.777L101.606 -39.2154L104.777 -33.8842H111.097L114.267 -39.2154L111.097 -44.5465ZM125.075 -33.3765H131.395L134.566 -28.0453L131.395 -22.7141H125.075L121.905 -28.0453L125.075 -33.3765ZM134.566 -39.2154L131.395 -33.8842H125.075L121.905 -39.2154L125.075 -44.5465H131.395L134.566 -39.2154ZM121.905 -16.8752L125.075 -22.2064H131.395L134.566 -16.8752L131.395 -11.544H125.075L121.905 -16.8752ZM121.246 -16.6213H114.926L111.755 -11.2902L114.926 -5.95898H121.246L124.417 -11.2902L121.246 -16.6213ZM114.926 -28.2991H121.246L124.417 -33.6303L121.246 -38.9615H114.926L111.755 -33.6303L114.926 -28.2991ZM121.246 -17.1291L124.417 -22.4602L121.246 -27.7914H114.926L111.755 -22.4602L114.926 -17.1291H121.246ZM111.097 -11.544H104.777L101.606 -16.8752L104.777 -22.2064H111.097L114.267 -16.8752L111.097 -11.544ZM101.606 -5.70511L104.777 -11.0363H111.097L114.267 -5.70511L111.097 -0.373937H104.777L101.606 -5.70511ZM111.097 -22.7141H104.777L101.606 -28.0453L104.777 -33.3765H111.097L114.267 -28.0453L111.097 -22.7141ZM100.948 -105.982H94.6275L91.4573 -100.651L94.6275 -95.3197H100.948L104.118 -100.651L100.948 -105.982ZM100.948 -106.49L104.118 -111.821L100.948 -117.152H94.6275L91.4573 -111.821L94.6275 -106.49H100.948ZM90.7992 -100.905H84.4784L81.3082 -106.236L84.4784 -111.567H90.7992L93.9693 -106.236L90.7992 -100.905ZM81.3082 -95.0658L84.4784 -100.397H90.7992L93.9693 -95.0658L90.7992 -89.7346H84.4784L81.3082 -95.0658ZM80.6501 -94.8119H74.3293L71.1592 -89.4808L74.3293 -84.1496H80.6501L83.8202 -89.4808L80.6501 -94.8119ZM80.6501 -95.3197L83.8202 -100.651L80.6501 -105.982H74.3293L71.1592 -100.651L74.3293 -95.3197H80.6501ZM94.6275 -83.6418H100.948L104.118 -78.3107L100.948 -72.9795H94.6275L91.4573 -78.3107L94.6275 -83.6418ZM104.118 -89.4808L100.948 -84.1496H94.6275L91.4573 -89.4808L94.6275 -94.8119H100.948L104.118 -89.4808ZM91.4573 -67.1406L94.6275 -72.4718H100.948L104.118 -67.1406L100.948 -61.8094H94.6275L91.4573 -67.1406ZM90.7992 -66.8867H84.4784L81.3082 -61.5555L84.4784 -56.2244H90.7992L93.9693 -61.5555L90.7992 -66.8867ZM84.4784 -78.5645H90.7992L93.9693 -83.8957L90.7992 -89.2269H84.4784L81.3082 -83.8957L84.4784 -78.5645ZM90.7992 -67.3944L93.9693 -72.7256L90.7992 -78.0568H84.4784L81.3082 -72.7256L84.4784 -67.3944H90.7992ZM80.6501 -61.8094H74.3293L71.1592 -67.1406L74.3293 -72.4718H80.6501L83.8202 -67.1406L80.6501 -61.8094ZM71.1592 -55.9705L74.3293 -61.3017H80.6501L83.8202 -55.9705L80.6501 -50.6393H74.3293L71.1592 -55.9705ZM80.6501 -72.9795H74.3293L71.1592 -78.3107L74.3293 -83.6418H80.6501L83.8202 -78.3107L80.6501 -72.9795ZM131.395 -122.737H125.075L121.905 -117.406L125.075 -112.075H131.395L134.566 -117.406L131.395 -122.737ZM131.395 -123.245L134.566 -128.576L131.395 -133.907H125.075L121.905 -128.576L125.075 -123.245H131.395ZM121.246 -117.66H114.926L111.755 -122.991L114.926 -128.322H121.246L124.417 -122.991L121.246 -117.66ZM111.755 -111.821L114.926 -117.152H121.246L124.417 -111.821L121.246 -106.49H114.926L111.755 -111.821ZM111.097 -111.567H104.777L101.606 -106.236L104.777 -100.905H111.097L114.267 -106.236L111.097 -111.567ZM111.097 -112.075L114.267 -117.406L111.097 -122.737H104.777L101.606 -117.406L104.777 -112.075H111.097ZM125.075 -100.397H131.395L134.566 -95.0658L131.395 -89.7346H125.075L121.905 -95.0658L125.075 -100.397ZM134.566 -106.236L131.395 -100.905H125.075L121.905 -106.236L125.075 -111.567H131.395L134.566 -106.236ZM121.905 -83.8957L125.075 -89.2269H131.395L134.566 -83.8957L131.395 -78.5645H125.075L121.905 -83.8957ZM121.246 -83.6418H114.926L111.755 -78.3107L114.926 -72.9795H121.246L124.417 -78.3107L121.246 -83.6418ZM114.926 -95.3197H121.246L124.417 -100.651L121.246 -105.982H114.926L111.755 -100.651L114.926 -95.3197ZM121.246 -84.1496L124.417 -89.4808L121.246 -94.8119H114.926L111.755 -89.4808L114.926 -84.1496H121.246ZM111.097 -78.5645H104.777L101.606 -83.8957L104.777 -89.2269H111.097L114.267 -83.8957L111.097 -78.5645ZM101.606 -72.7256L104.777 -78.0568H111.097L114.267 -72.7256L111.097 -67.3944H104.777L101.606 -72.7256ZM111.097 -89.7346H104.777L101.606 -95.0658L104.777 -100.397H111.097L114.267 -95.0658L111.097 -89.7346Z" fill="url(#paint1_linear_66_5)"/>
</g>
</g>
<path d="M116.161 76.4814C116.161 77.4124 115.692 77.8779 114.755 77.8779H110.419C109.501 77.8779 109.042 77.4124 109.042 76.4814V72.7217H111.317V75.915H113.876V62.5947H116.161V76.4814ZM126.692 76.4814C126.692 77.4124 126.23 77.8779 125.306 77.8779H120.345C119.44 77.8779 118.987 77.4124 118.987 76.4814V64.001C118.987 63.0635 119.44 62.5947 120.345 62.5947H125.306C126.23 62.5947 126.692 63.0635 126.692 64.001V76.4814ZM124.407 75.915V64.5576H121.272V75.915H124.407ZM131.862 77.8779H129.577V62.5947H131.862V77.8779ZM142.481 77.8779H140.479L136.817 68.2588C136.915 68.7275 136.964 69.0954 136.964 69.3623V77.8779H134.737V62.5947H136.739L140.401 72.0186C140.304 71.5498 140.255 71.182 140.255 70.915V62.5947H142.481V77.8779Z" fill="#0E1228"/>
<path d="M214.955 77.8779H212.65V71.0225H209.554V77.8779H207.269V62.5947H209.554V68.8936H212.65V62.5947H214.955V77.8779ZM225.525 77.8779H223.259L222.8 74.9775H219.939L219.48 77.8779H217.224V77.8389L220.183 62.5752H222.585L225.525 77.8779ZM222.478 73.0146L221.365 66.1201L220.242 73.0146H222.478ZM239.083 62.5947L236.847 77.8975H234.611L233.244 69.2354C233.231 68.9229 233.205 68.4574 233.166 67.8389C233.166 68.1514 233.139 68.6169 233.087 69.2354L231.73 77.8975H229.484L227.248 62.5947H229.562L230.744 71.6572C230.763 71.9697 230.789 72.4352 230.822 73.0537C230.828 72.7412 230.858 72.2757 230.91 71.6572L232.228 62.5947H234.103L235.421 71.6572C235.441 71.9697 235.47 72.4352 235.509 73.0537C235.516 72.7412 235.542 72.2757 235.587 71.6572L236.769 62.5947H239.083ZM249.068 77.8779H246.548L243.648 71.0615V77.8779H241.363V62.5947H243.648V69.0596L246.187 62.5947H248.687V62.7021L245.582 69.958L249.068 77.8779ZM257.333 77.8779H250.996V62.5947H257.275V64.6162H253.281V69.0791H256.718V71.0615H253.281V75.8564H257.333V77.8779ZM267.591 62.6826L265.57 69.0693C265.322 69.7008 264.987 70.7653 264.564 72.2627V77.8779H262.269V72.2627C262.165 71.7549 262.015 71.2178 261.82 70.6514C261.475 69.6813 261.289 69.154 261.263 69.0693L259.251 62.6826C259.245 62.6761 259.245 62.6468 259.251 62.5947H261.605L263.431 69.2354L265.248 62.5947H267.591C267.591 62.6403 267.591 62.6696 267.591 62.6826ZM276.111 77.8779H269.773V62.5947H276.052V64.6162H272.058V69.0791H275.496V71.0615H272.058V75.8564H276.111V77.8779Z" fill="#0E1228"/>
<defs>
<filter id="filter0_d_66_5" x="0.332031" y="0" width="365.336" height="138" filterUnits="userSpaceOnUse" color-interpolation-filters="sRGB">
<feFlood flood-opacity="0" result="BackgroundImageFix"/>
<feColorMatrix in="SourceAlpha" type="matrix" values="0 0 0 0 0 0 0 0 0 0 0 0 0 0 0 0 0 0 127 0" result="hardAlpha"/>
<feOffset/>
<feGaussianBlur stdDeviation="25"/>
<feComposite in2="hardAlpha" operator="out"/>
<feColorMatrix type="matrix" values="0 0 0 0 0 0 0 0 0 0 0 0 0 0 0 0 0 0 0.3 0"/>
<feBlend mode="normal" in2="BackgroundImageFix" result="effect1_dropShadow_66_5"/>
<feBlend mode="normal" in="SourceGraphic" in2="effect1_dropShadow_66_5" result="shape"/>
</filter>
<linearGradient id="paint0_linear_66_5" x1="330.445" y1="18.904" x2="204.917" y2="18.904" gradientUnits="userSpaceOnUse">
<stop stop-color="white"/>
<stop offset="1" stop-color="white" stop-opacity="0"/>
</linearGradient>
<linearGradient id="paint1_linear_66_5" x1="9.65109" y1="11.3039" x2="135.179" y2="11.3039" gradientUnits="userSpaceOnUse">
<stop stop-color="white"/>
<stop offset="1" stop-color="white" stop-opacity="0"/>
</linearGradient>
</defs>
</svg>
