<svg width="300" height="316" viewBox="0 0 300 316" fill="none" xmlns="http://www.w3.org/2000/svg">
<path opacity="0.08" fill-rule="evenodd" clip-rule="evenodd" d="M221.559 98.4C233.297 114.62 240.437 135.119 240.437 158C240.437 180.356 233.621 200.437 222.36 216.476L223.697 218.967L221.67 222.746L223.697 226.524L221.67 230.302L223.697 234.081L221.67 237.859L223.697 241.637L221.67 245.415L223.697 249.194L221.67 252.972L223.697 256.75L221.67 260.528L223.697 264.307L221.67 268.085L223.509 271.512C257.879 246.77 280.437 205.16 280.437 158C280.437 109.3 256.381 66.518 220.104 42.1181L221.74 45.1674L219.713 48.9457L221.74 52.724L219.713 56.5022L221.74 60.2805L219.713 64.0587L221.74 67.837L219.713 71.6153L221.74 75.3935L219.713 79.1718L221.74 82.95L219.713 86.7283L221.74 90.5066L219.713 94.2848L221.74 98.0631L221.559 98.4ZM219.268 41.5609C219.352 41.6163 219.436 41.6719 219.52 41.7275L221.366 45.1674L219.43 48.774H215.572L213.636 45.1674L215.572 41.5609H219.268ZM213.974 38.2402C215.587 39.1979 217.178 40.1906 218.746 41.2174H215.572L213.974 38.2402ZM213.198 37.7827C213.216 37.7932 213.234 37.8037 213.252 37.8143L215.17 41.3892L213.235 44.9957H209.376L207.441 41.3892L209.376 37.7827H213.198ZM208.022 34.9159C209.568 35.7259 211.096 36.5673 212.606 37.4392H209.376L208.022 34.9159ZM206.249 34.0044C206.613 34.1877 206.975 34.3728 207.337 34.5595L208.974 37.6109L207.039 41.2174H203.18L201.245 37.6109L203.18 34.0044H206.249ZM202.356 32.1239C203.432 32.6214 204.501 33.1339 205.563 33.6609H203.18L202.356 32.1239ZM198.039 30.2261C199.269 30.7395 200.489 31.2721 201.7 31.8234L202.779 33.8327L200.843 37.4392H196.985L195.05 33.8327L196.985 30.2261H198.039ZM196.922 29.7662C197.018 29.8049 197.113 29.8437 197.208 29.8827H196.985L196.922 29.7662ZM190.331 27.3018C192.34 27.9891 194.327 28.7264 196.292 29.5122L196.583 30.0544L194.648 33.6609H190.789L188.854 30.0544L190.331 27.3018ZM183.278 25.1202C185.514 25.7397 187.726 26.4202 189.913 27.1598L188.452 29.8827H184.593L182.658 26.2761L183.278 25.1202ZM177.034 23.563C178.989 23.9969 180.927 24.4769 182.848 25.0018L182.256 26.1044H178.398L177.034 23.563ZM172.634 22.6696C173.921 22.9067 175.201 23.1636 176.474 23.4401L177.996 26.2761L176.061 29.8827H172.202L170.267 26.2761L172.202 22.6696H172.634ZM164.627 21.4627C167.035 21.7457 169.423 22.0978 171.79 22.517L169.865 26.1044H166.007L164.071 22.4979L164.627 21.4627ZM159.064 20.9351C160.773 21.0586 162.472 21.2168 164.162 21.4089L163.669 22.3261H159.811L159.064 20.9351ZM152.678 20.637C154.647 20.6788 156.605 20.7664 158.551 20.8991L159.409 22.4979L157.474 26.1044H153.615L151.68 22.4979L152.678 20.637ZM146.524 20.6565C147.679 20.6247 148.838 20.6086 150.001 20.6086C150.732 20.6086 151.462 20.615 152.19 20.6276L151.278 22.3261H147.42L146.524 20.6565ZM146.155 20.6672C75.8965 22.8105 19.5659 83.476 19.5659 158C19.5659 233.4 77.2281 294.613 148.637 295.384L149.094 294.533L147.067 290.754L149.094 286.976L147.067 283.198L149.094 279.42L147.067 275.641L149.094 271.863L147.067 268.085L149.094 264.307L147.067 260.528L149.094 256.75L148.356 255.375C101.023 254.437 59.5659 213.133 59.5659 158C59.5659 103.421 100.194 62.3943 146.931 60.6654L147.137 60.2805L145.11 56.5022L147.137 52.724L145.11 48.9457L147.137 45.1674L145.11 41.3892L147.137 37.6109L145.11 33.8327L147.137 30.0544L145.11 26.2761L147.137 22.4979L146.155 20.6672ZM151.368 60.6199C150.913 60.6124 150.457 60.6086 150.001 60.6086C149.103 60.6086 148.206 60.6232 147.312 60.6522L147.42 60.4522H151.278L151.368 60.6199ZM158.972 61.0943C156.622 60.8392 154.252 60.6832 151.867 60.6296L151.68 60.2805L153.615 56.674H157.474L159.409 60.2805L158.972 61.0943ZM164.43 61.8698C162.777 61.5791 161.113 61.3376 159.438 61.1462L159.811 60.4522H163.669L164.43 61.8698ZM170.28 63.1143C168.527 62.6761 166.759 62.2934 164.977 61.9678L164.071 60.2805L166.007 56.674H169.865L171.8 60.2805L170.28 63.1143ZM177.373 65.2196C175.183 64.4653 172.962 63.7991 170.715 63.2243L172.202 60.4522H176.061L177.996 64.0587L177.373 65.2196ZM184.166 67.885C182.074 66.9612 179.947 66.1199 177.789 65.3643L178.398 64.2305H182.256L184.192 67.837L184.166 67.885ZM189.872 70.6544C188.131 69.7308 186.361 68.8661 184.565 68.0623L184.593 68.0087H188.452L189.872 70.6544ZM191.327 71.4435C191.073 71.3031 190.82 71.164 190.565 71.0261L188.854 67.837L190.789 64.2305H194.648L196.583 67.837L194.648 71.4435H191.327ZM195.932 74.1799C194.621 73.3471 193.29 72.5491 191.94 71.787H194.648L195.932 74.1799ZM197.534 75.2218C197.252 75.0342 196.969 74.8482 196.685 74.6638L195.05 71.6153L196.985 68.0087H200.843L202.779 71.6153L200.843 75.2218H197.534ZM202.607 78.8517C201.118 77.7077 199.597 76.6117 198.047 75.5653H200.843L202.607 78.8517ZM208.519 83.7987C206.811 82.2444 205.05 80.7584 203.241 79.3435H207.039L208.974 82.95L208.519 83.7987ZM213.897 89.1012C212.272 87.3659 210.589 85.6983 208.85 84.1016L209.376 83.1218H213.235L215.17 86.7283L213.897 89.1012ZM218.27 94.1131C216.963 92.5056 215.609 90.9464 214.21 89.4376L215.572 86.9H219.43L221.366 90.5066L219.43 94.1131H218.27ZM221.344 98.1035C220.439 96.8623 219.506 95.6463 218.548 94.4566H219.43L221.366 98.0631L221.344 98.1035ZM184.593 67.6653H188.452L190.387 64.0587L188.452 60.4522H184.593L182.658 64.0587L184.593 67.6653ZM190.789 63.887H194.648L196.583 60.2805L194.648 56.674H190.789L188.854 60.2805L190.789 63.887ZM196.985 60.1087H200.843L202.779 56.5022L200.843 52.8957H196.985L195.05 56.5022L196.985 60.1087ZM203.18 56.3305H207.039L208.974 52.724L207.039 49.1174H203.18L201.245 52.724L203.18 56.3305ZM209.376 52.5522H213.235L215.17 48.9457L213.235 45.3392H209.376L207.441 48.9457L209.376 52.5522ZM196.985 60.4522L195.05 64.0587L196.985 67.6653H200.843L202.779 64.0587L200.843 60.4522H196.985ZM203.18 56.674L201.245 60.2805L203.18 63.887H207.039L208.974 60.2805L207.039 56.674H203.18ZM209.376 52.8957L207.441 56.5022L209.376 60.1087H213.235L215.17 56.5022L213.235 52.8957H209.376ZM215.572 49.1174L213.636 52.724L215.572 56.3305H219.43L221.366 52.724L219.43 49.1174H215.572ZM215.572 56.674H219.43L221.366 60.2805L219.43 63.887H215.572L213.636 60.2805L215.572 56.674ZM209.376 60.4522L207.441 64.0587L209.376 67.6653H213.235L215.17 64.0587L213.235 60.4522H209.376ZM203.18 64.2305H207.039L208.974 67.837L207.039 71.4435H203.18L201.245 67.837L203.18 64.2305ZM219.43 71.787H215.572L213.636 75.3935L215.572 79H219.43L221.366 75.3935L219.43 71.787ZM219.43 71.4435L221.366 67.837L219.43 64.2305H215.572L213.636 67.837L215.572 71.4435H219.43ZM215.572 79.3435L213.636 82.95L215.572 86.5566H219.43L221.366 82.95L219.43 79.3435H215.572ZM213.235 75.2218H209.376L207.441 71.6153L209.376 68.0087H213.235L215.17 71.6153L213.235 75.2218ZM215.17 79.1718L213.235 82.7783H209.376L207.441 79.1718L209.376 75.5653H213.235L215.17 79.1718ZM203.18 79H207.039L208.974 75.3935L207.039 71.787H203.18L201.245 75.3935L203.18 79ZM184.593 30.2261H188.452L190.387 33.8327L188.452 37.4392H184.593L182.658 33.8327L184.593 30.2261ZM200.843 37.7827H196.985L195.05 41.3892L196.985 44.9957H200.843L202.779 41.3892L200.843 37.7827ZM196.985 45.3392L195.05 48.9457L196.985 52.5522H200.843L202.779 48.9457L200.843 45.3392H196.985ZM190.789 49.1174H194.648L196.583 52.724L194.648 56.3305H190.789L188.854 52.724L190.789 49.1174ZM194.648 41.2174H190.789L188.854 37.6109L190.789 34.0044H194.648L196.583 37.6109L194.648 41.2174ZM196.583 45.1674L194.648 48.774H190.789L188.854 45.1674L190.789 41.5609H194.648L196.583 45.1674ZM184.593 52.5522H188.452L190.387 48.9457L188.452 45.3392H184.593L182.658 48.9457L184.593 52.5522ZM184.593 52.8957L182.658 56.5022L184.593 60.1087H188.452L190.387 56.5022L188.452 52.8957H184.593ZM184.593 44.9957H188.452L190.387 41.3892L188.452 37.7827H184.593L182.658 41.3892L184.593 44.9957ZM203.18 41.5609L201.245 45.1674L203.18 48.774H207.039L208.974 45.1674L207.039 41.5609H203.18ZM178.398 26.4479H182.256L184.192 30.0544L182.256 33.6609H178.398L176.463 30.0544L178.398 26.4479ZM163.669 60.1087H159.811L157.876 56.5022L159.811 52.8957H163.669L165.605 56.5022L163.669 60.1087ZM157.474 56.3305H153.615L151.68 52.724L153.615 49.1174H157.474L159.409 52.724L157.474 56.3305ZM151.278 52.5522H147.42L145.484 48.9457L147.42 45.3392H151.278L153.213 48.9457L151.278 52.5522ZM151.278 52.8957L153.213 56.5022L151.278 60.1087H147.42L145.484 56.5022L147.42 52.8957H151.278ZM169.865 26.4479H166.007L164.071 30.0544L166.007 33.6609H169.865L171.8 30.0544L169.865 26.4479ZM176.061 30.2261L177.996 33.8327L176.061 37.4392H172.202L170.267 33.8327L172.202 30.2261H176.061ZM182.256 34.0044H178.398L176.463 37.6109L178.398 41.2174H182.256L184.192 37.6109L182.256 34.0044ZM166.007 41.5609H169.865L171.8 45.1674L169.865 48.774H166.007L164.071 45.1674L166.007 41.5609ZM166.007 41.2174L164.071 37.6109L166.007 34.0044H169.865L171.8 37.6109L169.865 41.2174H166.007ZM169.865 49.1174L171.8 52.724L169.865 56.3305H166.007L164.071 52.724L166.007 49.1174H169.865ZM176.061 52.8957H172.202L170.267 56.5022L172.202 60.1087H176.061L177.996 56.5022L176.061 52.8957ZM172.202 44.9957H176.061L177.996 41.3892L176.061 37.7827H172.202L170.267 41.3892L172.202 44.9957ZM170.267 48.9457L172.202 52.5522H176.061L177.996 48.9457L176.061 45.3392H172.202L170.267 48.9457ZM182.256 56.3305H178.398L176.463 52.724L178.398 49.1174H182.256L184.192 52.724L182.256 56.3305ZM182.256 56.674L184.192 60.2805L182.256 63.887H178.398L176.463 60.2805L178.398 56.674H182.256ZM182.256 48.774H178.398L176.463 45.1674L178.398 41.5609H182.256L184.192 45.1674L182.256 48.774ZM163.669 22.6696H159.811L157.876 26.2761L159.811 29.8827H163.669L165.605 26.2761L163.669 22.6696ZM147.42 30.2261H151.278L153.213 33.8327L151.278 37.4392H147.42L145.484 33.8327L147.42 30.2261ZM147.42 29.8827L145.484 26.2761L147.42 22.6696H151.278L153.213 26.2761L151.278 29.8827H147.42ZM151.278 37.7827L153.213 41.3892L151.278 44.9957H147.42L145.484 41.3892L147.42 37.7827H151.278ZM157.474 41.5609H153.615L151.68 45.1674L153.615 48.774H157.474L159.409 45.1674L157.474 41.5609ZM153.615 33.6609H157.474L159.409 30.0544L157.474 26.4479H153.615L151.68 30.0544L153.615 33.6609ZM151.68 37.6109L153.615 41.2174H157.474L159.409 37.6109L157.474 34.0044H153.615L151.68 37.6109ZM163.669 44.9957H159.811L157.876 41.3892L159.811 37.7827H163.669L165.605 41.3892L163.669 44.9957ZM163.669 45.3392L165.605 48.9457L163.669 52.5522H159.811L157.876 48.9457L159.811 45.3392H163.669ZM163.669 37.4392H159.811L157.876 33.8327L159.811 30.2261H163.669L165.605 33.8327L163.669 37.4392ZM150.001 255.391C151.313 255.391 152.62 255.36 153.922 255.299L153.235 256.578H149.376L148.734 255.382C149.156 255.388 149.579 255.391 150.001 255.391ZM153.637 256.75L154.429 255.273C156.396 255.168 158.352 254.994 160.293 254.752L161.366 256.75L159.431 260.357H155.572L153.637 256.75ZM161.768 256.578L160.756 254.693C162.933 254.409 165.093 254.04 167.231 253.588L165.626 256.578H161.768ZM166.028 256.75L167.789 253.469C168.267 253.364 168.743 253.256 169.219 253.144H171.822L173.757 256.75L171.822 260.357H167.963L166.028 256.75ZM171.822 252.8H170.619C171.087 252.681 171.554 252.558 172.02 252.431L171.822 252.8ZM172.224 252.972L172.6 252.27C174.608 251.707 176.594 251.071 178.553 250.364L179.953 252.972L178.018 256.578H174.159L172.224 252.972ZM180.355 252.8L178.967 250.214C181.109 249.428 183.221 248.558 185.297 247.606L186.148 249.194L184.213 252.8H180.355ZM186.55 249.022L185.692 247.423C187.75 246.467 189.772 245.431 191.755 244.317L192.344 245.415L190.409 249.022H186.55ZM192.746 245.244L192.134 244.103C194.109 242.981 196.044 241.783 197.935 240.51L198.54 241.637L196.605 245.244H192.746ZM198.942 241.465L198.297 240.265C200.19 238.978 202.038 237.618 203.838 236.186L204.735 237.859L202.8 241.465H198.942ZM205.137 237.687L204.183 235.909C205.993 234.456 207.752 232.93 209.458 231.335L210.931 234.081L208.996 237.687H205.137ZM211.333 233.909L209.786 231.027C211.261 229.634 212.696 228.19 214.086 226.696H215.191L217.127 230.302L215.191 233.909H211.333ZM215.191 226.352H214.404C215.072 225.628 215.729 224.892 216.376 224.144L215.191 226.352ZM221.387 222.574H217.706C219.253 220.708 220.735 218.774 222.148 216.778L223.322 218.967L221.387 222.574ZM150.001 295.391C151.197 295.391 152.389 295.374 153.576 295.341L153.235 294.704H149.376L149.01 295.387C149.34 295.39 149.671 295.391 150.001 295.391ZM154.062 295.326C156.449 295.249 158.819 295.105 161.172 294.895L161.366 294.533L159.431 290.926H155.572L153.637 294.533L154.062 295.326ZM161.691 294.847C162.17 294.802 162.648 294.755 163.125 294.704H161.768L161.691 294.847ZM166.125 294.352C168.459 294.049 170.774 293.681 173.069 293.249L171.822 290.926H167.963L166.125 294.352ZM173.517 293.164C175.472 292.789 177.413 292.368 179.337 291.903L179.953 290.754L178.018 287.148H174.159L172.224 290.754L173.517 293.164ZM179.905 291.764C180.979 291.498 182.047 291.219 183.11 290.926H180.355L179.905 291.764ZM184.776 290.455C186.906 289.836 189.014 289.161 191.098 288.433L190.409 287.148H186.55L184.776 290.455ZM191.514 288.287C193.675 287.523 195.812 286.701 197.921 285.823L196.605 283.37H192.746L190.811 286.976L191.514 288.287ZM198.324 285.654C200.425 284.771 202.498 283.833 204.543 282.84L202.8 279.591H198.942L197.006 283.198L198.324 285.654ZM204.935 282.649C206.938 281.667 208.914 280.634 210.861 279.55L210.931 279.42L208.996 275.813H205.137L203.202 279.42L204.935 282.649ZM211.401 279.248C213.288 278.186 215.147 277.076 216.977 275.92L217.127 275.641L215.191 272.035H211.333L209.398 275.641L211.333 279.248H211.401ZM217.685 275.47C219.568 274.263 221.42 273.008 223.238 271.706L221.387 268.257H217.529L215.593 271.863L217.529 275.47H217.685ZM186.55 271.691H190.409L192.344 268.085L190.409 264.478H186.55L184.615 268.085L186.55 271.691ZM192.746 267.913H196.605L198.54 264.307L196.605 260.7H192.746L190.811 264.307L192.746 267.913ZM198.942 264.135H202.8L204.735 260.528L202.8 256.922H198.942L197.006 260.528L198.942 264.135ZM205.137 260.357H208.996L210.931 256.75L208.996 253.144H205.137L203.202 256.75L205.137 260.357ZM211.333 256.578H215.191L217.127 252.972L215.191 249.365H211.333L209.398 252.972L211.333 256.578ZM217.529 252.8H221.387L223.322 249.194L221.387 245.587H217.529L215.593 249.194L217.529 252.8ZM186.55 272.035L184.615 275.641L186.55 279.248H190.409L192.344 275.641L190.409 272.035H186.55ZM192.746 268.257L190.811 271.863L192.746 275.47H196.605L198.54 271.863L196.605 268.257H192.746ZM198.942 264.478L197.006 268.085L198.942 271.691H202.8L204.735 268.085L202.8 264.478H198.942ZM205.137 260.7L203.202 264.307L205.137 267.913H208.996L210.931 264.307L208.996 260.7H205.137ZM211.333 256.922L209.398 260.528L211.333 264.135H215.191L217.127 260.528L215.191 256.922H211.333ZM217.529 253.144L215.593 256.75L217.529 260.357H221.387L223.322 256.75L221.387 253.144H217.529ZM198.942 272.035H202.8L204.735 275.641L202.8 279.248H198.942L197.006 275.641L198.942 272.035ZM192.746 275.813L190.811 279.42L192.746 283.026H196.605L198.54 279.42L196.605 275.813H192.746ZM186.55 279.591H190.409L192.344 283.198L190.409 286.804H186.55L184.615 283.198L186.55 279.591ZM217.529 260.7H221.387L223.322 264.307L221.387 267.913H217.529L215.593 264.307L217.529 260.7ZM211.333 264.478L209.398 268.085L211.333 271.691H215.191L217.127 268.085L215.191 264.478H211.333ZM205.137 268.257H208.996L210.931 271.863L208.996 275.47H205.137L203.202 271.863L205.137 268.257ZM198.942 241.809H202.8L204.735 245.415L202.8 249.022H198.942L197.006 245.415L198.942 241.809ZM197.006 252.972L198.942 249.365H202.8L204.735 252.972L202.8 256.578H198.942L197.006 252.972ZM196.605 253.144H192.746L190.811 256.75L192.746 260.357H196.605L198.54 256.75L196.605 253.144ZM196.605 252.8L198.54 249.194L196.605 245.587H192.746L190.811 249.194L192.746 252.8H196.605ZM190.409 256.578H186.55L184.615 252.972L186.55 249.365H190.409L192.344 252.972L190.409 256.578ZM184.615 260.528L186.55 256.922H190.409L192.344 260.528L190.409 264.135H186.55L184.615 260.528ZM217.529 230.474H221.387L223.322 234.081L221.387 237.687H217.529L215.593 234.081L217.529 230.474ZM223.322 226.524L221.387 230.131H217.529L215.593 226.524L217.529 222.917H221.387L223.322 226.524ZM215.593 241.637L217.529 238.031H221.387L223.322 241.637L221.387 245.244H217.529L215.593 241.637ZM215.191 241.809H211.333L209.398 245.415L211.333 249.022H215.191L217.127 245.415L215.191 241.809ZM215.191 241.465L217.127 237.859L215.191 234.252H211.333L209.398 237.859L211.333 241.465H215.191ZM208.996 245.244H205.137L203.202 241.637L205.137 238.031H208.996L210.931 241.637L208.996 245.244ZM203.202 249.194L205.137 245.587H208.996L210.931 249.194L208.996 252.8H205.137L203.202 249.194ZM184.213 275.47H180.355L178.419 271.863L180.355 268.257H184.213L186.148 271.863L184.213 275.47ZM178.018 271.691H174.159L172.224 268.085L174.159 264.478H178.018L179.953 268.085L178.018 271.691ZM171.822 267.913H167.963L166.028 264.307L167.963 260.7H171.822L173.757 264.307L171.822 267.913ZM165.626 264.135H161.768L159.832 260.528L161.768 256.922H165.626L167.562 260.528L165.626 264.135ZM184.213 275.813L186.148 279.42L184.213 283.026H180.355L178.419 279.42L180.355 275.813H184.213ZM178.018 272.035L179.953 275.641L178.018 279.248H174.159L172.224 275.641L174.159 272.035H178.018ZM171.822 268.257L173.757 271.863L171.822 275.47H167.963L166.028 271.863L167.963 268.257H171.822ZM165.626 264.478L167.562 268.085L165.626 271.691H161.768L159.832 268.085L161.768 264.478H165.626ZM159.431 260.7L161.366 264.307L159.431 267.913H155.572L153.637 264.307L155.572 260.7H159.431ZM153.235 256.922L155.17 260.528L153.235 264.135H149.376L147.441 260.528L149.376 256.922H153.235ZM171.822 275.813H167.963L166.028 279.42L167.963 283.026H171.822L173.757 279.42L171.822 275.813ZM178.018 279.591L179.953 283.198L178.018 286.804H174.159L172.224 283.198L174.159 279.591H178.018ZM184.213 283.37H180.355L178.419 286.976L180.355 290.583H184.213L186.148 286.976L184.213 283.37ZM167.963 290.583L166.028 286.976L167.963 283.37H171.822L173.757 286.976L171.822 290.583H167.963ZM153.235 264.478H149.376L147.441 268.085L149.376 271.691H153.235L155.17 268.085L153.235 264.478ZM159.431 268.257L161.366 271.863L159.431 275.47H155.572L153.637 271.863L155.572 268.257H159.431ZM165.626 272.035H161.768L159.832 275.641L161.768 279.248H165.626L167.562 275.641L165.626 272.035ZM149.376 279.591H153.235L155.17 283.198L153.235 286.804H149.376L147.441 283.198L149.376 279.591ZM149.376 279.248L147.441 275.641L149.376 272.035H153.235L155.17 275.641L153.235 279.248H149.376ZM153.235 287.148L155.17 290.754L153.235 294.361H149.376L147.441 290.754L149.376 287.148H153.235ZM155.572 283.026H159.431L161.366 279.42L159.431 275.813H155.572L153.637 279.42L155.572 283.026ZM153.637 286.976L155.572 290.583H159.431L161.366 286.976L159.431 283.37H155.572L153.637 286.976ZM165.626 294.361H161.768L159.832 290.754L161.768 287.148H165.626L167.562 290.754L165.626 294.361ZM165.626 286.804H161.768L159.832 283.198L161.768 279.591H165.626L167.562 283.198L165.626 286.804ZM174.159 256.922H178.018L179.953 260.528L178.018 264.135H174.159L172.224 260.528L174.159 256.922ZM180.355 260.357H184.213L186.148 256.75L184.213 253.144H180.355L178.419 256.75L180.355 260.357ZM186.148 264.307L184.213 260.7H180.355L178.419 264.307L180.355 267.913H184.213L186.148 264.307Z" fill="url(#paint0_linear_91_771)"/>
<path opacity="0.08" fill-rule="evenodd" clip-rule="evenodd" d="M221.398 106.257C230.8 120.893 236.349 138.647 236.349 158C236.349 176.827 231.098 194.139 222.157 208.541L223.697 211.411L221.67 215.189L223.697 218.967L221.67 222.746L223.697 226.524L221.67 230.302L223.697 234.081L221.67 237.859L221.68 237.878C241.797 217.842 254.349 189.465 254.349 158C254.349 126.059 241.414 97.3003 220.761 77.2183L219.713 79.1718L221.74 82.95L219.713 86.7283L221.74 90.5066L219.713 94.2848L221.74 98.0631L219.713 101.841L221.74 105.62L221.398 106.257ZM215.311 72.2725C217.095 73.782 218.83 75.3519 220.515 76.9794L219.43 79H215.572L213.636 75.3935L215.311 72.2725ZM209.928 68.0087C211.648 69.2819 213.33 70.6084 214.971 71.9859L213.235 75.2218H209.376L207.441 71.6153L209.376 68.0087H209.928ZM209.321 67.5634C209.368 67.5973 209.414 67.6313 209.461 67.6653H209.376L209.321 67.5634ZM204.468 64.2305C205.838 65.1154 207.188 66.0327 208.515 66.9813L208.974 67.837L207.039 71.4435H203.18L201.245 67.837L203.18 64.2305H204.468ZM202.798 63.1741C203.178 63.4093 203.556 63.6469 203.933 63.887H203.18L202.798 63.1741ZM198.132 60.4522C199.459 61.1801 200.769 61.9372 202.062 62.7226L202.779 64.0587L200.843 67.6653H196.985L195.05 64.0587L196.985 60.4522H198.132ZM196.778 59.7225C197.019 59.8503 197.26 59.9791 197.5 60.1087H196.985L196.778 59.7225ZM190.734 56.7765C192.546 57.5866 194.332 58.4491 196.09 59.3622L196.583 60.2805L194.648 63.887H190.789L188.854 60.2805L190.734 56.7765ZM183.977 54.0449C186.129 54.8252 188.249 55.6775 190.335 56.5992L188.452 60.1087H184.593L182.658 56.5022L183.977 54.0449ZM176.963 51.7914C179.193 52.4179 181.394 53.1204 183.563 53.8959L182.256 56.3305H178.398L176.463 52.724L176.963 51.7914ZM171.001 50.3137C172.864 50.7146 174.708 51.1678 176.533 51.6717L176.061 52.5522H172.202L171.001 50.3137ZM165.881 49.3517C167.413 49.5981 168.934 49.8796 170.444 50.1954L171.8 52.724L169.865 56.3305H166.007L164.071 52.724L165.881 49.3517ZM158.159 48.418C160.606 48.6173 163.029 48.9055 165.426 49.2796L163.669 52.5522H159.811L157.876 48.9457L158.159 48.418ZM153.275 48.1401C154.753 48.1881 156.223 48.2685 157.685 48.3805L157.474 48.774H153.615L153.275 48.1401ZM145.9 48.1703C147.261 48.115 148.628 48.087 150.001 48.087C150.928 48.087 151.852 48.0998 152.773 48.1251L153.213 48.9457L151.278 52.5522H147.42L145.484 48.9457L145.9 48.1703ZM145.517 48.1867C89.9669 50.6602 45.6523 98.8791 45.6523 158C45.6523 217.71 90.8539 266.299 147.18 267.874L149.094 264.307L147.067 260.528L149.094 256.75L147.067 252.972L148.713 249.903C102.459 249.173 63.6523 209.181 63.6523 158C63.6523 107.733 101.087 68.2578 146.245 66.1736L145.11 64.0587L147.137 60.2805L145.11 56.5022L147.137 52.724L145.11 48.9457L145.517 48.1867ZM152.11 66.1143C151.409 66.0962 150.706 66.087 150.001 66.087C148.866 66.087 147.736 66.1107 146.611 66.1575L145.484 64.0587L147.42 60.4522H151.278L153.213 64.0587L152.11 66.1143ZM158.721 66.5556C156.697 66.3372 154.655 66.1939 152.597 66.1284L153.615 64.2305H157.474L158.721 66.5556ZM163.876 67.2799C162.345 67.0143 160.801 66.792 159.247 66.614L157.876 64.0587L159.811 60.4522H163.669L165.605 64.0587L163.876 67.2799ZM171.226 68.908C168.958 68.2945 166.657 67.7769 164.328 67.3594L166.007 64.2305H169.865L171.8 67.837L171.226 68.908ZM177.625 70.9238C175.664 70.217 173.673 69.5834 171.656 69.0258L172.202 68.0087H176.061L177.625 70.9238ZM179.027 71.4435C178.765 71.3437 178.502 71.2452 178.239 71.1479L176.463 67.837L178.398 64.2305H182.256L184.192 67.837L182.256 71.4435H179.027ZM182.932 73.0462C181.935 72.607 180.928 72.1871 179.913 71.787H182.256L182.932 73.0462ZM187.495 75.2218C186.207 74.5595 184.902 73.9304 183.581 73.3353L182.658 71.6153L184.593 68.0087H188.452L190.387 71.6153L188.452 75.2218H187.495ZM188.57 75.7844C188.432 75.711 188.294 75.6379 188.155 75.5653H188.452L188.57 75.7844ZM194.097 79C192.517 77.9999 190.905 77.052 189.264 76.1586L188.854 75.3935L190.789 71.787H194.648L196.583 75.3935L194.648 79H194.097ZM194.654 79.356C194.648 79.3519 194.641 79.3477 194.635 79.3435H194.648L194.654 79.356ZM199.585 82.7783C198.222 81.7608 196.831 80.7844 195.414 79.8506L195.05 79.1718L196.985 75.5653H200.843L202.779 79.1718L200.843 82.7783H199.585ZM201.411 84.179C200.958 83.822 200.502 83.4695 200.042 83.1218H200.843L201.411 84.179ZM204.298 86.5566C203.632 85.9837 202.957 85.4212 202.275 84.8694L201.245 82.95L203.18 79.3435H207.039L208.974 82.95L207.039 86.5566H204.298ZM208.844 90.7493C207.5 89.42 206.116 88.1362 204.695 86.9H207.039L208.974 90.5066L208.844 90.7493ZM214.056 96.3613C212.492 94.5274 210.861 92.7621 209.166 91.0695L209.376 90.6783H213.235L215.17 94.2848L214.056 96.3613ZM218.25 101.67C217.007 99.9694 215.708 98.318 214.358 96.718L215.572 94.4566H219.43L221.366 98.0631L219.43 101.67H218.25ZM221.193 105.941C220.328 104.605 219.429 103.295 218.501 102.013H219.43L221.366 105.62L221.193 105.941ZM219.43 94.1131H215.572L213.636 90.5066L215.572 86.9H219.43L221.366 90.5066L219.43 94.1131ZM184.593 67.6653H188.452L190.387 64.0587L188.452 60.4522H184.593L182.658 64.0587L184.593 67.6653ZM190.789 64.2305L188.854 67.837L190.789 71.4435H194.648L196.583 67.837L194.648 64.2305H190.789ZM196.985 68.0087H200.843L202.779 71.6153L200.843 75.2218H196.985L195.05 71.6153L196.985 68.0087ZM215.572 79.3435L213.636 82.95L215.572 86.5566H219.43L221.366 82.95L219.43 79.3435H215.572ZM209.376 83.1218H213.235L215.17 86.7283L213.235 90.3348H209.376L207.441 86.7283L209.376 83.1218ZM215.17 79.1718L213.235 82.7783H209.376L207.441 79.1718L209.376 75.5653H213.235L215.17 79.1718ZM203.18 79H207.039L208.974 75.3935L207.039 71.787H203.18L201.245 75.3935L203.18 79ZM176.061 67.6653H172.202L170.267 64.0587L172.202 60.4522H176.061L177.996 64.0587L176.061 67.6653ZM169.865 63.887H166.007L164.071 60.2805L166.007 56.674H169.865L171.8 60.2805L169.865 63.887ZM163.669 60.1087H159.811L157.876 56.5022L159.811 52.8957H163.669L165.605 56.5022L163.669 60.1087ZM157.474 56.3305H153.615L151.68 52.724L153.615 49.1174H157.474L159.409 52.724L157.474 56.3305ZM157.474 56.674L159.409 60.2805L157.474 63.887H153.615L151.68 60.2805L153.615 56.674H157.474ZM151.278 52.8957L153.213 56.5022L151.278 60.1087H147.42L145.484 56.5022L147.42 52.8957H151.278ZM176.061 52.8957H172.202L170.267 56.5022L172.202 60.1087H176.061L177.996 56.5022L176.061 52.8957ZM182.256 56.674L184.192 60.2805L182.256 63.887H178.398L176.463 60.2805L178.398 56.674H182.256ZM150.001 249.913C151.168 249.913 152.331 249.888 153.489 249.838L155.17 252.972L153.235 256.578H149.376L147.441 252.972L149.085 249.908C149.39 249.911 149.695 249.913 150.001 249.913ZM155.572 252.8L153.971 249.816C156.448 249.696 158.902 249.462 161.327 249.121L161.366 249.194L159.431 252.8H155.572ZM165.626 249.022H162.008C163.348 248.822 164.68 248.588 166.002 248.323L165.626 249.022ZM166.028 249.194L166.556 248.209C168.543 247.795 170.507 247.309 172.447 246.752L173.757 249.194L171.822 252.8H167.963L166.028 249.194ZM174.159 249.022L172.874 246.628C175.088 245.979 177.269 245.238 179.413 244.409L179.953 245.415L178.018 249.022H174.159ZM180.355 245.244L179.821 244.249C181.943 243.416 184.028 242.496 186.071 241.493L186.148 241.637L184.213 245.244H180.355ZM186.55 241.465L186.462 241.301C188.403 240.336 190.307 239.296 192.169 238.185L190.409 241.465H186.55ZM196.605 237.687H192.993C194.875 236.536 196.713 235.311 198.505 234.015L198.54 234.081L196.605 237.687ZM198.942 233.909L198.86 233.757C200.72 232.398 202.529 230.964 204.282 229.457L204.735 230.302L202.8 233.909H198.942ZM205.137 230.131L204.62 229.166C206.391 227.628 208.105 226.017 209.757 224.335L210.931 226.524L208.996 230.131H205.137ZM211.333 226.352L210.076 224.009C211.598 222.444 213.066 220.82 214.479 219.139H215.191L217.127 222.746L215.191 226.352H211.333ZM215.191 218.796H214.766C215.188 218.288 215.605 217.776 216.017 217.258L215.191 218.796ZM221.387 215.017H217.743C219.224 213.033 220.63 210.98 221.956 208.864L223.322 211.411L221.387 215.017ZM150.001 267.913C151.68 267.913 153.351 267.871 155.011 267.789L153.235 264.478H149.376L147.549 267.883C148.364 267.903 149.181 267.913 150.001 267.913ZM155.492 267.764C156.896 267.687 158.292 267.581 159.681 267.446L161.366 264.307L159.431 260.7H155.572L153.637 264.307L155.492 267.764ZM160.203 267.394C162.395 267.17 164.567 266.875 166.717 266.51L165.626 264.478H161.768L160.203 267.394ZM167.169 266.433C169.233 266.073 171.276 265.649 173.297 265.164L173.757 264.307L171.822 260.7H167.963L166.028 264.307L167.169 266.433ZM173.865 265.025C174.575 264.851 175.281 264.668 175.984 264.478H174.159L173.865 265.025ZM177.225 264.135C177.538 264.046 177.851 263.955 178.163 263.863L179.953 260.528L178.018 256.922H174.159L172.224 260.528L174.159 264.135H177.225ZM178.751 263.688C180.772 263.079 182.768 262.408 184.737 261.676L184.213 260.7H180.355L178.751 263.688ZM185.148 261.522C187.288 260.716 189.394 259.839 191.466 258.893L190.409 256.922H186.55L184.615 260.528L185.148 261.522ZM191.863 258.711C193.927 257.757 195.957 256.736 197.949 255.648L196.605 253.144H192.746L190.811 256.75L191.863 258.711ZM198.33 255.439C200.321 254.341 202.275 253.177 204.187 251.95L202.8 249.365H198.942L197.006 252.972L198.33 255.439ZM204.554 251.714C206.473 250.472 208.35 249.167 210.184 247.801L208.996 245.587H205.137L203.202 249.194L204.554 251.714ZM210.536 247.537C212.382 246.151 214.182 244.702 215.935 243.195L215.191 241.809H211.333L209.398 245.415L210.536 247.537ZM216.273 242.904C218.044 241.369 219.765 239.773 221.435 238.12L221.387 238.031H217.529L215.593 241.637L216.273 242.904ZM198.942 241.809H202.8L204.735 245.415L202.8 249.022H198.942L197.006 245.415L198.942 241.809ZM204.735 237.859L202.8 241.465H198.942L197.006 237.859L198.942 234.252H202.8L204.735 237.859ZM192.746 245.244H196.605L198.54 241.637L196.605 238.031H192.746L190.811 241.637L192.746 245.244ZM196.605 252.8L198.54 249.194L196.605 245.587H192.746L190.811 249.194L192.746 252.8H196.605ZM190.409 256.578H186.55L184.615 252.972L186.55 249.365H190.409L192.344 252.972L190.409 256.578ZM190.409 249.022H186.55L184.615 245.415L186.55 241.809H190.409L192.344 245.415L190.409 249.022ZM221.387 215.361H217.529L215.593 218.967L217.529 222.574H221.387L223.322 218.967L221.387 215.361ZM217.529 230.474H221.387L223.322 234.081L221.387 237.687H217.529L215.593 234.081L217.529 230.474ZM223.322 226.524L221.387 230.131H217.529L215.593 226.524L217.529 222.917H221.387L223.322 226.524ZM211.333 233.909H215.191L217.127 230.302L215.191 226.696H211.333L209.398 230.302L211.333 233.909ZM215.191 241.465L217.127 237.859L215.191 234.252H211.333L209.398 237.859L211.333 241.465H215.191ZM208.996 245.244H205.137L203.202 241.637L205.137 238.031H208.996L210.931 241.637L208.996 245.244ZM208.996 237.687H205.137L203.202 234.081L205.137 230.474H208.996L210.931 234.081L208.996 237.687ZM165.626 264.135H161.768L159.832 260.528L161.768 256.922H165.626L167.562 260.528L165.626 264.135ZM159.431 260.357H155.572L153.637 256.75L155.572 253.144H159.431L161.366 256.75L159.431 260.357ZM153.235 256.922L155.17 260.528L153.235 264.135H149.376L147.441 260.528L149.376 256.922H153.235ZM173.757 256.75L171.822 253.144H167.963L166.028 256.75L167.963 260.357H171.822L173.757 256.75ZM174.159 256.578L172.224 252.972L174.159 249.365H178.018L179.953 252.972L178.018 256.578H174.159ZM180.355 260.357H184.213L186.148 256.75L184.213 253.144H180.355L178.419 256.75L180.355 260.357ZM180.355 252.8H184.213L186.148 249.194L184.213 245.587H180.355L178.419 249.194L180.355 252.8ZM167.562 252.972L165.626 249.365H161.768L159.832 252.972L161.768 256.578H165.626L167.562 252.972Z" fill="url(#paint1_linear_91_771)"/>
<path opacity="0.08" fill-rule="evenodd" clip-rule="evenodd" d="M220.789 39.5385L230.718 24.8025C227.931 22.9247 225.081 21.1413 222.172 19.4565L220.07 23.0853L221.414 25.5892L219.386 29.3674L221.414 33.1457L219.386 36.924L220.789 39.5385ZM216.531 29.1957L219.876 23.421L221.039 25.5892L219.104 29.1957H216.531ZM213.759 33.982L216.332 29.5392H219.104L221.039 33.1457L219.104 36.7522H215.245L213.759 33.982ZM209.966 40.5305L212.148 36.7632L213.502 34.4247L214.843 36.924L212.908 40.5305H209.966ZM207.385 44.9856L209.767 40.874H212.908L214.843 44.4805L212.908 48.087H209.05L207.385 44.9856ZM203.401 51.8653L207.129 45.4283L208.648 48.2587L206.713 51.8653H203.401ZM207.721 57.5433C205.887 56.3269 204.021 55.1684 202.124 54.0698L203.202 52.2087H206.713L208.648 55.8153L207.721 57.5433ZM209.707 55.987L208.367 57.9756C208.273 57.9122 208.179 57.8489 208.084 57.7858L209.05 55.987H209.707ZM213.746 49.992L209.938 55.6435H209.05L207.114 52.037L209.05 48.4305H212.908L213.746 49.992ZM217.344 44.6522L214.021 49.5839L213.31 48.2587L215.245 44.6522H217.344ZM220.581 39.8479L219.542 41.3891L217.575 44.3087H215.245L213.31 40.7022L215.245 37.0957H219.104L220.581 39.8479ZM145.285 0.0765931C145.174 0.0802186 145.062 0.0839723 144.951 0.0878539L145.157 6.00161L146.811 2.91962L145.285 0.0765931ZM145.183 6.74432L145.18 6.6571L147.093 3.09136H150.952L152.887 6.69788L150.952 10.3044H147.093L145.183 6.74432ZM145.209 7.49085L145.404 13.0974L146.811 10.4761L145.209 7.49085ZM145.464 14.8256L145.427 13.7529L147.093 10.6479H150.952L152.887 14.2544L150.952 17.8609H147.093L145.464 14.8256ZM145.49 15.5721L145.647 20.0757L145.651 20.1931L146.811 18.0327L145.49 15.5721ZM145.746 22.9069L145.674 20.8486L147.093 18.2044H150.952L152.887 21.8109L150.952 25.4174H147.093L145.746 22.9069ZM145.772 23.6534L145.899 27.2889L146.811 25.5892L145.772 23.6534ZM146.028 30.9882L145.921 27.9444L147.093 25.7609H150.952L152.887 29.3674L150.952 32.974H147.093L146.028 30.9882ZM146.054 31.7347L146.146 34.3846L146.811 33.1457L146.054 31.7347ZM146.309 39.0694L146.169 35.0401L147.093 33.3174H150.952L152.887 36.924L151.232 40.0072C150.823 40.0024 150.412 40 150.001 40C148.94 40 147.885 40.016 146.834 40.0477L146.309 39.0694ZM146.335 39.816L146.344 40.0636C146.384 40.0622 146.425 40.0608 146.466 40.0594L146.335 39.816ZM153.761 37.0957L153.658 40.0636C153.015 40.0412 152.37 40.0247 151.723 40.0141L153.289 37.0957H153.761ZM154.024 29.5392L153.773 36.7522H153.289L151.353 33.1457L153.289 29.5392H154.024ZM154.288 21.9827L154.036 29.1957H153.289L151.353 25.5892L153.289 21.9827H154.288ZM154.551 14.4261L154.354 20.0757L154.3 21.6392H153.289L151.353 18.0327L153.289 14.4261H154.551ZM154.814 6.86962L154.563 14.0827H153.289L151.353 10.4761L153.289 6.86962H154.814ZM152.905 0.0290151C153.621 0.0433467 154.337 0.0629715 155.051 0.0878539L154.826 6.52614H153.289L151.353 2.91962L152.905 0.0290151ZM145.654 0.0650798C147.098 0.021791 148.547 0 150.001 0C150.807 0 151.612 0.00670274 152.415 0.0200582L150.952 2.74788H147.093L145.654 0.0650798ZM192.221 14.4261H190.463L188.527 18.0327L190.087 20.939L192.221 14.4261ZM192.334 14.0827H190.463L188.527 10.4761L190.463 6.86962H193.886C194.062 6.92611 194.237 6.98293 194.413 7.04008L194.555 7.3053L192.334 14.0827ZM190.01 5.68255C190.945 5.95448 191.877 6.23571 192.804 6.52614H190.463L190.01 5.68255ZM183.7 9.24719L184.941 4.309C186.445 4.68693 187.94 5.08872 189.426 5.51396L190.061 6.69788L188.126 10.3044H184.267L183.7 9.24719ZM182.973 12.1388L183.542 9.8741L183.865 10.4761L182.973 12.1388ZM182.406 14.3935L182.538 13.8702L184.267 10.6479H188.126L190.061 14.2544L188.126 17.8609H184.267L182.406 14.3935ZM180.586 21.6392L182.249 15.0204L183.865 18.0327L181.93 21.6392H180.586ZM178.687 29.1957L180.066 23.7059L180.499 21.9827H181.93L183.865 25.5892L181.93 29.1957H178.687ZM177.197 35.1228L178.6 29.5392H181.93L183.865 33.1457L181.93 36.7522H178.071L177.197 35.1228ZM175.929 40.1668L177.039 35.7498L177.67 36.924L175.929 40.1668ZM177.215 43.6332C176.543 43.4497 175.868 43.2728 175.192 43.1028L175.746 40.8961L177.215 43.6332ZM179.578 44.3087C178.985 44.1317 178.391 43.9599 177.795 43.7933L176.136 40.7022L178.071 37.0957H181.93L183.707 40.4069L183.209 41.9244L181.93 44.3087H179.578ZM182.169 45.0982L182.163 45.1185C181.678 44.9596 181.191 44.8041 180.703 44.6522H181.93L182.169 45.0982ZM182.434 44.2892L182.357 44.5267L182.332 44.4805L182.434 44.2892ZM186.03 33.3174L183.894 39.8354L182.332 36.924L184.267 33.3174H186.03ZM188.362 26.2017L186.143 32.974H184.267L182.332 29.3674L184.267 25.7609H188.126L188.362 26.2017ZM188.619 25.4192L188.549 25.6303L188.527 25.5892L188.619 25.4192ZM189.9 21.5104L189.394 23.0544L188.126 25.4174H184.267L182.332 21.8109L184.267 18.2044H188.126L189.9 21.5104ZM299.926 163.051L279.935 162.455L259.944 161.859C259.982 160.579 260.001 159.293 260.001 158C260.001 156.707 259.982 155.421 259.944 154.141L279.935 153.545L299.926 152.949C299.976 154.626 300.001 156.31 300.001 158C300.001 159.69 299.976 161.374 299.926 163.051ZM296.301 122.965L276.747 127.167L257.194 131.37C256.657 128.873 256.047 126.408 255.365 123.978L274.623 118.579L293.881 113.181C294.783 116.401 295.591 119.663 296.301 122.965ZM283.059 84.9848L265.139 93.866L247.219 102.747C246.095 100.479 244.904 98.256 243.65 96.0809L260.976 86.0911L278.303 76.1014C279.975 79.0026 281.562 81.965 283.059 84.9848ZM260.797 51.4907L245.685 64.5915L230.574 77.6923C228.932 75.7991 227.236 73.9657 225.487 72.1952L239.719 58.1428L253.95 44.0904C256.308 46.4781 258.592 48.9463 260.797 51.4907ZM115.061 4.309L119.935 23.7059L124.81 43.1028C122.457 43.694 120.133 44.3667 117.839 45.1185L111.61 26.1131L105.382 7.10776C108.564 6.06485 111.792 5.13056 115.061 4.309ZM77.8296 19.4565L87.8536 36.7632L97.8776 54.0698C95.7573 55.2979 93.6751 56.6006 91.6343 57.9756L80.4591 41.3891L69.2839 24.8025C72.071 22.9247 74.9209 21.1413 77.8296 19.4565ZM46.0514 44.0904L60.2827 58.1428L74.5141 72.1952C72.7657 73.9657 71.0692 75.7991 69.4279 77.6923L54.316 64.5915L39.2041 51.4907C41.4099 48.9463 43.6937 46.4781 46.0514 44.0904ZM21.6987 76.1014L39.0252 86.0911L56.3516 96.0809C55.0975 98.256 53.9069 100.479 52.7828 102.747L34.8628 93.866L16.9429 84.9848C18.4395 81.965 20.026 79.0026 21.6987 76.1014ZM6.12064 113.181L25.3783 118.579L44.636 123.977C43.9547 126.408 43.3443 128.873 42.8076 131.37L23.2541 127.167L3.70061 122.965C4.41026 119.663 5.21807 116.4 6.12064 113.181ZM0.0752042 152.949C0.0251927 154.626 0 156.31 0 158C0 159.69 0.0251927 161.374 0.0752042 163.051L20.0663 162.455L40.0574 161.859C40.0193 160.579 40 159.293 40 158C40 156.707 40.0193 155.421 40.0574 154.141L20.0663 153.545L0.0752042 152.949ZM3.70061 193.035L23.2541 188.833L42.8075 184.63C43.3443 187.127 43.9547 189.592 44.636 192.023L25.3783 197.421L6.12064 202.819C5.21807 199.599 4.41026 196.337 3.70061 193.035ZM16.9429 231.015L34.8628 222.134L52.7828 213.253C53.9068 215.521 55.0975 217.744 56.3516 219.919L39.0252 229.909L21.6987 239.899C20.026 236.997 18.4395 234.035 16.9429 231.015ZM39.2041 264.509L54.316 251.408L69.4279 238.308C71.0692 240.201 72.7657 242.034 74.5141 243.805L60.2827 257.857L46.0514 271.91C43.6937 269.522 41.4099 267.054 39.2041 264.509ZM69.2839 291.198L80.4591 274.611L91.6343 258.024C93.6751 259.399 95.7573 260.702 97.8776 261.93L87.8536 279.237L77.8296 296.543C74.9209 294.859 72.071 293.075 69.2839 291.198ZM105.382 308.892L111.61 289.887L117.839 270.881C120.133 271.633 122.457 272.306 124.81 272.897L119.935 292.294L115.061 311.691C111.792 310.869 108.564 309.935 105.382 308.892ZM144.951 315.912L145.647 295.924L146.344 275.936C147.133 275.964 147.926 275.983 148.721 275.992L147.067 279.076L149.094 282.854L147.067 286.632L149.094 290.411L147.067 294.189L149.094 297.967L147.067 301.746L149.186 305.696H153.354L154.788 308.367L155.051 315.912C153.374 315.971 151.691 316 150.001 316C148.311 316 146.627 315.971 144.951 315.912ZM219.542 274.611L217.575 271.691H217.529L215.593 275.298L217.529 278.904H221.387L221.852 278.038L219.542 274.611ZM215.825 269.093L215.03 267.913H211.333L209.398 271.519L211.333 275.126H215.191L217.127 271.519L215.825 269.093ZM214.798 267.569L210.715 261.509L209.398 263.963L211.333 267.569H214.798ZM208.367 258.024C206.819 259.067 205.248 260.068 203.654 261.027L205.137 263.791H208.996L210.44 261.1L208.367 258.024ZM202.124 261.93L204.046 265.248L204.735 263.963L203.28 261.251C202.896 261.48 202.511 261.706 202.124 261.93ZM204.302 265.691L207.579 271.348H208.996L210.931 267.741L208.996 264.135H205.137L204.302 265.691ZM207.777 271.691L210.419 276.252L210.931 275.298L208.996 271.691H207.777ZM212.148 279.237L214.144 282.682H215.191L217.127 279.076L215.191 275.469H211.333L210.675 276.695L212.148 279.237ZM214.343 283.026L216.792 287.256L217.127 286.632L215.191 283.026H214.343ZM217.049 287.698L220.709 294.017H221.387L223.322 290.411L221.387 286.804H217.529L217.049 287.698ZM222.329 296.452L222.467 296.372L221.387 294.361H220.908L222.172 296.543L222.329 296.452ZM221.67 294.189L222.752 296.206C225.46 294.621 228.116 292.95 230.718 291.198L222.06 278.348L221.67 279.076L223.697 282.854L221.67 286.632L223.697 290.411L221.67 294.189ZM147.441 279.076L149.094 275.996C149.396 275.999 149.698 276 150.001 276C151.169 276 152.332 275.981 153.489 275.942L153.67 276.28L153.853 281.531L153.235 282.682H149.376L147.441 279.076ZM153.637 282.854L153.883 282.396L153.917 283.376L153.637 282.854ZM153.235 283.026L153.951 284.361L154.1 288.627L153.235 290.239H149.376L147.441 286.632L149.376 283.026H153.235ZM153.637 290.411L154.13 289.491L154.199 291.458L153.637 290.411ZM153.235 290.582L154.233 292.442L154.347 295.723L153.235 297.796H149.376L147.441 294.189L149.376 290.582H153.235ZM153.637 297.967L154.377 296.587L154.48 299.539L153.637 297.967ZM153.235 298.139L154.514 300.523L154.594 302.819L153.235 305.352H149.376L147.441 301.746L149.376 298.139H153.235ZM153.637 305.524L154.625 303.683L154.762 307.62L153.637 305.524ZM184.941 311.691L184.533 310.071L185.348 311.588C185.212 311.623 185.076 311.657 184.941 311.691ZM186.148 305.524L184.27 309.024L182.484 301.917H184.213L186.148 305.524ZM184.213 301.574H182.398L180.586 294.361H184.213L186.148 297.967L184.213 301.574ZM184.213 294.017H180.499L180.066 292.294L179.219 288.921L180.355 286.804H184.213L186.148 290.411L184.213 294.017ZM179.953 286.632L179.061 288.294L177.737 283.026H178.018L179.953 286.632ZM178.018 282.682H177.651L175.838 275.469H178.018L179.953 279.076L178.018 282.682ZM178.018 275.126H175.752L175.192 272.897C176.779 272.498 178.354 272.062 179.915 271.59L178.018 275.126ZM182.315 271.348H180.703C181.191 271.196 181.678 271.04 182.163 270.881L182.315 271.348ZM180.355 271.691H182.428L184.572 278.235L184.213 278.904H180.355L178.419 275.298L180.355 271.691ZM184.615 279.076L184.76 278.806L185.214 280.192L184.615 279.076ZM184.213 279.248L185.989 282.557L186.11 282.926L184.213 286.461H180.355L178.419 282.854L180.355 279.248H184.213ZM184.615 286.632L186.297 283.498L188.391 289.887L188.507 290.239H186.55L184.615 286.632ZM186.55 290.582H188.619L190.765 297.131L190.409 297.796H186.55L184.615 294.189L186.55 290.582ZM190.811 297.967L190.953 297.703L191.398 299.062L190.811 297.967ZM190.409 298.139L192.173 301.427L192.303 301.823L190.409 305.352H186.55L184.615 301.746L186.55 298.139H190.409ZM190.811 305.524L192.49 302.394L194.62 308.892C194.376 308.972 194.131 309.052 193.887 309.13H192.746L190.811 305.524ZM192.746 309.474H192.805L192.734 309.496L192.746 309.474ZM192.344 309.302L192.142 309.68C190.04 310.326 187.92 310.926 185.782 311.477L184.615 309.302L186.55 305.696H190.409L192.344 309.302ZM253.95 271.91L239.719 257.857L225.487 243.805C227.236 242.034 228.932 240.201 230.574 238.308L245.685 251.408L260.797 264.509C258.592 267.054 256.308 269.522 253.95 271.91ZM278.303 239.899L260.976 229.909L243.65 219.919C244.904 217.744 246.095 215.521 247.219 213.253L265.139 222.134L283.059 231.015C281.562 234.035 279.975 236.997 278.303 239.899ZM293.881 202.819L274.623 197.421L255.365 192.023C256.047 189.592 256.657 187.127 257.194 184.63L276.747 188.833L296.301 193.035C295.591 196.337 294.783 199.6 293.881 202.819ZM221.387 279.248H217.529L215.593 282.854L217.529 286.461H221.387L223.322 282.854L221.387 279.248Z" fill="url(#paint2_linear_91_771)"/>
<defs>
<linearGradient id="paint0_linear_91_771" x1="150.001" y1="158" x2="395.546" y2="158" gradientUnits="userSpaceOnUse">
<stop stop-color="white"/>
<stop offset="1" stop-color="white" stop-opacity="0"/>
</linearGradient>
<linearGradient id="paint1_linear_91_771" x1="150.001" y1="158" x2="346.436" y2="158" gradientUnits="userSpaceOnUse">
<stop stop-color="white"/>
<stop offset="1" stop-color="white" stop-opacity="0"/>
</linearGradient>
<linearGradient id="paint2_linear_91_771" x1="150.001" y1="158" x2="502.339" y2="158" gradientUnits="userSpaceOnUse">
<stop stop-color="white"/>
<stop offset="1" stop-color="white" stop-opacity="0"/>
</linearGradient>
</defs>
</svg>
