<svg width="227" height="316" viewBox="0 0 227 316" fill="none" xmlns="http://www.w3.org/2000/svg">
<path opacity="0.08" fill-rule="evenodd" clip-rule="evenodd" d="M148.559 98.4C160.297 114.62 167.437 135.119 167.437 158C167.437 180.356 160.621 200.437 149.36 216.476L150.697 218.967L148.67 222.746L150.697 226.524L148.67 230.302L150.697 234.081L148.67 237.859L150.697 241.637L148.67 245.415L150.697 249.194L148.67 252.972L150.697 256.75L148.67 260.528L150.697 264.307L148.67 268.085L150.509 271.512C184.879 246.77 207.437 205.16 207.437 158C207.437 109.3 183.381 66.518 147.104 42.1181L148.74 45.1674L146.713 48.9457L148.74 52.724L146.713 56.5022L148.74 60.2805L146.713 64.0587L148.74 67.837L146.713 71.6153L148.74 75.3935L146.713 79.1718L148.74 82.95L146.713 86.7283L148.74 90.5066L146.713 94.2848L148.74 98.0631L148.559 98.4ZM146.268 41.5609C146.352 41.6163 146.436 41.6719 146.52 41.7275L148.366 45.1674L146.43 48.774H142.572L140.636 45.1674L142.572 41.5609H146.268ZM140.974 38.2402C142.587 39.1979 144.178 40.1906 145.746 41.2174H142.572L140.974 38.2402ZM140.198 37.7827C140.216 37.7932 140.234 37.8037 140.252 37.8143L142.17 41.3892L140.235 44.9957H136.376L134.441 41.3892L136.376 37.7827H140.198ZM135.022 34.9159C136.568 35.7259 138.096 36.5673 139.606 37.4392H136.376L135.022 34.9159ZM133.249 34.0044C133.613 34.1877 133.975 34.3728 134.337 34.5595L135.974 37.6109L134.039 41.2174H130.18L128.245 37.6109L130.18 34.0044H133.249ZM129.356 32.1239C130.432 32.6214 131.501 33.1339 132.563 33.6609H130.18L129.356 32.1239ZM125.039 30.2261C126.269 30.7395 127.489 31.2721 128.7 31.8234L129.779 33.8327L127.843 37.4392H123.985L122.05 33.8327L123.985 30.2261H125.039ZM123.922 29.7662C124.018 29.8049 124.113 29.8437 124.208 29.8827H123.985L123.922 29.7662ZM117.331 27.3018C119.34 27.9891 121.327 28.7264 123.292 29.5122L123.583 30.0544L121.648 33.6609H117.789L115.854 30.0544L117.331 27.3018ZM110.278 25.1202C112.514 25.7397 114.726 26.4202 116.913 27.1598L115.452 29.8827H111.593L109.658 26.2761L110.278 25.1202ZM104.034 23.563C105.989 23.9969 107.927 24.4769 109.848 25.0018L109.256 26.1044H105.398L104.034 23.563ZM99.6344 22.6696C100.921 22.9067 102.201 23.1636 103.474 23.4401L104.996 26.2761L103.061 29.8827H99.2022L97.2669 26.2761L99.2022 22.6696H99.6344ZM91.6267 21.4627C94.0349 21.7457 96.4233 22.0978 98.7901 22.517L96.8651 26.1044H93.0065L91.0713 22.4979L91.6267 21.4627ZM86.0645 20.9351C87.7728 21.0586 89.472 21.2168 91.1617 21.4089L90.6695 22.3261H86.8109L86.0645 20.9351ZM79.6785 20.637C81.6471 20.6788 83.6049 20.7664 85.5512 20.8991L86.4091 22.4979L84.4738 26.1044H80.6152L78.68 22.4979L79.6785 20.637ZM73.5237 20.6565C74.6792 20.6247 75.8385 20.6086 77.0013 20.6086C77.7322 20.6086 78.4616 20.615 79.1896 20.6276L78.2782 22.3261H74.4196L73.5237 20.6565ZM73.1548 20.6672C2.89648 22.8105 -53.4341 83.476 -53.4341 158C-53.4341 233.4 4.22805 294.613 75.6372 295.384L76.0939 294.533L74.0665 290.754L76.0939 286.976L74.0665 283.198L76.0939 279.42L74.0665 275.641L76.0939 271.863L74.0665 268.085L76.0939 264.307L74.0665 260.528L76.0939 256.75L75.356 255.375C28.0232 254.437 -13.4341 213.133 -13.4341 158C-13.4341 103.421 27.1939 62.3943 73.9306 60.6654L74.1371 60.2805L72.1097 56.5022L74.1371 52.724L72.1097 48.9457L74.1371 45.1674L72.1097 41.3892L74.1371 37.6109L72.1097 33.8327L74.1371 30.0544L72.1097 26.2761L74.1371 22.4979L73.1548 20.6672ZM78.3681 60.6199C77.9131 60.6124 77.4574 60.6086 77.0013 60.6086C76.1029 60.6086 75.2065 60.6232 74.3123 60.6522L74.4196 60.4522H78.2782L78.3681 60.6199ZM85.9724 61.0943C83.6221 60.8392 81.2522 60.6832 78.8673 60.6296L78.68 60.2805L80.6152 56.674H84.4738L86.4091 60.2805L85.9724 61.0943ZM91.4301 61.8698C89.7775 61.5791 88.113 61.3376 86.4384 61.1462L86.8109 60.4522H90.6695L91.4301 61.8698ZM97.2797 63.1143C95.5274 62.6761 93.759 62.2934 91.9767 61.9678L91.0713 60.2805L93.0065 56.674H96.8651L98.8004 60.2805L97.2797 63.1143ZM104.373 65.2196C102.183 64.4653 99.9624 63.7991 97.7147 63.2243L99.2022 60.4522H103.061L104.996 64.0587L104.373 65.2196ZM111.166 67.885C109.074 66.9612 106.947 66.1199 104.789 65.3643L105.398 64.2305H109.256L111.192 67.837L111.166 67.885ZM116.872 70.6544C115.131 69.7308 113.361 68.8661 111.565 68.0623L111.593 68.0087H115.452L116.872 70.6544ZM118.327 71.4435C118.073 71.3031 117.82 71.164 117.565 71.0261L115.854 67.837L117.789 64.2305H121.648L123.583 67.837L121.648 71.4435H118.327ZM122.932 74.1799C121.621 73.3471 120.29 72.5491 118.94 71.787H121.648L122.932 74.1799ZM124.534 75.2218C124.252 75.0342 123.969 74.8482 123.685 74.6638L122.05 71.6153L123.985 68.0087H127.843L129.779 71.6153L127.843 75.2218H124.534ZM129.607 78.8517C128.118 77.7077 126.597 76.6117 125.047 75.5653H127.843L129.607 78.8517ZM135.519 83.7987C133.811 82.2444 132.05 80.7584 130.241 79.3435H134.039L135.974 82.95L135.519 83.7987ZM140.897 89.1012C139.272 87.3659 137.589 85.6983 135.85 84.1016L136.376 83.1218H140.235L142.17 86.7283L140.897 89.1012ZM145.27 94.1131C143.963 92.5056 142.609 90.9464 141.21 89.4376L142.572 86.9H146.43L148.366 90.5066L146.43 94.1131H145.27ZM148.344 98.1035C147.439 96.8623 146.506 95.6463 145.548 94.4566H146.43L148.366 98.0631L148.344 98.1035ZM111.593 67.6653H115.452L117.387 64.0587L115.452 60.4522H111.593L109.658 64.0587L111.593 67.6653ZM117.789 63.887H121.648L123.583 60.2805L121.648 56.674H117.789L115.854 60.2805L117.789 63.887ZM123.985 60.1087H127.843L129.779 56.5022L127.843 52.8957H123.985L122.05 56.5022L123.985 60.1087ZM130.18 56.3305H134.039L135.974 52.724L134.039 49.1174H130.18L128.245 52.724L130.18 56.3305ZM136.376 52.5522H140.235L142.17 48.9457L140.235 45.3392H136.376L134.441 48.9457L136.376 52.5522ZM123.985 60.4522L122.05 64.0587L123.985 67.6653H127.843L129.779 64.0587L127.843 60.4522H123.985ZM130.18 56.674L128.245 60.2805L130.18 63.887H134.039L135.974 60.2805L134.039 56.674H130.18ZM136.376 52.8957L134.441 56.5022L136.376 60.1087H140.235L142.17 56.5022L140.235 52.8957H136.376ZM142.572 49.1174L140.636 52.724L142.572 56.3305H146.43L148.366 52.724L146.43 49.1174H142.572ZM142.572 56.674H146.43L148.366 60.2805L146.43 63.887H142.572L140.636 60.2805L142.572 56.674ZM136.376 60.4522L134.441 64.0587L136.376 67.6653H140.235L142.17 64.0587L140.235 60.4522H136.376ZM130.18 64.2305H134.039L135.974 67.837L134.039 71.4435H130.18L128.245 67.837L130.18 64.2305ZM146.43 71.787H142.572L140.636 75.3935L142.572 79H146.43L148.366 75.3935L146.43 71.787ZM146.43 71.4435L148.366 67.837L146.43 64.2305H142.572L140.636 67.837L142.572 71.4435H146.43ZM142.572 79.3435L140.636 82.95L142.572 86.5566H146.43L148.366 82.95L146.43 79.3435H142.572ZM140.235 75.2218H136.376L134.441 71.6153L136.376 68.0087H140.235L142.17 71.6153L140.235 75.2218ZM142.17 79.1718L140.235 82.7783H136.376L134.441 79.1718L136.376 75.5653H140.235L142.17 79.1718ZM130.18 79H134.039L135.974 75.3935L134.039 71.787H130.18L128.245 75.3935L130.18 79ZM111.593 30.2261H115.452L117.387 33.8327L115.452 37.4392H111.593L109.658 33.8327L111.593 30.2261ZM127.843 37.7827H123.985L122.05 41.3892L123.985 44.9957H127.843L129.779 41.3892L127.843 37.7827ZM123.985 45.3392L122.05 48.9457L123.985 52.5522H127.843L129.779 48.9457L127.843 45.3392H123.985ZM117.789 49.1174H121.648L123.583 52.724L121.648 56.3305H117.789L115.854 52.724L117.789 49.1174ZM121.648 41.2174H117.789L115.854 37.6109L117.789 34.0044H121.648L123.583 37.6109L121.648 41.2174ZM123.583 45.1674L121.648 48.774H117.789L115.854 45.1674L117.789 41.5609H121.648L123.583 45.1674ZM111.593 52.5522H115.452L117.387 48.9457L115.452 45.3392H111.593L109.658 48.9457L111.593 52.5522ZM111.593 52.8957L109.658 56.5022L111.593 60.1087H115.452L117.387 56.5022L115.452 52.8957H111.593ZM111.593 44.9957H115.452L117.387 41.3892L115.452 37.7827H111.593L109.658 41.3892L111.593 44.9957ZM130.18 41.5609L128.245 45.1674L130.18 48.774H134.039L135.974 45.1674L134.039 41.5609H130.18ZM105.398 26.4479H109.256L111.192 30.0544L109.256 33.6609H105.398L103.463 30.0544L105.398 26.4479ZM90.6695 60.1087H86.8109L84.8756 56.5022L86.8109 52.8957H90.6695L92.6047 56.5022L90.6695 60.1087ZM84.4738 56.3305H80.6152L78.68 52.724L80.6152 49.1174H84.4738L86.4091 52.724L84.4738 56.3305ZM78.2782 52.5522H74.4196L72.4843 48.9457L74.4196 45.3392H78.2782L80.2134 48.9457L78.2782 52.5522ZM78.2782 52.8957L80.2134 56.5022L78.2782 60.1087H74.4196L72.4843 56.5022L74.4196 52.8957H78.2782ZM96.8651 26.4479H93.0065L91.0713 30.0544L93.0065 33.6609H96.8651L98.8004 30.0544L96.8651 26.4479ZM103.061 30.2261L104.996 33.8327L103.061 37.4392H99.2022L97.2669 33.8327L99.2022 30.2261H103.061ZM109.256 34.0044H105.398L103.463 37.6109L105.398 41.2174H109.256L111.192 37.6109L109.256 34.0044ZM93.0065 41.5609H96.8651L98.8004 45.1674L96.8651 48.774H93.0065L91.0713 45.1674L93.0065 41.5609ZM93.0065 41.2174L91.0713 37.6109L93.0065 34.0044H96.8651L98.8004 37.6109L96.8651 41.2174H93.0065ZM96.8651 49.1174L98.8004 52.724L96.8651 56.3305H93.0065L91.0713 52.724L93.0065 49.1174H96.8651ZM103.061 52.8957H99.2022L97.2669 56.5022L99.2022 60.1087H103.061L104.996 56.5022L103.061 52.8957ZM99.2022 44.9957H103.061L104.996 41.3892L103.061 37.7827H99.2022L97.2669 41.3892L99.2022 44.9957ZM97.2669 48.9457L99.2022 52.5522H103.061L104.996 48.9457L103.061 45.3392H99.2022L97.2669 48.9457ZM109.256 56.3305H105.398L103.463 52.724L105.398 49.1174H109.256L111.192 52.724L109.256 56.3305ZM109.256 56.674L111.192 60.2805L109.256 63.887H105.398L103.463 60.2805L105.398 56.674H109.256ZM109.256 48.774H105.398L103.463 45.1674L105.398 41.5609H109.256L111.192 45.1674L109.256 48.774ZM90.6695 22.6696H86.8109L84.8756 26.2761L86.8109 29.8827H90.6695L92.6047 26.2761L90.6695 22.6696ZM74.4196 30.2261H78.2782L80.2134 33.8327L78.2782 37.4392H74.4196L72.4843 33.8327L74.4196 30.2261ZM74.4196 29.8827L72.4843 26.2761L74.4196 22.6696H78.2782L80.2134 26.2761L78.2782 29.8827H74.4196ZM78.2782 37.7827L80.2134 41.3892L78.2782 44.9957H74.4196L72.4843 41.3892L74.4196 37.7827H78.2782ZM84.4738 41.5609H80.6152L78.68 45.1674L80.6152 48.774H84.4738L86.4091 45.1674L84.4738 41.5609ZM80.6152 33.6609H84.4738L86.4091 30.0544L84.4738 26.4479H80.6152L78.68 30.0544L80.6152 33.6609ZM78.68 37.6109L80.6152 41.2174H84.4738L86.4091 37.6109L84.4738 34.0044H80.6152L78.68 37.6109ZM90.6695 44.9957H86.8109L84.8756 41.3892L86.8109 37.7827H90.6695L92.6047 41.3892L90.6695 44.9957ZM90.6695 45.3392L92.6047 48.9457L90.6695 52.5522H86.8109L84.8756 48.9457L86.8109 45.3392H90.6695ZM90.6695 37.4392H86.8109L84.8756 33.8327L86.8109 30.2261H90.6695L92.6047 33.8327L90.6695 37.4392ZM77.0013 255.391C78.3125 255.391 79.6195 255.36 80.9216 255.299L80.235 256.578H76.3764L75.7342 255.382C76.1561 255.388 76.5785 255.391 77.0013 255.391ZM80.6367 256.75L81.4293 255.273C83.3963 255.168 85.3519 254.994 87.2934 254.752L88.3659 256.75L86.4306 260.357H82.572L80.6367 256.75ZM88.7677 256.578L87.7557 254.693C89.9333 254.409 92.0928 254.04 94.2307 253.588L92.6263 256.578H88.7677ZM93.028 256.75L94.7889 253.469C95.2667 253.364 95.7435 253.256 96.2191 253.144H98.8219L100.757 256.75L98.8219 260.357H94.9633L93.028 256.75ZM98.8219 252.8H97.6186C98.0869 252.681 98.5541 252.558 99.0201 252.431L98.8219 252.8ZM99.2237 252.972L99.6002 252.27C101.608 251.707 103.594 251.071 105.553 250.364L106.953 252.972L105.018 256.578H101.159L99.2237 252.972ZM107.355 252.8L105.967 250.214C108.109 249.428 110.221 248.558 112.297 247.606L113.148 249.194L111.213 252.8H107.355ZM113.55 249.022L112.692 247.423C114.75 246.467 116.772 245.431 118.755 244.317L119.344 245.415L117.409 249.022H113.55ZM119.746 245.244L119.134 244.103C121.109 242.981 123.044 241.783 124.935 240.51L125.54 241.637L123.605 245.244H119.746ZM125.942 241.465L125.297 240.265C127.19 238.978 129.038 237.618 130.838 236.186L131.735 237.859L129.8 241.465H125.942ZM132.137 237.687L131.183 235.909C132.993 234.456 134.752 232.93 136.458 231.335L137.931 234.081L135.996 237.687H132.137ZM138.333 233.909L136.786 231.027C138.261 229.634 139.696 228.19 141.086 226.696H142.191L144.127 230.302L142.191 233.909H138.333ZM142.191 226.352H141.404C142.072 225.628 142.729 224.892 143.376 224.144L142.191 226.352ZM148.387 222.574H144.706C146.253 220.708 147.735 218.774 149.148 216.778L150.322 218.967L148.387 222.574ZM77.0013 295.391C78.1968 295.391 79.3886 295.374 80.5764 295.341L80.235 294.704H76.3764L76.0099 295.387C76.3401 295.39 76.6706 295.391 77.0013 295.391ZM81.0624 295.326C83.4489 295.249 85.8192 295.105 88.1717 294.895L88.3659 294.533L86.4306 290.926H82.572L80.6367 294.533L81.0624 295.326ZM88.6912 294.847C89.17 294.802 89.6481 294.755 90.1255 294.704H88.7677L88.6912 294.847ZM93.1251 294.352C95.4592 294.049 97.7743 293.681 100.069 293.249L98.8219 290.926H94.9633L93.1251 294.352ZM100.517 293.164C102.472 292.789 104.413 292.368 106.337 291.903L106.953 290.754L105.018 287.148H101.159L99.2237 290.754L100.517 293.164ZM106.905 291.764C107.979 291.498 109.047 291.219 110.11 290.926H107.355L106.905 291.764ZM111.776 290.455C113.906 289.836 116.014 289.161 118.098 288.433L117.409 287.148H113.55L111.776 290.455ZM118.514 288.287C120.675 287.523 122.812 286.701 124.921 285.823L123.605 283.37H119.746L117.811 286.976L118.514 288.287ZM125.324 285.654C127.425 284.771 129.498 283.833 131.543 282.84L129.8 279.591H125.942L124.006 283.198L125.324 285.654ZM131.935 282.649C133.938 281.667 135.914 280.634 137.861 279.55L137.931 279.42L135.996 275.813H132.137L130.202 279.42L131.935 282.649ZM138.401 279.248C140.288 278.186 142.147 277.076 143.977 275.92L144.127 275.641L142.191 272.035H138.333L136.398 275.641L138.333 279.248H138.401ZM144.685 275.47C146.568 274.263 148.42 273.008 150.238 271.706L148.387 268.257H144.529L142.593 271.863L144.529 275.47H144.685ZM113.55 271.691H117.409L119.344 268.085L117.409 264.478H113.55L111.615 268.085L113.55 271.691ZM119.746 267.913H123.605L125.54 264.307L123.605 260.7H119.746L117.811 264.307L119.746 267.913ZM125.942 264.135H129.8L131.735 260.528L129.8 256.922H125.942L124.006 260.528L125.942 264.135ZM132.137 260.357H135.996L137.931 256.75L135.996 253.144H132.137L130.202 256.75L132.137 260.357ZM138.333 256.578H142.191L144.127 252.972L142.191 249.365H138.333L136.398 252.972L138.333 256.578ZM144.529 252.8H148.387L150.322 249.194L148.387 245.587H144.529L142.593 249.194L144.529 252.8ZM113.55 272.035L111.615 275.641L113.55 279.248H117.409L119.344 275.641L117.409 272.035H113.55ZM119.746 268.257L117.811 271.863L119.746 275.47H123.605L125.54 271.863L123.605 268.257H119.746ZM125.942 264.478L124.006 268.085L125.942 271.691H129.8L131.735 268.085L129.8 264.478H125.942ZM132.137 260.7L130.202 264.307L132.137 267.913H135.996L137.931 264.307L135.996 260.7H132.137ZM138.333 256.922L136.398 260.528L138.333 264.135H142.191L144.127 260.528L142.191 256.922H138.333ZM144.529 253.144L142.593 256.75L144.529 260.357H148.387L150.322 256.75L148.387 253.144H144.529ZM125.942 272.035H129.8L131.735 275.641L129.8 279.248H125.942L124.006 275.641L125.942 272.035ZM119.746 275.813L117.811 279.42L119.746 283.026H123.605L125.54 279.42L123.605 275.813H119.746ZM113.55 279.591H117.409L119.344 283.198L117.409 286.804H113.55L111.615 283.198L113.55 279.591ZM144.529 260.7H148.387L150.322 264.307L148.387 267.913H144.529L142.593 264.307L144.529 260.7ZM138.333 264.478L136.398 268.085L138.333 271.691H142.191L144.127 268.085L142.191 264.478H138.333ZM132.137 268.257H135.996L137.931 271.863L135.996 275.47H132.137L130.202 271.863L132.137 268.257ZM125.942 241.809H129.8L131.735 245.415L129.8 249.022H125.942L124.006 245.415L125.942 241.809ZM124.006 252.972L125.942 249.365H129.8L131.735 252.972L129.8 256.578H125.942L124.006 252.972ZM123.605 253.144H119.746L117.811 256.75L119.746 260.357H123.605L125.54 256.75L123.605 253.144ZM123.605 252.8L125.54 249.194L123.605 245.587H119.746L117.811 249.194L119.746 252.8H123.605ZM117.409 256.578H113.55L111.615 252.972L113.55 249.365H117.409L119.344 252.972L117.409 256.578ZM111.615 260.528L113.55 256.922H117.409L119.344 260.528L117.409 264.135H113.55L111.615 260.528ZM144.529 230.474H148.387L150.322 234.081L148.387 237.687H144.529L142.593 234.081L144.529 230.474ZM150.322 226.524L148.387 230.131H144.529L142.593 226.524L144.529 222.917H148.387L150.322 226.524ZM142.593 241.637L144.529 238.031H148.387L150.322 241.637L148.387 245.244H144.529L142.593 241.637ZM142.191 241.809H138.333L136.398 245.415L138.333 249.022H142.191L144.127 245.415L142.191 241.809ZM142.191 241.465L144.127 237.859L142.191 234.252H138.333L136.398 237.859L138.333 241.465H142.191ZM135.996 245.244H132.137L130.202 241.637L132.137 238.031H135.996L137.931 241.637L135.996 245.244ZM130.202 249.194L132.137 245.587H135.996L137.931 249.194L135.996 252.8H132.137L130.202 249.194ZM111.213 275.47H107.355L105.419 271.863L107.355 268.257H111.213L113.148 271.863L111.213 275.47ZM105.018 271.691H101.159L99.2237 268.085L101.159 264.478H105.018L106.953 268.085L105.018 271.691ZM98.8219 267.913H94.9633L93.028 264.307L94.9633 260.7H98.8219L100.757 264.307L98.8219 267.913ZM92.6263 264.135H88.7677L86.8324 260.528L88.7677 256.922H92.6263L94.5615 260.528L92.6263 264.135ZM111.213 275.813L113.148 279.42L111.213 283.026H107.355L105.419 279.42L107.355 275.813H111.213ZM105.018 272.035L106.953 275.641L105.018 279.248H101.159L99.2237 275.641L101.159 272.035H105.018ZM98.8219 268.257L100.757 271.863L98.8219 275.47H94.9633L93.028 271.863L94.9633 268.257H98.8219ZM92.6263 264.478L94.5615 268.085L92.6263 271.691H88.7677L86.8324 268.085L88.7677 264.478H92.6263ZM86.4306 260.7L88.3659 264.307L86.4306 267.913H82.572L80.6367 264.307L82.572 260.7H86.4306ZM80.235 256.922L82.1702 260.528L80.235 264.135H76.3764L74.4411 260.528L76.3764 256.922H80.235ZM98.8219 275.813H94.9633L93.028 279.42L94.9633 283.026H98.8219L100.757 279.42L98.8219 275.813ZM105.018 279.591L106.953 283.198L105.018 286.804H101.159L99.2237 283.198L101.159 279.591H105.018ZM111.213 283.37H107.355L105.419 286.976L107.355 290.583H111.213L113.148 286.976L111.213 283.37ZM94.9633 290.583L93.028 286.976L94.9633 283.37H98.8219L100.757 286.976L98.8219 290.583H94.9633ZM80.235 264.478H76.3764L74.4411 268.085L76.3764 271.691H80.235L82.1702 268.085L80.235 264.478ZM86.4306 268.257L88.3659 271.863L86.4306 275.47H82.572L80.6367 271.863L82.572 268.257H86.4306ZM92.6263 272.035H88.7677L86.8324 275.641L88.7677 279.248H92.6263L94.5615 275.641L92.6263 272.035ZM76.3764 279.591H80.235L82.1702 283.198L80.235 286.804H76.3764L74.4411 283.198L76.3764 279.591ZM76.3764 279.248L74.4411 275.641L76.3764 272.035H80.235L82.1702 275.641L80.235 279.248H76.3764ZM80.235 287.148L82.1702 290.754L80.235 294.361H76.3764L74.4411 290.754L76.3764 287.148H80.235ZM82.572 283.026H86.4306L88.3659 279.42L86.4306 275.813H82.572L80.6367 279.42L82.572 283.026ZM80.6367 286.976L82.572 290.583H86.4306L88.3659 286.976L86.4306 283.37H82.572L80.6367 286.976ZM92.6263 294.361H88.7677L86.8324 290.754L88.7677 287.148H92.6263L94.5615 290.754L92.6263 294.361ZM92.6263 286.804H88.7677L86.8324 283.198L88.7677 279.591H92.6263L94.5615 283.198L92.6263 286.804ZM101.159 256.922H105.018L106.953 260.528L105.018 264.135H101.159L99.2237 260.528L101.159 256.922ZM107.355 260.357H111.213L113.148 256.75L111.213 253.144H107.355L105.419 256.75L107.355 260.357ZM113.148 264.307L111.213 260.7H107.355L105.419 264.307L107.355 267.913H111.213L113.148 264.307Z" fill="url(#paint0_linear_62_20)"/>
<path opacity="0.08" fill-rule="evenodd" clip-rule="evenodd" d="M148.398 106.257C157.8 120.893 163.349 138.647 163.349 158C163.349 176.827 158.098 194.139 149.157 208.541L150.697 211.411L148.67 215.189L150.697 218.967L148.67 222.746L150.697 226.524L148.67 230.302L150.697 234.081L148.67 237.859L148.68 237.878C168.797 217.842 181.349 189.465 181.349 158C181.349 126.059 168.414 97.3003 147.761 77.2183L146.713 79.1718L148.74 82.95L146.713 86.7283L148.74 90.5066L146.713 94.2848L148.74 98.0631L146.713 101.841L148.74 105.62L148.398 106.257ZM142.311 72.2725C144.095 73.782 145.83 75.3519 147.515 76.9794L146.43 79H142.572L140.636 75.3935L142.311 72.2725ZM136.928 68.0087C138.648 69.2819 140.33 70.6084 141.971 71.9859L140.235 75.2218H136.376L134.441 71.6153L136.376 68.0087H136.928ZM136.321 67.5634C136.368 67.5973 136.414 67.6313 136.461 67.6653H136.376L136.321 67.5634ZM131.468 64.2305C132.838 65.1154 134.188 66.0327 135.515 66.9813L135.974 67.837L134.039 71.4435H130.18L128.245 67.837L130.18 64.2305H131.468ZM129.798 63.1741C130.178 63.4093 130.556 63.6469 130.933 63.887H130.18L129.798 63.1741ZM125.132 60.4522C126.459 61.1801 127.769 61.9372 129.062 62.7226L129.779 64.0587L127.843 67.6653H123.985L122.05 64.0587L123.985 60.4522H125.132ZM123.778 59.7225C124.019 59.8503 124.26 59.9791 124.5 60.1087H123.985L123.778 59.7225ZM117.734 56.7765C119.546 57.5866 121.332 58.4491 123.09 59.3622L123.583 60.2805L121.648 63.887H117.789L115.854 60.2805L117.734 56.7765ZM110.977 54.0449C113.129 54.8252 115.249 55.6775 117.335 56.5992L115.452 60.1087H111.593L109.658 56.5022L110.977 54.0449ZM103.963 51.7914C106.193 52.4179 108.394 53.1204 110.563 53.8959L109.256 56.3305H105.398L103.463 52.724L103.963 51.7914ZM98.001 50.3137C99.8636 50.7146 101.708 51.1678 103.533 51.6717L103.061 52.5522H99.2022L98.001 50.3137ZM92.8808 49.3517C94.4129 49.5981 95.9341 49.8796 97.4436 50.1954L98.8004 52.724L96.8651 56.3305H93.0065L91.0713 52.724L92.8808 49.3517ZM85.1588 48.418C87.6057 48.6173 90.0289 48.9055 92.4256 49.2796L90.6695 52.5522H86.8109L84.8756 48.9457L85.1588 48.418ZM80.2751 48.1401C81.753 48.1881 83.2231 48.2685 84.6849 48.3805L84.4738 48.774H80.6152L80.2751 48.1401ZM72.9004 48.1703C74.2606 48.115 75.6275 48.087 77.0007 48.087C77.9277 48.087 78.8519 48.0998 79.7731 48.1251L80.2134 48.9457L78.2782 52.5522H74.4196L72.4843 48.9457L72.9004 48.1703ZM72.517 48.1867C16.9669 50.6602 -27.3477 98.8791 -27.3477 158C-27.3477 217.71 17.8539 266.299 74.1798 267.874L76.0939 264.307L74.0665 260.528L76.0939 256.75L74.0665 252.972L75.7133 249.903C29.4592 249.173 -9.34766 209.181 -9.34766 158C-9.34766 107.733 28.0867 68.2578 73.2446 66.1736L72.1097 64.0587L74.1371 60.2805L72.1097 56.5022L74.1371 52.724L72.1097 48.9457L72.517 48.1867ZM79.1104 66.1143C78.4089 66.0962 77.7056 66.087 77.0007 66.087C75.8662 66.087 74.736 66.1107 73.6105 66.1575L72.4843 64.0587L74.4196 60.4522H78.2782L80.2134 64.0587L79.1104 66.1143ZM85.7215 66.5556C83.6972 66.3372 81.6547 66.1939 79.5968 66.1284L80.6152 64.2305H84.4738L85.7215 66.5556ZM90.8763 67.2799C89.3448 67.0143 87.8013 66.792 86.2468 66.614L84.8756 64.0587L86.8109 60.4522H90.6695L92.6047 64.0587L90.8763 67.2799ZM98.2257 68.908C95.9578 68.2945 93.657 67.7769 91.3275 67.3594L93.0065 64.2305H96.8651L98.8004 67.837L98.2257 68.908ZM104.625 70.9238C102.664 70.217 100.673 69.5834 98.6564 69.0258L99.2022 68.0087H103.061L104.625 70.9238ZM106.027 71.4435C105.765 71.3437 105.502 71.2452 105.239 71.1479L103.463 67.837L105.398 64.2305H109.256L111.192 67.837L109.256 71.4435H106.027ZM109.932 73.0462C108.935 72.607 107.928 72.1871 106.913 71.787H109.256L109.932 73.0462ZM114.495 75.2218C113.207 74.5595 111.902 73.9304 110.581 73.3353L109.658 71.6153L111.593 68.0087H115.452L117.387 71.6153L115.452 75.2218H114.495ZM115.57 75.7844C115.432 75.711 115.294 75.6379 115.155 75.5653H115.452L115.57 75.7844ZM121.097 79C119.517 77.9999 117.905 77.052 116.264 76.1586L115.854 75.3935L117.789 71.787H121.648L123.583 75.3935L121.648 79H121.097ZM121.654 79.356C121.648 79.3519 121.641 79.3477 121.635 79.3435H121.648L121.654 79.356ZM126.585 82.7783C125.222 81.7608 123.831 80.7844 122.414 79.8506L122.05 79.1718L123.985 75.5653H127.843L129.779 79.1718L127.843 82.7783H126.585ZM128.411 84.179C127.958 83.822 127.502 83.4695 127.042 83.1218H127.843L128.411 84.179ZM131.298 86.5566C130.632 85.9837 129.957 85.4212 129.275 84.8694L128.245 82.95L130.18 79.3435H134.039L135.974 82.95L134.039 86.5566H131.298ZM135.844 90.7493C134.5 89.42 133.116 88.1362 131.695 86.9H134.039L135.974 90.5066L135.844 90.7493ZM141.056 96.3613C139.492 94.5274 137.861 92.7621 136.166 91.0695L136.376 90.6783H140.235L142.17 94.2848L141.056 96.3613ZM145.25 101.67C144.007 99.9694 142.708 98.318 141.358 96.718L142.572 94.4566H146.43L148.366 98.0631L146.43 101.67H145.25ZM148.193 105.941C147.328 104.605 146.429 103.295 145.501 102.013H146.43L148.366 105.62L148.193 105.941ZM146.43 94.1131H142.572L140.636 90.5066L142.572 86.9H146.43L148.366 90.5066L146.43 94.1131ZM111.593 67.6653H115.452L117.387 64.0587L115.452 60.4522H111.593L109.658 64.0587L111.593 67.6653ZM117.789 64.2305L115.854 67.837L117.789 71.4435H121.648L123.583 67.837L121.648 64.2305H117.789ZM123.985 68.0087H127.843L129.779 71.6153L127.843 75.2218H123.985L122.05 71.6153L123.985 68.0087ZM142.572 79.3435L140.636 82.95L142.572 86.5566H146.43L148.366 82.95L146.43 79.3435H142.572ZM136.376 83.1218H140.235L142.17 86.7283L140.235 90.3348H136.376L134.441 86.7283L136.376 83.1218ZM142.17 79.1718L140.235 82.7783H136.376L134.441 79.1718L136.376 75.5653H140.235L142.17 79.1718ZM130.18 79H134.039L135.974 75.3935L134.039 71.787H130.18L128.245 75.3935L130.18 79ZM103.061 67.6653H99.2022L97.2669 64.0587L99.2022 60.4522H103.061L104.996 64.0587L103.061 67.6653ZM96.8651 63.887H93.0065L91.0713 60.2805L93.0065 56.674H96.8651L98.8004 60.2805L96.8651 63.887ZM90.6695 60.1087H86.8109L84.8756 56.5022L86.8109 52.8957H90.6695L92.6047 56.5022L90.6695 60.1087ZM84.4738 56.3305H80.6152L78.68 52.724L80.6152 49.1174H84.4738L86.4091 52.724L84.4738 56.3305ZM84.4738 56.674L86.4091 60.2805L84.4738 63.887H80.6152L78.68 60.2805L80.6152 56.674H84.4738ZM78.2782 52.8957L80.2134 56.5022L78.2782 60.1087H74.4196L72.4843 56.5022L74.4196 52.8957H78.2782ZM103.061 52.8957H99.2022L97.2669 56.5022L99.2022 60.1087H103.061L104.996 56.5022L103.061 52.8957ZM109.256 56.674L111.192 60.2805L109.256 63.887H105.398L103.463 60.2805L105.398 56.674H109.256ZM77.0007 249.913C78.1681 249.913 79.331 249.888 80.4889 249.838L82.1702 252.972L80.235 256.578H76.3764L74.4411 252.972L76.0852 249.908C76.39 249.911 76.6952 249.913 77.0007 249.913ZM82.572 252.8L80.9709 249.816C83.4479 249.696 85.9015 249.462 88.3268 249.121L88.3659 249.194L86.4306 252.8H82.572ZM92.6263 249.022H89.0079C90.3482 248.822 91.6797 248.588 93.0015 248.323L92.6263 249.022ZM93.0281 249.194L93.5564 248.209C95.543 247.795 97.5074 247.309 99.4468 246.752L100.757 249.194L98.8219 252.8H94.9633L93.0281 249.194ZM101.159 249.022L99.8742 246.628C102.088 245.979 104.269 245.238 106.413 244.409L106.953 245.415L105.018 249.022H101.159ZM107.355 245.244L106.821 244.249C108.943 243.416 111.028 242.496 113.071 241.493L113.148 241.637L111.213 245.244H107.355ZM113.55 241.465L113.462 241.301C115.403 240.336 117.307 239.296 119.169 238.185L117.409 241.465H113.55ZM123.605 237.687H119.993C121.875 236.536 123.713 235.311 125.505 234.015L125.54 234.081L123.605 237.687ZM125.942 233.909L125.86 233.757C127.72 232.398 129.529 230.964 131.282 229.457L131.735 230.302L129.8 233.909H125.942ZM132.137 230.131L131.62 229.166C133.391 227.628 135.105 226.017 136.757 224.335L137.931 226.524L135.996 230.131H132.137ZM138.333 226.352L137.076 224.009C138.598 222.444 140.066 220.82 141.479 219.139H142.191L144.127 222.746L142.191 226.352H138.333ZM142.191 218.796H141.766C142.188 218.288 142.605 217.776 143.017 217.258L142.191 218.796ZM148.387 215.017H144.743C146.224 213.033 147.63 210.98 148.956 208.864L150.322 211.411L148.387 215.017ZM77.0007 267.913C78.6804 267.913 80.3509 267.871 82.0113 267.789L80.235 264.478H76.3764L74.5492 267.883C75.3641 267.903 76.1813 267.913 77.0007 267.913ZM82.4917 267.764C83.8957 267.687 85.2923 267.581 86.681 267.446L88.3659 264.307L86.4306 260.7H82.572L80.6367 264.307L82.4917 267.764ZM87.2029 267.394C89.3947 267.17 91.5667 266.875 93.7166 266.51L92.6263 264.478H88.7677L87.2029 267.394ZM94.1689 266.433C96.2327 266.073 98.2762 265.649 100.297 265.164L100.757 264.307L98.8219 260.7H94.9633L93.0281 264.307L94.1689 266.433ZM100.865 265.025C101.575 264.851 102.281 264.668 102.984 264.478H101.159L100.865 265.025ZM104.225 264.135C104.538 264.046 104.851 263.955 105.163 263.863L106.953 260.528L105.018 256.922H101.159L99.2237 260.528L101.159 264.135H104.225ZM105.751 263.688C107.772 263.079 109.768 262.408 111.737 261.676L111.213 260.7H107.355L105.751 263.688ZM112.148 261.522C114.288 260.716 116.394 259.839 118.466 258.893L117.409 256.922H113.55L111.615 260.528L112.148 261.522ZM118.863 258.711C120.927 257.757 122.957 256.736 124.949 255.648L123.605 253.144H119.746L117.811 256.75L118.863 258.711ZM125.33 255.439C127.321 254.341 129.275 253.177 131.187 251.95L129.8 249.365H125.942L124.006 252.972L125.33 255.439ZM131.554 251.714C133.473 250.472 135.35 249.167 137.184 247.801L135.996 245.587H132.137L130.202 249.194L131.554 251.714ZM137.536 247.537C139.382 246.151 141.182 244.702 142.935 243.195L142.191 241.809H138.333L136.398 245.415L137.536 247.537ZM143.273 242.904C145.044 241.369 146.765 239.773 148.435 238.12L148.387 238.031H144.529L142.593 241.637L143.273 242.904ZM125.942 241.809H129.8L131.735 245.415L129.8 249.022H125.942L124.006 245.415L125.942 241.809ZM131.735 237.859L129.8 241.465H125.942L124.006 237.859L125.942 234.252H129.8L131.735 237.859ZM119.746 245.244H123.605L125.54 241.637L123.605 238.031H119.746L117.811 241.637L119.746 245.244ZM123.605 252.8L125.54 249.194L123.605 245.587H119.746L117.811 249.194L119.746 252.8H123.605ZM117.409 256.578H113.55L111.615 252.972L113.55 249.365H117.409L119.344 252.972L117.409 256.578ZM117.409 249.022H113.55L111.615 245.415L113.55 241.809H117.409L119.344 245.415L117.409 249.022ZM148.387 215.361H144.529L142.593 218.967L144.529 222.574H148.387L150.322 218.967L148.387 215.361ZM144.529 230.474H148.387L150.322 234.081L148.387 237.687H144.529L142.593 234.081L144.529 230.474ZM150.322 226.524L148.387 230.131H144.529L142.593 226.524L144.529 222.917H148.387L150.322 226.524ZM138.333 233.909H142.191L144.127 230.302L142.191 226.696H138.333L136.398 230.302L138.333 233.909ZM142.191 241.465L144.127 237.859L142.191 234.252H138.333L136.398 237.859L138.333 241.465H142.191ZM135.996 245.244H132.137L130.202 241.637L132.137 238.031H135.996L137.931 241.637L135.996 245.244ZM135.996 237.687H132.137L130.202 234.081L132.137 230.474H135.996L137.931 234.081L135.996 237.687ZM92.6263 264.135H88.7677L86.8324 260.528L88.7677 256.922H92.6263L94.5615 260.528L92.6263 264.135ZM86.4306 260.357H82.572L80.6367 256.75L82.572 253.144H86.4306L88.3659 256.75L86.4306 260.357ZM80.235 256.922L82.1702 260.528L80.235 264.135H76.3764L74.4411 260.528L76.3764 256.922H80.235ZM100.757 256.75L98.8219 253.144H94.9633L93.0281 256.75L94.9633 260.357H98.8219L100.757 256.75ZM101.159 256.578L99.2237 252.972L101.159 249.365H105.018L106.953 252.972L105.018 256.578H101.159ZM107.355 260.357H111.213L113.148 256.75L111.213 253.144H107.355L105.419 256.75L107.355 260.357ZM107.355 252.8H111.213L113.148 249.194L111.213 245.587H107.355L105.419 249.194L107.355 252.8ZM94.5615 252.972L92.6263 249.365H88.7677L86.8324 252.972L88.7677 256.578H92.6263L94.5615 252.972Z" fill="url(#paint1_linear_62_20)"/>
<path opacity="0.08" fill-rule="evenodd" clip-rule="evenodd" d="M147.789 39.5385L157.718 24.8025C154.931 22.9247 152.081 21.1413 149.172 19.4565L147.07 23.0853L148.414 25.5892L146.386 29.3674L148.414 33.1457L146.386 36.924L147.789 39.5385ZM143.531 29.1957L146.876 23.421L148.039 25.5892L146.104 29.1957H143.531ZM140.759 33.982L143.332 29.5392H146.104L148.039 33.1457L146.104 36.7522H142.245L140.759 33.982ZM136.966 40.5305L139.148 36.7632L140.502 34.4247L141.843 36.924L139.908 40.5305H136.966ZM134.385 44.9856L136.767 40.874H139.908L141.843 44.4805L139.908 48.087H136.05L134.385 44.9856ZM130.401 51.8653L134.129 45.4283L135.648 48.2587L133.713 51.8653H130.401ZM134.721 57.5433C132.887 56.3269 131.021 55.1684 129.124 54.0698L130.202 52.2087H133.713L135.648 55.8153L134.721 57.5433ZM136.707 55.987L135.367 57.9756C135.273 57.9122 135.179 57.8489 135.084 57.7858L136.05 55.987H136.707ZM140.746 49.992L136.938 55.6435H136.05L134.114 52.037L136.05 48.4305H139.908L140.746 49.992ZM144.344 44.6522L141.021 49.5839L140.31 48.2587L142.245 44.6522H144.344ZM147.581 39.8479L146.542 41.3891L144.575 44.3087H142.245L140.31 40.7022L142.245 37.0957H146.104L147.581 39.8479ZM72.2851 0.0765931C72.1736 0.0802186 72.0622 0.0839723 71.9508 0.0878539L72.1569 6.00161L73.8107 2.91962L72.2851 0.0765931ZM72.1828 6.74432L72.1797 6.6571L74.0931 3.09136H77.9517L79.8869 6.69788L77.9517 10.3044H74.0931L72.1828 6.74432ZM72.2088 7.49085L72.4041 13.0974L73.8107 10.4761L72.2088 7.49085ZM72.4643 14.8256L72.427 13.7529L74.0931 10.6479H77.9517L79.8869 14.2544L77.9517 17.8609H74.0931L72.4643 14.8256ZM72.4904 15.5721L72.6473 20.0757L72.6514 20.1931L73.8107 18.0327L72.4904 15.5721ZM72.7459 22.9069L72.6742 20.8486L74.0931 18.2044H77.9517L79.8869 21.8109L77.9517 25.4174H74.0931L72.7459 22.9069ZM72.7719 23.6534L72.8986 27.2889L73.8107 25.5892L72.7719 23.6534ZM73.0275 30.9882L72.9214 27.9444L74.0931 25.7609H77.9517L79.8869 29.3674L77.9517 32.974H74.0931L73.0275 30.9882ZM73.0535 31.7347L73.1459 34.3846L73.8107 33.1457L73.0535 31.7347ZM73.3091 39.0694L73.1687 35.0401L74.0931 33.3174H77.9517L79.8869 36.924L78.2325 40.0072C77.8226 40.0024 77.412 40 77.0007 40C75.9404 40 74.8847 40.016 73.834 40.0477L73.3091 39.0694ZM73.3351 39.816L73.3437 40.0636C73.3844 40.0622 73.4251 40.0608 73.4657 40.0594L73.3351 39.816ZM80.7611 37.0957L80.6577 40.0636C80.0146 40.0412 79.3696 40.0247 78.7227 40.0141L80.2887 37.0957H80.7611ZM81.0244 29.5392L80.7731 36.7522H80.2887L78.3535 33.1457L80.2887 29.5392H81.0244ZM81.2877 21.9827L81.0364 29.1957H80.2887L78.3535 25.5892L80.2887 21.9827H81.2877ZM81.551 14.4261L81.3542 20.0757L81.2997 21.6392H80.2887L78.3535 18.0327L80.2887 14.4261H81.551ZM81.8143 6.86962L81.563 14.0827H80.2887L78.3535 10.4761L80.2887 6.86962H81.8143ZM79.9046 0.0290151C80.6212 0.0433467 81.3365 0.0629715 82.0506 0.0878539L81.8263 6.52614H80.2887L78.3535 2.91962L79.9046 0.0290151ZM72.6535 0.0650798C74.0976 0.021791 75.5467 0 77.0007 0C77.8071 0 78.6121 0.00670274 79.4154 0.0200582L77.9517 2.74788H74.0931L72.6535 0.0650798ZM119.221 14.4261H117.463L115.527 18.0327L117.087 20.939L119.221 14.4261ZM119.334 14.0827H117.463L115.527 10.4761L117.463 6.86962H120.886C121.062 6.92611 121.237 6.98293 121.413 7.04008L121.555 7.3053L119.334 14.0827ZM117.01 5.68255C117.945 5.95448 118.877 6.23571 119.804 6.52614H117.463L117.01 5.68255ZM110.7 9.24719L111.941 4.309C113.445 4.68693 114.94 5.08872 116.426 5.51396L117.061 6.69788L115.126 10.3044H111.267L110.7 9.24719ZM109.973 12.1388L110.542 9.8741L110.865 10.4761L109.973 12.1388ZM109.406 14.3935L109.538 13.8702L111.267 10.6479H115.126L117.061 14.2544L115.126 17.8609H111.267L109.406 14.3935ZM107.586 21.6392L109.249 15.0204L110.865 18.0327L108.93 21.6392H107.586ZM105.687 29.1957L107.066 23.7059L107.499 21.9827H108.93L110.865 25.5892L108.93 29.1957H105.687ZM104.197 35.1228L105.6 29.5392H108.93L110.865 33.1457L108.93 36.7522H105.071L104.197 35.1228ZM102.929 40.1668L104.039 35.7498L104.67 36.924L102.929 40.1668ZM104.215 43.6332C103.543 43.4497 102.868 43.2728 102.192 43.1028L102.746 40.8961L104.215 43.6332ZM106.578 44.3087C105.985 44.1317 105.391 43.9599 104.795 43.7933L103.136 40.7022L105.071 37.0957H108.93L110.707 40.4069L110.209 41.9244L108.93 44.3087H106.578ZM109.169 45.0982L109.163 45.1185C108.678 44.9596 108.191 44.8041 107.703 44.6522H108.93L109.169 45.0982ZM109.434 44.2892L109.357 44.5267L109.332 44.4805L109.434 44.2892ZM113.03 33.3174L110.894 39.8354L109.332 36.924L111.267 33.3174H113.03ZM115.362 26.2017L113.143 32.974H111.267L109.332 29.3674L111.267 25.7609H115.126L115.362 26.2017ZM115.619 25.4192L115.549 25.6303L115.527 25.5892L115.619 25.4192ZM116.9 21.5104L116.394 23.0544L115.126 25.4174H111.267L109.332 21.8109L111.267 18.2044H115.126L116.9 21.5104ZM226.926 163.051L206.935 162.455L186.944 161.859C186.982 160.579 187.001 159.293 187.001 158C187.001 156.707 186.982 155.421 186.944 154.141L206.935 153.545L226.926 152.949C226.976 154.626 227.001 156.31 227.001 158C227.001 159.69 226.976 161.374 226.926 163.051ZM223.301 122.965L203.747 127.167L184.194 131.37C183.657 128.873 183.047 126.408 182.365 123.978L201.623 118.579L220.881 113.181C221.783 116.401 222.591 119.663 223.301 122.965ZM210.059 84.9848L192.139 93.866L174.219 102.747C173.095 100.479 171.904 98.256 170.65 96.0809L187.976 86.0911L205.303 76.1014C206.975 79.0026 208.562 81.965 210.059 84.9848ZM187.797 51.4907L172.685 64.5915L157.574 77.6923C155.932 75.7991 154.236 73.9657 152.487 72.1952L166.719 58.1428L180.95 44.0904C183.308 46.4781 185.592 48.9463 187.797 51.4907ZM42.0608 4.309L46.9353 23.7059L51.8098 43.1028C49.4573 43.694 47.1328 44.3667 44.8389 45.1185L38.6103 26.1131L32.3817 7.10776C35.5639 6.06485 38.7916 5.13056 42.0608 4.309ZM4.82959 19.4565L14.8536 36.7632L24.8776 54.0698C22.7573 55.2979 20.6751 56.6006 18.6343 57.9756L7.45908 41.3891L-3.71613 24.8025C-0.929047 22.9247 1.92088 21.1413 4.82959 19.4565ZM-26.9486 44.0904L-12.7173 58.1428L1.51405 72.1952C-0.234261 73.9657 -1.93079 75.7991 -3.57207 77.6923L-18.684 64.5915L-33.7959 51.4907C-31.5901 48.9463 -29.3063 46.4781 -26.9486 44.0904ZM-51.3013 76.1014L-33.9748 86.0911L-16.6484 96.0809C-17.9025 98.256 -19.0931 100.479 -20.2172 102.747L-38.1372 93.866L-56.0571 84.9848C-54.5605 81.965 -52.974 79.0026 -51.3013 76.1014ZM-66.8794 113.181L-47.6217 118.579L-28.364 123.977C-29.0453 126.408 -29.6557 128.873 -30.1924 131.37L-49.7459 127.167L-69.2994 122.965C-68.5897 119.663 -67.7819 116.4 -66.8794 113.181ZM-72.9248 152.949C-72.9748 154.626 -73 156.31 -73 158C-73 159.69 -72.9748 161.374 -72.9248 163.051L-52.9337 162.455L-32.9426 161.859C-32.9807 160.579 -33 159.293 -33 158C-33 156.707 -32.9807 155.421 -32.9426 154.141L-52.9337 153.545L-72.9248 152.949ZM-69.2994 193.035L-49.7459 188.833L-30.1925 184.63C-29.6557 187.127 -29.0453 189.592 -28.364 192.023L-47.6217 197.421L-66.8794 202.819C-67.7819 199.599 -68.5897 196.337 -69.2994 193.035ZM-56.0571 231.015L-38.1372 222.134L-20.2172 213.253C-19.0932 215.521 -17.9025 217.744 -16.6484 219.919L-33.9748 229.909L-51.3013 239.899C-52.974 236.997 -54.5605 234.035 -56.0571 231.015ZM-33.7959 264.509L-18.684 251.408L-3.57208 238.308C-1.93079 240.201 -0.234268 242.034 1.51405 243.805L-12.7173 257.857L-26.9486 271.91C-29.3063 269.522 -31.5901 267.054 -33.7959 264.509ZM-3.71612 291.198L7.45908 274.611L18.6343 258.024C20.6751 259.399 22.7573 260.702 24.8776 261.93L14.8536 279.237L4.8296 296.543C1.92089 294.859 -0.929039 293.075 -3.71612 291.198ZM32.3817 308.892L38.6103 289.887L44.8389 270.881C47.1328 271.633 49.4573 272.306 51.8098 272.897L46.9353 292.294L42.0608 311.691C38.7916 310.869 35.5639 309.935 32.3817 308.892ZM71.9508 315.912L72.6473 295.924L73.3437 275.936C74.1335 275.964 74.926 275.983 75.7213 275.992L74.0665 279.076L76.0939 282.854L74.0665 286.632L76.0939 290.411L74.0665 294.189L76.0939 297.967L74.0665 301.746L76.1861 305.696H80.3543L81.7877 308.367L82.0506 315.912C80.3742 315.971 78.6907 316 77.0007 316C75.3108 316 73.6273 315.971 71.9508 315.912ZM146.542 274.611L144.575 271.691H144.529L142.593 275.298L144.529 278.904H148.387L148.852 278.038L146.542 274.611ZM142.825 269.093L142.03 267.913H138.333L136.398 271.519L138.333 275.126H142.191L144.127 271.519L142.825 269.093ZM141.798 267.569L137.715 261.509L136.398 263.963L138.333 267.569H141.798ZM135.367 258.024C133.819 259.067 132.248 260.068 130.654 261.027L132.137 263.791H135.996L137.44 261.1L135.367 258.024ZM129.124 261.93L131.046 265.248L131.735 263.963L130.28 261.251C129.896 261.48 129.511 261.706 129.124 261.93ZM131.302 265.691L134.579 271.348H135.996L137.931 267.741L135.996 264.135H132.137L131.302 265.691ZM134.777 271.691L137.419 276.252L137.931 275.298L135.996 271.691H134.777ZM139.148 279.237L141.144 282.682H142.191L144.127 279.076L142.191 275.469H138.333L137.675 276.695L139.148 279.237ZM141.343 283.026L143.792 287.256L144.127 286.632L142.191 283.026H141.343ZM144.049 287.698L147.709 294.017H148.387L150.322 290.411L148.387 286.804H144.529L144.049 287.698ZM149.329 296.452L149.467 296.372L148.387 294.361H147.908L149.172 296.543L149.329 296.452ZM148.67 294.189L149.752 296.206C152.46 294.621 155.116 292.95 157.718 291.198L149.06 278.348L148.67 279.076L150.697 282.854L148.67 286.632L150.697 290.411L148.67 294.189ZM74.4411 279.076L76.0938 275.996C76.3957 275.999 76.698 276 77.0007 276C78.1692 276 79.3319 275.981 80.4886 275.942L80.6697 276.28L80.8527 281.531L80.235 282.682H76.3764L74.4411 279.076ZM80.6367 282.854L80.8828 282.396L80.917 283.376L80.6367 282.854ZM80.235 283.026L80.9513 284.361L81.0999 288.627L80.235 290.239H76.3764L74.4411 286.632L76.3764 283.026H80.235ZM80.6367 290.411L81.13 289.491L81.1985 291.458L80.6367 290.411ZM80.235 290.582L81.2328 292.442L81.3472 295.723L80.235 297.796H76.3764L74.4411 294.189L76.3764 290.582H80.235ZM80.6367 297.967L81.3773 296.587L81.4801 299.539L80.6367 297.967ZM80.235 298.139L81.5144 300.523L81.5944 302.819L80.235 305.352H76.3764L74.4411 301.746L76.3764 298.139H80.235ZM80.6367 305.524L81.6245 303.683L81.7617 307.62L80.6367 305.524ZM111.941 311.691L111.533 310.071L112.348 311.588C112.212 311.623 112.076 311.657 111.941 311.691ZM113.148 305.524L111.27 309.024L109.484 301.917H111.213L113.148 305.524ZM111.213 301.574H109.398L107.586 294.361H111.213L113.148 297.967L111.213 301.574ZM111.213 294.017H107.499L107.066 292.294L106.219 288.921L107.355 286.804H111.213L113.148 290.411L111.213 294.017ZM106.953 286.632L106.061 288.294L104.737 283.026H105.018L106.953 286.632ZM105.018 282.682H104.651L102.838 275.469H105.018L106.953 279.076L105.018 282.682ZM105.018 275.126H102.752L102.192 272.897C103.779 272.498 105.354 272.062 106.915 271.59L105.018 275.126ZM109.315 271.348H107.703C108.191 271.196 108.678 271.04 109.163 270.881L109.315 271.348ZM107.355 271.691H109.428L111.572 278.235L111.213 278.904H107.355L105.419 275.298L107.355 271.691ZM111.615 279.076L111.76 278.806L112.214 280.192L111.615 279.076ZM111.213 279.248L112.989 282.557L113.11 282.926L111.213 286.461H107.355L105.419 282.854L107.355 279.248H111.213ZM111.615 286.632L113.297 283.498L115.391 289.887L115.507 290.239H113.55L111.615 286.632ZM113.55 290.582H115.619L117.765 297.131L117.409 297.796H113.55L111.615 294.189L113.55 290.582ZM117.811 297.967L117.953 297.703L118.398 299.062L117.811 297.967ZM117.409 298.139L119.173 301.427L119.303 301.823L117.409 305.352H113.55L111.615 301.746L113.55 298.139H117.409ZM117.811 305.524L119.49 302.394L121.62 308.892C121.376 308.972 121.131 309.052 120.887 309.13H119.746L117.811 305.524ZM119.746 309.474H119.805L119.734 309.496L119.746 309.474ZM119.344 309.302L119.142 309.68C117.04 310.326 114.92 310.926 112.782 311.477L111.615 309.302L113.55 305.696H117.409L119.344 309.302ZM180.95 271.91L166.719 257.857L152.487 243.805C154.236 242.034 155.932 240.201 157.574 238.308L172.685 251.408L187.797 264.509C185.592 267.054 183.308 269.522 180.95 271.91ZM205.303 239.899L187.976 229.909L170.65 219.919C171.904 217.744 173.095 215.521 174.219 213.253L192.139 222.134L210.059 231.015C208.562 234.035 206.975 236.997 205.303 239.899ZM220.881 202.819L201.623 197.421L182.365 192.023C183.047 189.592 183.657 187.127 184.194 184.63L203.747 188.833L223.301 193.035C222.591 196.337 221.783 199.6 220.881 202.819ZM148.387 279.248H144.529L142.593 282.854L144.529 286.461H148.387L150.322 282.854L148.387 279.248Z" fill="url(#paint2_linear_62_20)"/>
<defs>
<linearGradient id="paint0_linear_62_20" x1="77.0013" y1="158" x2="322.546" y2="158" gradientUnits="userSpaceOnUse">
<stop stop-color="white"/>
<stop offset="1" stop-color="white" stop-opacity="0"/>
</linearGradient>
<linearGradient id="paint1_linear_62_20" x1="77.0007" y1="158" x2="273.436" y2="158" gradientUnits="userSpaceOnUse">
<stop stop-color="white"/>
<stop offset="1" stop-color="white" stop-opacity="0"/>
</linearGradient>
<linearGradient id="paint2_linear_62_20" x1="77.0007" y1="158" x2="429.339" y2="158" gradientUnits="userSpaceOnUse">
<stop stop-color="white"/>
<stop offset="1" stop-color="white" stop-opacity="0"/>
</linearGradient>
</defs>
</svg>
