<svg width="148" height="158" viewBox="0 0 148 158" fill="none" xmlns="http://www.w3.org/2000/svg">
<path d="M61.9035 93.3543C65.7751 82.1485 69.6144 71.0466 73.4996 59.7867L49.403 53.7123C49.5998 49.5248 49.7984 45.4013 50.0064 41.0743L77.5799 48.0252C80.4499 39.7751 83.2585 31.7092 86.0907 23.5737L98.3436 26.6625C97.6196 28.9314 96.9603 31.1562 96.193 33.384C94.6726 37.7826 93.0864 42.1586 91.5499 46.5501C91.0096 48.0785 90.5365 49.6238 89.9085 51.1331C89.474 52.1707 89.6775 52.7001 90.7927 53.2567C102.45 59.0644 111.871 67.2565 118.653 77.985C125.392 88.6454 128.69 100.121 127.283 112.432C125.378 129.073 116.667 141.535 101.66 149.9C89.7286 156.55 76.6237 158.721 62.7317 157.059C42.5694 154.625 25.9907 145.794 13.4679 130.325C4.62665 119.404 0.166825 107.061 0.551226 93.387C0.552469 93.2874 0.654064 93.1919 0.756119 93.0119L13.3736 96.1926C14.0471 99.743 14.4463 103.282 15.4112 106.694C18.6581 118.135 25.8302 127.101 35.8395 134.122C44.1518 139.949 53.4412 143.556 63.5866 144.642C79.723 146.368 94.0297 142.753 104.961 131.141C112.334 123.315 115.332 113.814 114.153 103.193C112.612 89.2674 105.233 78.3307 93.6698 69.7017C91.1622 67.8196 88.3962 66.2174 85.4263 64.2763C81.4133 75.8187 77.54 86.9604 73.5939 98.3199L75.837 98.8854C82.9673 100.683 90.0953 102.501 97.2371 104.253C98.4848 104.567 98.9741 104.957 98.8593 106.311C98.5593 109.867 98.5019 113.455 98.3354 117.238L69.5816 109.99C68.2395 113.87 66.9354 117.612 65.6502 121.362C64.218 125.541 62.8166 129.751 61.3375 133.927C61.2191 134.267 60.5421 134.717 60.2603 134.652C56.4396 133.755 52.637 132.775 48.5966 131.757C51.6772 122.848 54.6715 114.2 57.7022 105.442C55.2157 103.95 52.617 102.547 50.1972 100.908C33.8784 89.8517 23.3245 75.2909 21.3636 56.3348C19.3635 36.9784 27.07 21.5731 43.6552 10.5639C53.6544 3.92636 65.0562 1.12895 77.3354 0.943614C85.1005 0.814297 92.8217 2.0208 100.17 4.51178C122.004 11.9075 137.587 25.5054 145.196 46.651C146.043 49.0042 146.55 51.4654 147.115 53.8931C147.435 55.263 147.552 56.6695 147.802 58.3396C143.231 57.1874 138.908 56.1189 134.606 54.9706C134.241 54.8787 133.889 54.2634 133.761 53.8497C129.683 38.1945 119.531 27.0643 104.609 19.7526C90.1515 12.6698 75.1921 11.2201 60.1226 16.6189C48.7404 20.7106 40.5856 28.0522 36.4586 39.1239C32.2703 50.3558 33.9718 61.2202 39.7054 71.7996C44.7371 81.0701 52.3503 88.0375 61.9035 93.3543Z" fill="#A5AEFF" fill-opacity="0.13"/>
</svg>
