<svg width="300" height="239" viewBox="0 0 300 239" fill="none" xmlns="http://www.w3.org/2000/svg">
<path d="M281.246 124.487C274.995 123.957 268.744 123.516 262.492 123.11C250.518 122.333 238.545 121.751 226.571 121.274C224.876 79.1547 205.126 42.4018 175.907 20.7066C185.393 17.741 195.376 16.1169 205.702 16.1169C225.031 16.1169 243.225 21.6775 259.102 31.4571C239.4 11.8626 213.586 0 185.331 0C172.984 0 161.103 2.29489 150 6.49624C138.881 2.31255 127.016 0 114.669 0C86.414 0 60.6002 11.8803 40.8978 31.4571C56.7748 21.6599 74.9689 16.1169 94.2982 16.1169C104.624 16.1169 114.607 17.741 124.093 20.7066C94.8735 42.4018 75.1245 79.1724 73.4295 121.292C61.4556 121.768 49.4816 122.351 37.5078 123.128C31.2565 123.534 25.0052 123.975 18.7539 124.505C12.5026 125.016 6.2513 125.581 0 126.305C6.2513 127.029 12.5026 127.594 18.7539 128.106C25.0052 128.635 31.2565 129.059 37.5078 129.483C49.4816 130.259 61.4556 130.842 73.4295 131.318C74.7512 177.851 98.0148 218.099 131.93 239C108.48 215.698 93.6761 181.452 93.6761 143.287C93.6761 139.456 93.8472 135.661 94.1426 131.919C112.757 132.431 131.386 132.784 150 132.784C168.614 132.784 187.243 132.448 205.857 131.936C206.153 135.679 206.324 139.456 206.324 143.287C206.324 181.452 191.52 215.681 168.07 239C201.985 218.082 225.249 177.851 226.571 131.336C238.545 130.859 250.518 130.277 262.492 129.5C268.744 129.077 274.995 128.653 281.246 128.123C287.497 127.611 293.749 127.047 300 126.323C293.749 125.599 287.497 125.034 281.246 124.522V124.487ZM155.723 119.862V77.6013H144.309V119.862C128.043 119.915 111.761 120.197 95.4956 120.639C101.436 83.1089 121.885 51.3164 150.016 32.9576C178.146 51.2988 198.58 83.0913 204.536 120.621C188.27 120.18 172.004 119.897 155.723 119.862Z" fill="white" fill-opacity="0.5"/>
</svg>
