<svg width="921" height="921" viewBox="0 0 921 921" fill="none" xmlns="http://www.w3.org/2000/svg">
<path opacity="0.08" fill-rule="evenodd" clip-rule="evenodd" d="M228.161 818.038L220.606 829.602L209.667 846.346C206.865 844.515 204.085 842.655 201.326 840.766L212.628 824.265L223.929 807.765C226.119 809.264 228.323 810.743 230.542 812.202L227.768 817.097L228.161 818.038ZM228.694 817.221L231.544 812.859C231.439 812.79 231.334 812.721 231.228 812.652L228.671 817.165L228.694 817.221ZM388.442 900.895L386.158 914.858C387.07 915.007 387.982 915.153 388.896 915.297L392.098 909.648L388.442 900.895ZM391.105 884.611L389.386 895.12L389.078 897.001L393.225 889.687L391.105 884.611ZM399.826 889.728L401.66 876.761C398.633 876.333 395.617 875.873 392.614 875.382L391.429 882.627L394.219 889.306L399.826 889.728ZM397.022 909.563L398.86 896.564L399.699 890.629L394.167 890.213L388.966 899.389L393.092 909.267L397.022 909.563ZM396.895 910.464L393.04 910.174L390.036 915.475C392.039 915.785 394.047 916.083 396.06 916.367L396.895 910.464ZM349.352 896.864L346.857 906.657C350.095 907.482 353.348 908.273 356.615 909.029L358.862 899.323L358.11 897.523L349.352 896.864ZM354.363 877.195L351.795 887.276L349.58 895.97L358.161 896.615L360.407 892.655L361.127 889.545L362.238 884.746L359.237 877.561L354.363 877.195ZM363.333 869.52C361.125 868.995 358.925 868.454 356.732 867.895L354.591 876.301L359.288 876.654L363.333 869.52ZM362.649 882.97L365.638 870.06C365.234 869.967 364.831 869.873 364.427 869.778L360.231 877.181L362.649 882.97ZM359.549 896.356L359.104 897.142L359.274 897.548L359.549 896.356ZM325.834 874.136L320.128 873.707L317.844 868.238L321.677 857.306C324.558 858.317 327.454 859.297 330.364 860.246L325.834 874.136ZM325.544 875.026L320.077 874.614L314.875 883.79L319.001 893.668L319.452 893.702L324.163 879.26L325.544 875.026ZM312.298 884.052L308.44 895.053C310.943 895.931 313.457 896.788 315.981 897.623L318.007 894.049L313.881 884.171L312.298 884.052ZM317.317 869.739L315.059 876.18L312.609 883.164L313.932 883.264L319.134 874.088L317.317 869.739ZM317.027 897.968C317.338 898.071 317.649 898.173 317.961 898.274L319.162 894.592L318.95 894.576L317.027 897.968ZM273.514 881.164C272.74 880.819 271.967 880.471 271.195 880.122L272.414 877.431L273.778 880.698L273.514 881.164ZM279.607 861.546L279.446 861.903L273.013 876.107L274.772 880.317L281.794 880.845L287.473 867.534L285.146 861.963L279.607 861.546ZM287.322 844.512L280.007 860.665L285.198 861.055L290.399 851.879L287.322 844.512ZM294.224 851.711L296.076 847.369C293.446 846.247 290.831 845.099 288.23 843.925L291.393 851.498L294.224 851.711ZM288.056 866.168L288.228 865.764L293.847 852.594L291.342 852.406L286.14 861.582L288.056 866.168ZM274.505 881.605C276.456 882.47 278.414 883.322 280.38 884.16L281.417 881.728L274.721 881.224L274.505 881.605ZM248.266 859.187L244.192 866.804C243.522 866.446 242.852 866.085 242.183 865.723L245.986 859.016L248.266 859.187ZM248.267 839.141L245.219 844.553L242.437 849.49L246.037 858.108L248.734 858.311L253.624 849.168L257.397 842.114L256.411 839.754L248.267 839.141ZM248.76 838.267L256.463 838.847L261.181 830.523C259.122 829.408 257.073 828.276 255.035 827.128L248.76 838.267ZM258.044 840.903L257.405 839.373L262.132 831.036C262.44 831.201 262.748 831.367 263.057 831.532L258.044 840.903ZM241.775 850.666L235.402 861.979C237.338 863.069 239.282 864.145 241.234 865.208L245.043 858.489L241.775 850.666ZM920.271 485.83L900.3 484.743L880.33 483.657C880.246 485.19 880.155 486.724 880.055 488.26C879.954 489.796 879.846 491.33 879.73 492.86L899.673 494.375L919.615 495.89C919.742 494.217 919.86 492.541 919.97 490.862C920.079 489.183 920.18 487.506 920.271 485.83ZM916.367 525.828L896.564 523.028L876.761 520.228C876.333 523.255 875.873 526.27 875.382 529.274L895.12 532.502L914.858 535.73C915.395 532.441 915.899 529.141 916.367 525.828ZM909.029 565.273L889.545 560.761L870.06 556.249C869.37 559.231 868.648 562.2 867.895 565.155L887.276 570.093L906.657 575.03C907.482 571.792 908.273 568.54 909.029 565.273ZM898.274 603.927L879.26 597.725L860.246 591.524C859.296 594.434 858.316 597.33 857.306 600.21L876.179 606.829L895.052 613.448C896.16 610.29 897.234 607.117 898.274 603.927ZM884.16 641.508C882.846 644.588 881.5 647.649 880.122 650.693L861.903 642.442L843.684 634.191C844.941 631.415 846.17 628.621 847.369 625.811L865.764 633.66L884.16 641.508ZM866.804 677.696L849.168 668.263L831.532 658.831C830.092 661.523 828.624 664.197 827.128 666.853L844.553 676.669L861.978 686.485C863.618 683.576 865.226 680.646 866.804 677.696ZM846.346 712.221L829.602 701.282L812.859 690.344C811.188 692.902 809.489 695.44 807.764 697.958L824.265 709.26L840.766 720.562C842.655 717.803 844.515 715.023 846.346 712.221ZM822.952 744.828L807.225 732.472L791.498 720.117C789.61 722.521 787.696 724.903 785.756 727.264L801.211 739.959L816.665 752.654C818.788 750.069 820.884 747.46 822.952 744.828ZM796.809 775.279L782.215 761.604L767.62 747.93C765.53 750.161 763.416 752.368 761.278 754.553L775.573 768.541L789.867 782.529C792.207 780.138 794.521 777.721 796.809 775.279ZM768.123 803.349C765.632 805.583 763.118 807.79 760.58 809.969L747.551 794.795L734.522 779.621C736.841 777.63 739.138 775.614 741.414 773.573L754.768 788.461L768.123 803.349ZM737.114 828.827L725.099 812.838L713.085 796.849C710.641 798.684 708.178 800.494 705.695 802.277L717.359 818.523L729.024 834.769C731.742 832.817 734.439 830.836 737.114 828.827ZM704.013 851.52L693.431 834.549L682.849 817.577C680.257 819.194 677.646 820.782 675.017 822.343L685.227 839.541L695.437 856.738C698.315 855.029 701.174 853.29 704.013 851.52ZM669.063 871.252L659.999 853.424L650.935 835.595C648.214 836.979 645.477 838.333 642.724 839.658L651.396 857.68L660.069 875.702C663.085 874.25 666.083 872.767 669.063 871.252ZM632.522 887.862L625.051 869.309L617.579 850.757C614.752 851.896 611.91 853.005 609.054 854.083L616.117 872.794L623.18 891.505C626.31 890.324 629.424 889.109 632.522 887.862ZM594.677 901.205L588.861 882.07L583.045 862.934C580.129 863.82 577.199 864.676 574.258 865.5L579.652 884.758L585.046 904.017C588.27 903.114 591.481 902.177 594.677 901.205ZM555.809 911.175L551.696 891.603L547.583 872.03C544.596 872.658 541.598 873.254 538.589 873.817L542.27 893.475L545.951 913.134C549.249 912.516 552.535 911.863 555.809 911.175ZM516.211 917.695L513.831 897.837L511.451 877.979C508.423 878.342 505.385 878.672 502.339 878.97L504.283 898.875L506.228 918.781C509.565 918.455 512.893 918.093 516.211 917.695ZM476.178 920.725L475.539 900.735L474.901 880.745C471.859 880.842 468.81 880.907 465.753 880.938L465.958 900.937L466.164 920.936C469.51 920.902 472.848 920.831 476.178 920.725ZM436.058 920.271L437.144 900.3L438.231 880.33C436.698 880.247 435.164 880.155 433.628 880.055C432.092 879.955 430.558 879.846 429.027 879.73L427.513 899.673L425.998 919.615C427.671 919.742 429.347 919.861 431.026 919.97C432.705 920.079 434.382 920.18 436.058 920.271ZM177.06 822.952L189.416 807.225L201.771 791.498C199.367 789.61 196.985 787.696 194.624 785.756L181.929 801.211L169.234 816.665C171.819 818.788 174.427 820.884 177.06 822.952ZM146.609 796.81L160.283 782.215L173.958 767.62C171.727 765.53 169.519 763.416 167.335 761.278L153.347 775.573L139.359 789.867C141.75 792.207 144.166 794.521 146.609 796.81ZM118.539 768.123C116.305 765.633 114.098 763.118 111.919 760.58L127.093 747.551L142.267 734.523C144.258 736.841 146.274 739.139 148.315 741.414L133.427 754.768L118.539 768.123ZM93.061 737.114L109.05 725.099L125.039 713.085C123.203 710.642 121.394 708.178 119.611 705.695L103.365 717.359L87.1184 729.024C89.0703 731.742 91.0513 734.439 93.061 737.114ZM70.3677 704.013L87.3391 693.431L104.311 682.85C102.694 680.257 101.105 677.646 99.5448 675.017L82.3471 685.227L65.1494 695.437C66.8583 698.315 68.5979 701.174 70.3677 704.013ZM50.6362 669.064L68.4643 659.999L86.2924 650.935C84.909 648.214 83.5547 645.477 82.2297 642.724L64.2079 651.396L46.1861 660.069C47.6375 663.085 49.121 666.083 50.6362 669.064ZM34.0262 632.522L52.5783 625.051L71.1304 617.58C69.9917 614.752 68.8831 611.91 67.805 609.054L49.0937 616.117L30.3825 623.181C31.5639 626.31 32.7786 629.424 34.0262 632.522ZM20.6825 594.677L39.8182 588.861L58.9539 583.045C58.0674 580.129 57.2121 577.199 56.3882 574.258L37.1293 579.652L17.8705 585.046C18.7735 588.27 19.711 591.481 20.6825 594.677ZM10.7125 555.809L30.285 551.696L49.8576 547.584C49.2298 544.596 48.6341 541.598 48.0706 538.589L28.4123 542.27L8.75396 545.951C9.37148 549.249 10.0245 552.535 10.7125 555.809ZM4.19291 516.211L24.0508 513.831L43.9087 511.451C43.5458 508.423 43.2153 505.385 42.9177 502.339L23.0125 504.283L3.10724 506.228C3.43325 509.565 3.79526 512.893 4.19291 516.211ZM1.16287 476.178L21.1527 475.539L41.1425 474.901C41.0453 471.859 40.9808 468.81 40.9494 465.753L20.9505 465.958L0.951534 466.164C0.985933 469.51 1.0565 472.848 1.16287 476.178ZM1.61691 436.058C1.70807 434.382 1.80834 432.705 1.91777 431.026C2.02719 429.347 2.14549 427.671 2.27261 425.998L22.2152 427.513L42.1577 429.028C42.0414 430.558 41.9332 432.092 41.8331 433.628C41.733 435.164 41.6412 436.698 41.5578 438.231L21.5874 437.145L1.61691 436.058ZM5.52066 396.06L25.3237 398.86L45.1268 401.66C45.5547 398.633 46.0145 395.617 46.5057 392.614L26.7678 389.386L7.03004 386.158C6.49231 389.447 5.98905 392.747 5.52066 396.06ZM12.8585 356.615L32.343 361.127L51.8274 365.639C52.5179 362.657 53.2398 359.688 53.9927 356.732L34.6117 351.795L15.2308 346.857C14.4059 350.096 13.6149 353.348 12.8585 356.615ZM23.6136 317.961L42.6278 324.163L61.642 330.364C62.5913 327.454 63.5712 324.558 64.5814 321.678L45.7083 315.059L26.8352 308.44C25.728 311.598 24.6539 314.771 23.6136 317.961ZM37.7276 280.38L56.1233 288.228L74.5191 296.077C75.7179 293.267 76.9462 290.473 78.2037 287.697L59.9849 279.446L41.766 271.195C40.3878 274.239 39.0415 277.3 37.7276 280.38ZM55.0836 244.192L72.7198 253.624L90.3559 263.057C91.7956 260.365 93.2637 257.691 94.7598 255.035L77.3344 245.219L59.9091 235.403C58.2699 238.312 56.6613 241.242 55.0836 244.192ZM75.5417 209.667L92.2853 220.606L109.029 231.544C110.7 228.986 112.398 226.448 114.123 223.93L97.6224 212.628L81.1217 201.326C79.2325 204.085 77.3723 206.865 75.5417 209.667ZM98.9354 177.06L114.662 189.416L130.389 201.771C132.278 199.367 134.192 196.985 136.131 194.624L120.677 181.929L105.223 169.234C103.099 171.819 101.004 174.428 98.9354 177.06ZM125.078 146.609L139.673 160.284L154.267 173.958C156.358 171.727 158.472 169.52 160.609 167.335L146.315 153.347L132.021 139.359C129.681 141.75 127.366 144.167 125.078 146.609ZM153.765 118.539L167.119 133.427L180.474 148.315C182.749 146.274 185.046 144.258 187.365 142.267L174.337 127.093L161.308 111.919C158.77 114.098 156.255 116.305 153.765 118.539ZM184.774 93.0611L196.788 109.05L208.803 125.039C211.246 123.203 213.71 121.394 216.193 119.611L204.529 103.365L192.864 87.1185C190.145 89.0704 187.449 91.0514 184.774 93.0611ZM217.875 70.3678L228.457 87.3392L239.038 104.311C241.631 102.694 244.242 101.106 246.87 99.5449L236.661 82.3472L226.451 65.1495C223.572 66.8585 220.714 68.598 217.875 70.3678ZM252.824 50.6363L261.888 68.4644L270.952 86.2926C273.673 84.9092 276.411 83.5548 279.164 82.2298L270.491 64.208L261.819 46.1862C258.803 47.6376 255.804 49.1211 252.824 50.6363ZM289.365 34.0264L296.837 52.5784L304.308 71.1305C307.136 69.9918 309.978 68.8833 312.834 67.8051L305.77 49.0939L298.707 30.3826C295.578 31.564 292.463 32.7787 289.365 34.0264ZM327.21 20.6826L333.026 39.8183L338.842 58.954C341.759 58.0676 344.688 57.2122 347.63 56.3884L342.236 37.1294L336.842 17.8706C333.618 18.7736 330.407 19.7111 327.21 20.6826ZM366.078 10.7126C369.353 10.0246 372.639 9.37161 375.937 8.7541L379.618 28.4124L383.299 48.0708C380.29 48.6342 377.292 49.23 374.304 49.8577L370.191 30.2852L366.078 10.7126ZM405.677 4.19304L408.057 24.0509L410.437 43.9088C413.465 43.5459 416.502 43.2154 419.549 42.9179L417.604 23.0127L415.66 3.10735C412.323 3.43334 408.995 3.79537 405.677 4.19304ZM445.71 1.16299L446.348 21.1528L446.987 41.1426C450.029 41.0455 453.078 40.981 456.135 40.9496L455.929 20.9506L455.724 0.951654C452.378 0.986077 449.04 1.05659 445.71 1.16299ZM485.83 1.61704L484.743 21.5875L483.657 41.558C485.19 41.6414 486.724 41.7331 488.26 41.8332C489.796 41.9333 491.329 42.0415 492.86 42.1578L494.375 22.2153L495.89 2.27274C494.217 2.14563 492.54 2.02733 490.862 1.91791C489.183 1.80848 487.505 1.70821 485.83 1.61704ZM525.828 5.52078L523.028 25.3238L520.228 45.1269C523.255 45.5549 526.27 46.0146 529.274 46.5058L532.502 26.768L535.729 7.03016C532.441 6.49241 529.141 5.98919 525.828 5.52078ZM565.273 12.8586L560.761 32.3431L556.249 51.8276C559.231 52.518 562.2 53.2399 565.155 53.9928L570.093 34.6119L575.03 15.2309C571.792 14.406 568.54 13.615 565.273 12.8586ZM603.927 23.6137L597.725 42.6279L591.524 61.6422C594.434 62.5914 597.33 63.5713 600.21 64.5815L606.829 45.7084L613.447 26.8353C610.29 25.7281 607.116 24.6541 603.927 23.6137ZM641.508 37.7277L633.659 56.1235L625.811 74.5192C628.621 75.718 631.414 76.9463 634.191 78.2039L642.442 59.985L650.693 41.7662C647.649 40.3879 644.587 39.0416 641.508 37.7277ZM677.696 55.0838L668.263 72.7199L658.831 90.3561C661.523 91.7958 664.197 93.2638 666.853 94.7599L676.669 77.3346L686.485 59.9093C683.575 58.2701 680.645 56.6614 677.696 55.0838ZM712.22 75.5419L701.282 92.2855L690.343 109.029C692.902 110.7 695.44 112.398 697.958 114.123L709.26 97.6226L720.561 81.1218C717.803 79.2326 715.023 77.3725 712.22 75.5419ZM744.828 98.9356L732.472 114.663L720.116 130.389C722.52 132.278 724.903 134.192 727.264 136.132L739.959 120.677L752.654 105.223C750.069 103.1 747.46 101.004 744.828 98.9356ZM775.279 125.078L761.604 139.673L747.93 154.268C750.16 156.358 752.368 158.472 754.553 160.609L768.541 146.315L782.529 132.021C780.138 129.681 777.721 127.367 775.279 125.078ZM803.349 153.765L788.461 167.12L773.573 180.474C775.613 182.749 777.63 185.047 779.621 187.365L794.795 174.337L809.969 161.308C807.789 158.77 805.583 156.255 803.349 153.765ZM828.827 184.774L812.837 196.789L796.848 208.803C798.684 211.246 800.494 213.71 802.277 216.193L818.523 204.529L834.769 192.864C832.817 190.146 830.836 187.449 828.827 184.774ZM851.52 217.875L834.549 228.457L817.577 239.038C819.194 241.631 820.782 244.242 822.343 246.87L839.541 236.661L856.738 226.451C855.029 223.572 853.29 220.714 851.52 217.875ZM871.251 252.824L853.423 261.889L835.595 270.953C836.979 273.674 838.333 276.411 839.658 279.164L857.68 270.492L875.702 261.819C874.25 258.803 872.767 255.805 871.251 252.824ZM887.861 289.366L869.309 296.837L850.757 304.308C851.896 307.136 853.005 309.978 854.083 312.834L872.794 305.771L891.505 298.707C890.324 295.578 889.109 292.464 887.861 289.366ZM901.205 327.211L882.069 333.027L862.934 338.843C863.82 341.759 864.676 344.688 865.499 347.63L884.758 342.236L904.017 336.842C903.114 333.618 902.177 330.407 901.205 327.211ZM911.175 366.079C911.863 369.353 912.516 372.639 913.134 375.937L893.475 379.618L873.817 383.299C873.254 380.29 872.658 377.292 872.03 374.304L891.603 370.191L911.175 366.079ZM917.695 405.677L897.837 408.057L877.979 410.437C878.342 413.465 878.672 416.503 878.97 419.549L898.875 417.604L918.78 415.66C918.454 412.323 918.092 408.995 917.695 405.677ZM920.725 445.71L900.735 446.348L880.745 446.987C880.842 450.029 880.907 453.078 880.938 456.135L900.937 455.93L920.936 455.724C920.902 452.378 920.831 449.04 920.725 445.71Z" fill="url(#paint0_linear_71_687)"/>
<defs>
<linearGradient id="paint0_linear_71_687" x1="460.944" y1="460.944" x2="1539.16" y2="531.218" gradientUnits="userSpaceOnUse">
<stop stop-color="white"/>
<stop offset="1" stop-color="white" stop-opacity="0"/>
</linearGradient>
</defs>
</svg>
